<?xml version="1.0" encoding="UTF-8" standalone="no"?>
<!DOCTYPE svg PUBLIC "-//W3C//DTD SVG 1.1//EN" "http://www.w3.org/Graphics/SVG/1.1/DTD/svg11.dtd">
<svg width="100%" height="100%" viewBox="0 0 553 671" version="1.1" xmlns="http://www.w3.org/2000/svg" xmlns:xlink="http://www.w3.org/1999/xlink" xml:space="preserve" xmlns:serif="http://www.serif.com/" style="fill-rule:evenodd;clip-rule:evenodd;stroke-linejoin:round;stroke-miterlimit:2;">
    <g transform="matrix(1,0,0,1,-232.247317,-167.970612)">
        <g id="nascar">
            <path d="M748.228,579.339C734.727,602.275 716.802,623.964 704.281,636.268C698.467,641.981 698.507,641.992 692.449,647.442C653.792,682.217 620.027,693.78 606.593,701.656C592.409,709.973 585.202,716.477 577.336,725.356C569.221,734.518 564.967,744.108 552.794,764.667C552.441,765.262 546.714,775.535 546.219,776.34C545.967,776.75 531.901,801.623 527.721,808.631C527.207,809.494 521.14,820.406 516.837,827.694C516.804,827.75 513.833,833.073 513.571,833.541C512.855,834.824 510.438,839.338 505.457,837.619C502.466,836.587 500.71,831.841 498.197,827.672C497.602,826.686 497.67,826.652 490.966,815.226C488.485,810.997 488.73,810.881 486.215,806.666C485.596,805.63 483.142,801.047 482.268,799.63C481.872,798.988 481.937,798.962 477.655,791.411C464.742,768.632 464.755,768.647 452.057,745.74C448.223,738.823 448.405,738.729 443.847,732.26C439.952,726.732 429.249,711.609 403.724,698.081C399.481,695.832 380.946,687.044 367.337,678.807C359.038,673.784 356.974,672.014 354.474,670.541C353.881,670.191 353.944,670.111 347.435,665.587C341.607,661.536 327.456,650.349 319.581,642.418C312.939,635.727 311.823,635.355 302.916,625.155C301.268,623.268 301.233,623.322 299.596,621.419C289.692,609.908 283.969,601.648 283.247,600.677C279.153,595.169 266.763,575.224 261.904,565.292C245.642,532.051 241.986,513.608 238.535,499.493C236.244,490.121 233.6,472.18 233.117,463.527C232.855,458.83 230.991,441.187 233.694,415.519C233.957,413.022 235.671,396.747 238.426,384.482C239.224,380.93 243.175,364.986 244.961,359.647C248.179,350.021 252.083,337.83 262.717,316.61C267.512,307.042 280.435,286.355 290.632,273.602C295.959,266.94 295.836,266.86 301.516,260.515C328.326,230.566 357.07,212.847 359.343,211.265C360.212,210.66 374.127,201.758 385.52,196.538C393.136,193.048 395.8,190.352 424.548,180.655C432.985,177.809 455.467,172.55 465.472,171.288C475.147,170.068 475.094,169.737 486.53,168.854C487.553,168.775 497.036,167.569 520.514,168.109C526.859,168.255 544.262,169.649 555.463,171.7C563.883,173.242 563.896,173.12 577.542,176.333C602.962,182.317 628.467,194.184 633.666,197.169C636.019,198.52 639.007,199.32 653.638,208.264C673.639,220.491 685.714,230.665 702.541,246.455C706.447,250.121 717.179,261.749 721.244,266.707C728.027,274.979 746.307,296.843 762.318,332.582C768.238,345.796 775.819,367.717 779.916,388.414C780.605,391.895 784.186,409.98 784.964,432.476C785.071,435.566 787.78,474.426 773.092,522.38C769.414,534.39 763.803,551.518 748.228,579.339Z" style="fill:rgb(252,253,250);"/>
            <path d="M309.525,353.504C309.931,353.811 309.985,354.454 310.391,354.761C310.807,355.076 317.803,354.903 319.498,354.964C322.564,355.075 364.574,355.034 367.47,354.957C368.131,354.472 368.793,353.987 369.454,353.502C370.001,353.869 369.598,354.84 372.499,354.875C379.295,354.958 426.116,354.931 426.507,354.83C426.856,354.74 428.485,353.668 428.568,353.511C428.86,352.959 430.136,343.759 431.582,338.525C431.618,338.397 434.073,326.505 434.289,325.46C434.822,322.878 436.263,315.047 437.738,308.55C438.362,305.804 440.244,295.879 440.645,295.52C440.854,295.332 441.213,295.517 441.485,295.448C441.841,295.358 442.146,295.095 442.509,295.047C442.675,295.025 486.925,295.087 489.506,294.99C490.705,294.945 495.021,295.042 495.5,295.053C497.82,295.105 497.908,294.811 498.579,295.315C500.061,296.427 499.334,296.776 498.923,298.589C498.796,299.146 497.484,306.829 495.156,317.419C493.791,323.632 488.743,350.005 488.131,352.43C488.034,352.817 488.009,353.24 487.798,353.578C487.633,353.842 487.286,353.937 487.058,354.15C486.859,354.337 486.77,354.655 486.522,354.771C486.228,354.91 486.205,354.78 482.463,355.012C481.348,355.082 481.355,354.993 468.499,355.02C466.019,355.025 466.037,354.985 437.498,354.978C430.05,354.976 430.012,354.938 429.46,355.268C428.16,356.043 428.195,356.141 427.819,357.587C427.439,359.048 425.6,369.849 423.796,377.564C422.942,381.217 422.737,385.078 420.423,395.481C420.065,397.09 419.355,405.743 418.406,407.5C417.703,408.803 417.579,408.904 417.47,408.993C417.058,409.332 416.912,408.727 416.503,409.063C416.168,409.051 415.835,409.003 415.5,408.991C412.462,408.883 412.414,409.581 411.643,412.538C408.763,423.588 408.823,423.583 405.745,434.565C401.424,449.986 401.77,450.057 397.379,465.467C396.286,469.305 395.231,474.886 393.153,481.403C392.308,484.053 393.701,483.911 396.496,483.905C403.93,483.889 405.615,484.057 406.571,483.612C407.787,483.045 408.066,478.841 415.703,451.564C417.941,443.571 417.412,442.899 417.843,442.832C418.137,442.785 418.229,443.456 418.523,443.41L419.25,443.611C419.275,444.09 419.308,444.066 419.332,444.55C419.383,445.55 419.353,445.531 419.399,446.52C419.557,449.931 425.323,480.007 425.614,481.479C425.867,482.756 426.073,482.66 426.43,483.578L425.459,484.5C427.974,498.03 431.257,520.12 431.37,520.54C432.284,523.949 431.862,524.023 432.661,527.461C433.476,530.969 433.855,535.166 434.123,535.575C434.306,535.852 434.861,535.808 434.953,536.127C435.084,536.581 434.553,537.064 434.684,537.517L434.347,538.516C434.2,538.402 432.513,537.093 432.513,537.093C432.501,537.089 407.782,537.032 400.5,537.067C379.297,537.168 379.314,536.963 377.475,537.076C376.15,537.157 376.269,537.463 375.441,538.497C374.81,538.03 374.18,537.564 373.549,537.098C368.206,536.794 352.112,537.185 345.496,536.961C343.417,536.891 343.418,537.07 319.497,536.936C317.686,536.926 317.701,536.898 317.547,536.947C316.067,537.413 316.352,539.292 316.386,539.515C318.259,551.846 318.83,551.737 322.256,572.545C322.403,573.434 323.813,579.486 324.733,586.47C324.819,587.122 324.857,587.111 326.206,594.564C326.071,594.911 326.124,595.313 325.988,595.659C325.78,596.191 325.532,596.39 325.474,596.437C325.07,596.761 324.945,596.498 324.544,596.82C314.502,597.3 305.83,596.777 298.5,597.038C296.488,597.109 294.193,596.683 293.5,596.914C293.064,597.06 292.744,597.461 292.308,597.607C291.028,595.701 279.856,581.136 267.706,556.396C262.641,546.084 260.588,540.139 260.085,538.681C234.877,476.312 242.808,418.765 243.09,415.425C243.588,415.297 244.002,414.93 244.5,414.801C245.235,414.61 245.638,415.015 247.522,415.034C261.049,415.17 292.804,415.078 295.541,415.092C295.96,415.45 296.137,414.963 296.554,415.319C297.21,415.88 296.453,416.906 297.208,416.517C297.865,416.179 297.977,415.225 298.136,414.504C298.204,414.191 297.784,413.898 297.853,413.585C298.601,410.088 299.667,405.827 300.149,402.44C300.838,397.597 301.073,397.647 302.3,390.467C302.63,388.534 303.995,382.807 304.049,382.44C304.491,379.413 304.656,379.455 305.157,376.442C306.409,368.901 306.783,368.226 307.054,366.438C308.449,357.225 309.125,357.278 308.871,356.512C308.871,356.512 307.624,354.954 307.515,354.819C308.185,354.381 308.855,353.942 309.525,353.504Z" style="fill:rgb(21,22,31);"/>
            <path d="M453.516,235.227C463.794,235.067 510.364,235.189 510.545,235.275C510.815,235.404 510.914,235.747 511.118,235.966C511.295,236.156 511.623,236.247 511.685,236.499C511.767,236.828 511.417,237.17 511.499,237.5C509.871,243.021 505.852,266.09 504.53,271.508C503.32,276.468 503.742,276.543 502.429,281.482C502.249,282.156 500.248,293.45 500.263,293.503C500.345,293.8 500.674,293.962 500.876,294.196C501.056,294.406 501.156,294.719 501.408,294.835C501.985,295.099 516.211,295.017 517.498,295.009C545.627,294.847 545.624,295.13 550.491,295.003C555.937,294.861 556.628,295.216 557.517,294.912C557.676,294.858 559.597,293.583 559.634,293.514C559.938,292.942 559.809,292.231 559.918,291.593C560.2,289.942 560.702,288.772 560.9,286.544C561.296,282.088 561.896,282.214 562.738,277.539C564.7,266.645 565.291,265.102 565.747,262.544C568.22,248.681 568.593,248.762 568.797,247.555C570.066,240.044 570.239,240.095 570.826,237.58C571.244,237.095 570.875,236.92 571.292,236.437C571.625,236.051 571.803,236.364 572.164,236.027C572.352,235.851 572.295,235.5 572.484,235.324C573.248,235.262 573.232,235.16 574.507,235.161C624.194,235.219 624.191,235.144 628.511,235.19C628.945,235.519 629.084,235.095 629.521,235.427C629.926,235.734 629.602,235.928 629.945,236.278C630.101,236.438 630.419,236.345 630.575,236.505C630.43,237.309 629.446,242.76 628.661,246.535C624.059,268.657 624.289,268.687 623.768,270.58C622.197,276.291 619.984,289.763 619.28,292.449C618.988,293.562 618.923,293.542 618.079,294.263C617.402,294.841 617.406,294.852 616.516,294.984C614.774,295.241 614.77,295.029 594.503,295.053C578.84,295.072 578.863,294.975 577.503,294.982C562.777,295.054 562.783,294.986 561.505,295.056C560.29,295.121 560.391,295.39 559.919,295.808C559.677,296.022 559.327,296.121 559.142,296.385C558.464,297.354 555.175,315.176 554.472,318.494C548.546,346.447 548.923,347.655 547.257,353.467C547.119,353.574 545.536,354.801 545.536,354.801C545.098,354.985 535.685,354.841 529.505,354.911C523.204,354.983 490.156,354.743 489.464,355.01C489.42,355.027 487.489,356.466 487.465,356.499C487.178,356.906 487.008,360.523 484.814,369.575C484.514,370.815 484.315,372.23 484.282,372.463C483.706,376.554 483.382,376.477 482.711,380.539C482.47,381.995 480.621,391.408 480.592,391.524C478.751,398.894 478.602,404.033 477.751,407.5L477.442,408.5L478.766,409.848C475.881,411.855 468.188,417.884 466.917,419.777C465.556,421.805 460.88,441.559 453.401,468.472C452,473.513 452.125,473.527 450.749,478.562C450.046,481.133 448.542,483.611 451.441,483.891C451.471,483.894 461.458,483.896 461.522,483.892C464.01,483.75 463.995,482.477 465.364,477.466C465.646,476.436 468.586,465.677 468.864,464.59C468.952,464.246 469.765,461.068 470.467,460.455C471.301,459.726 477.88,460.203 484.503,460.041C486.852,459.984 487.722,460.125 487.187,462.429C486.458,465.566 481.829,482.377 481.831,482.514C481.839,483.167 482.316,483.582 482.392,483.648C482.819,484.019 483.006,483.535 483.437,483.91C484.406,483.998 484.435,483.93 484.472,484.004C484.661,484.397 484.624,489.155 485.694,493.458C485.91,494.33 487.513,500.778 487.842,504.474C488.127,507.669 490.242,519.266 490.553,521.495C491.047,525.032 492.721,535.234 492.684,535.492C492.638,535.805 492.201,535.912 492.019,536.171C491.818,536.457 491.748,536.822 491.547,537.108C487.022,536.927 487.04,537.101 482.511,537.07C443.866,536.814 443.868,537.156 440.51,537.025C440.109,537.009 435.551,536.831 435.497,536.849C435.164,536.959 435.017,537.407 434.684,537.517C434.553,537.064 435.084,536.581 434.953,536.127C434.861,535.808 434.306,535.852 434.123,535.575C433.855,535.166 433.476,530.969 432.661,527.461C431.862,524.023 432.284,523.949 431.37,520.54C431.257,520.12 427.974,498.03 425.459,484.5L426.43,483.578C426.944,483.663 426.902,483.9 428.49,483.918C429.293,483.927 436.408,484.009 438.534,483.888C440.812,483.759 440.903,482.039 441.352,480.458C443.197,473.963 447.451,457.538 447.465,457.49C448.535,453.82 450.527,446.984 460.005,411.386C460.779,408.479 457.628,408.942 457.505,408.948C453.001,409.172 453.017,408.933 448.505,408.974C445.297,409.004 445.544,410.905 444.583,414.523C444.284,415.649 441.693,425.405 440.864,428.595C440.615,429.553 440.595,429.538 437.569,440.519C435.928,446.473 435.896,449.24 435.511,449.512C434.694,450.09 434.506,449.822 434.069,448.925C433.517,447.789 434.02,446.481 432.782,440.443C432.082,437.027 427.232,410.624 427.216,410.578C426.563,408.631 425.628,409.014 416.503,409.063C416.912,408.727 417.058,409.332 417.47,408.993C417.579,408.904 417.703,408.803 418.406,407.5C419.355,405.743 420.065,397.09 420.423,395.481C422.737,385.078 422.942,381.217 423.796,377.564C425.6,369.849 427.439,359.048 427.819,357.587C428.195,356.141 428.16,356.043 429.46,355.268C430.012,354.938 430.05,354.976 437.498,354.978C466.037,354.985 466.019,355.025 468.499,355.02C481.355,354.993 481.348,355.082 482.463,355.012C486.205,354.78 486.228,354.91 486.522,354.771C486.77,354.655 486.859,354.337 487.058,354.15C487.286,353.937 487.633,353.842 487.798,353.578C488.009,353.24 488.034,352.817 488.131,352.43C488.743,350.005 493.791,323.632 495.156,317.419C497.484,306.829 498.796,299.146 498.923,298.589C499.334,296.776 500.061,296.427 498.579,295.315C497.908,294.811 497.82,295.105 495.5,295.053C495.021,295.042 490.705,294.945 489.506,294.99C486.925,295.087 442.675,295.025 442.509,295.047C442.146,295.095 441.841,295.358 441.485,295.448C441.213,295.517 440.854,295.332 440.645,295.52C440.244,295.879 438.362,305.804 437.738,308.55C436.263,315.047 434.822,322.878 434.289,325.46C434.073,326.505 431.618,338.397 431.582,338.525C430.136,343.759 428.86,352.959 428.568,353.511C428.485,353.668 426.856,354.74 426.507,354.83C426.116,354.931 379.295,354.958 372.499,354.875C369.598,354.84 370.001,353.869 369.454,353.502C370.182,346.462 370.566,346.542 371.958,339.595C373.962,329.589 373.987,329.617 375.94,319.583C376.55,316.452 377.515,312.18 377.66,311.538C377.93,310.343 377.702,310.321 380.569,296.507C381.554,295.845 381.563,295.88 382.476,295.128C385.594,294.972 385.571,294.987 421.501,294.966C428.533,294.961 432.539,295.025 433.498,295.04C438.768,295.124 439.125,294.863 439.515,294.579C439.743,294.413 439.737,294.041 439.947,293.854C440.149,293.673 440.534,293.749 440.691,293.529C440.742,293.457 442.197,286.109 442.325,285.463C444.29,275.54 444.327,275.378 444.525,274.506C444.758,273.481 444.493,273.438 446.97,261.603C448.036,256.512 448.327,256.584 449.127,251.435C450.014,245.733 450.528,245.851 451.462,239.496C451.485,239.339 451.49,239.352 451.842,237.554C452.4,236.778 452.958,236.003 453.516,235.227Z" style="fill:rgb(5,7,18);"/>
            <path d="M736.563,303.455C750.901,327.473 755.451,339.246 760.975,354.413C760.462,354.533 760.014,354.866 759.5,354.986C759.235,355.048 758.957,354.938 758.685,354.948C757.471,354.989 757.472,354.655 743.5,354.946C728.964,355.248 728.914,354.534 727.486,355.002C727.143,355.114 725.47,356.317 725.378,356.485C725.021,357.135 724.469,361.367 723.564,365.513C719.937,382.132 720.165,382.157 719.783,383.584C718.214,389.453 718.686,389.54 717.356,395.466C715.1,405.511 715.793,405.696 715.282,406.428C715.113,406.67 714.535,406.553 714.5,406.847C714.464,407.154 715.192,407.194 715.156,407.5C715.936,408.021 716.716,408.542 717.496,409.063C704.602,409 704.616,408.996 703.495,408.992C693.263,408.957 693.264,408.936 692.39,409.095C690.66,409.412 690.183,413.289 689.549,415.517C689.161,416.88 685.441,429.95 684.763,432.575C683.568,437.197 675.894,464.827 672.883,476.619C671.411,482.388 670.845,482.525 671.581,483.429C672.12,484.091 675.28,483.89 677.503,483.883C683.924,483.863 684.984,484.419 685.82,481.603C687.762,475.063 687.529,475.016 689.414,468.475C691.511,461.198 691.14,460.357 693.464,460.123C693.828,460.086 700.27,460.115 700.544,460.153C702.891,460.475 702.434,461.855 703.067,467.544C703.165,468.423 704.175,477.497 704.347,478.526C705.036,482.654 704.768,483.807 707.475,483.9C708.279,483.927 713.559,484.108 717.536,483.925C718.773,483.868 719.116,483.439 719.299,483.383C719.639,484.247 720.313,483.634 720.655,484.5C720.885,485.084 719.971,484.818 720.1,485.416C720.206,485.911 720.906,486.093 721.098,486.562C721.347,487.171 721.279,487.865 721.369,488.517C721.446,489.078 722.315,495.418 722.336,495.535C723.507,501.945 723.216,501.981 723.348,502.531C723.942,505.019 723.981,504.992 724.356,507.522C726.267,520.411 726.578,520.351 726.702,521.476C726.818,522.521 726.825,522.505 728.755,534.457C728.905,535.387 728.974,535.459 728.278,536.262C728.03,536.547 727.758,536.81 727.51,537.095C701.362,536.858 675.864,537.15 672.518,536.927C670.83,536.814 670.97,537.356 670.446,537.502L669.448,536.379C669.074,536.514 669.12,536.992 667.497,537.084C667.418,537.089 667.423,537.085 666.502,537.083C655.988,537.058 656.009,537.068 645.496,537.073C615.12,537.089 615.128,537.097 612.493,536.929C612.082,536.482 611.67,536.036 611.259,535.589C611.008,534.509 610.92,534.546 610.765,533.462C610.355,530.591 609.895,529.257 609.084,523.565C608.555,519.854 607.098,512.938 607.031,512.6C606.44,509.589 606.571,509.587 606.046,506.578C605.251,502.029 605.217,502.049 604.487,497.502C604.282,496.224 602.313,483.954 602.112,481.5L601.166,480.153C606.743,475.539 606.746,475.57 607.227,475.166C609.593,473.179 609.523,472.948 611.765,464.568C611.875,464.157 613.054,459.748 613.097,459.424C613.117,459.272 613.268,458.131 612.436,457.621C612.064,457.392 609.734,457.419 609.499,457.422C602.799,457.5 601.453,457.38 600.496,457.439C598.34,457.571 598.439,458.968 597.184,463.41C595.864,468.085 596.505,469.938 592.501,469.928C591.538,469.926 580.9,469.899 580.467,469.877C580.282,469.867 578.717,469.785 578.623,468.491C578.554,467.542 582.077,454.381 582.64,452.541C584.461,446.584 586.951,436.785 590.012,425.383C590.672,422.926 591.333,422.859 596.502,422.965C607.249,423.187 607.315,423.064 607.623,423.343C608.813,424.423 607.976,424.715 605.908,432.607C605.31,434.89 606.147,435.132 608.501,435.035C614.3,434.795 617.771,435.078 618.596,434.89C619.558,434.672 620.337,434.495 623.065,423.392C624.08,419.259 624.059,418.942 621.325,415.618C621.778,415.473 622.047,414.954 622.5,414.81C622.804,414.713 624.341,414.857 624.5,414.872C625.71,414.985 625.696,415.096 630.488,415.039C635.01,414.985 634.993,414.384 635.344,414.555C635.344,414.555 636.953,415.909 637.092,416.027C634.545,417.969 632.815,418.91 632.165,421.425C628.787,434.494 620.291,464.761 618.083,473.393C615.914,481.867 615.448,481.738 615.414,482.496C615.366,483.582 616.216,483.828 616.343,483.865C616.671,483.96 616.86,483.911 626.504,483.917C629.269,483.918 629.631,483.748 630.239,481.44C630.674,479.783 635.513,461.386 635.925,460.801C636.643,459.782 636.932,459.975 651.484,459.996C652.576,459.998 652.726,459.733 653.417,460.566C653.623,460.815 653.705,461.178 653.675,461.499C653.668,461.565 648.885,479.083 648.73,479.573C647.866,482.31 647.818,482.304 647.844,482.512C647.865,482.68 648,483.774 649.441,483.889C649.766,483.915 658.697,483.856 659.502,483.851C662.62,483.83 662.233,482.593 664.533,474.508C666.816,466.482 668.648,458.968 668.979,457.61C669.548,455.272 669.89,455.367 676.912,428.606C679.205,419.871 679.683,419.56 677.986,417.142C677.619,416.618 677.292,416.154 673.106,410.814C671.82,409.173 671.61,409.101 665.501,408.979C664.622,408.962 664.626,409.045 654.508,409.012C654.719,408.779 655.236,409.167 655.448,408.934C655.553,408.819 656.747,403.883 657.297,399.476C657.983,393.975 658.742,392.958 659.172,389.456C659.681,385.312 663.144,369.892 663.539,367.505C665.175,357.641 665.585,357.092 666.134,356.359C666.305,356.13 666.617,356.05 666.828,355.858C667.062,355.646 667.18,355.295 667.462,355.152C667.772,354.995 668.184,355.171 668.493,355.014C671.764,354.866 723.615,355.255 724.532,354.712C726.223,353.712 725.86,353.376 726.292,351.458C727.172,347.548 726.863,347.504 727.899,343.608C728.089,342.893 727.886,342.855 729.687,334.535C729.842,333.815 729.765,333.806 731.444,325.49C732.243,321.531 732.268,321.554 732.898,317.55C733.231,315.427 735.062,309.01 734.981,306.575C734.943,305.458 734.784,305.387 735.477,304.5C735.786,304.104 736.254,303.851 736.563,303.455Z" style="fill:rgb(10,11,21);"/>
            <path d="M637.502,209.497C637.658,209.588 640.927,211.361 645.648,214.246C646.198,214.583 651.592,217.879 652.546,218.428C653.591,219.029 664.421,226.272 667.414,228.615C673.316,233.233 673.536,232.93 679.233,237.808C681.982,240.162 682.772,240.482 687.317,244.706C688.667,245.961 688.641,245.978 688.758,246.086C688.489,246.61 687.63,246.643 687.362,247.167C687.156,247.567 687.547,248.059 687.516,248.508C687.472,249.15 687.277,249.774 687.141,250.403C686.597,252.91 686.715,252.908 686.196,255.434C682.777,272.073 682.932,272.085 682.577,273.517C680.966,280.01 679.674,288.181 678.851,291.585C678.564,292.775 678.945,293.004 677.952,293.718C676.563,294.717 676.648,294.831 676.509,294.882C675.962,295.082 643.73,294.965 631.489,295.03C623.201,295.073 623.209,294.933 622.49,294.954C620.909,295 620.773,294.663 619.546,295.646C619.349,295.804 619.236,296.049 619.04,296.209C618.88,296.338 618.609,296.328 618.496,296.499C618.229,296.905 618.282,296.925 617.222,302.443C614.735,315.394 614.401,315.317 614.209,316.446C612.307,327.634 611.897,327.548 611.213,331.444C609.428,341.603 609.268,341.567 609.119,342.451C607.387,352.759 606.761,352.653 606.851,353.555C606.857,353.612 608.306,354.788 608.435,354.832C608.502,354.854 608.505,354.845 615.493,354.871C642.434,354.972 664.41,354.896 664.519,354.854C664.519,354.854 666.298,353.604 666.452,353.495C667.133,354.002 667.813,354.508 668.493,355.014C668.184,355.171 667.772,354.995 667.462,355.152C667.18,355.295 667.062,355.646 666.828,355.858C666.617,356.05 666.305,356.13 666.134,356.359C665.585,357.092 665.175,357.641 663.539,367.505C663.144,369.892 659.681,385.312 659.172,389.456C658.742,392.958 657.983,393.975 657.297,399.476C656.747,403.883 655.553,408.819 655.448,408.934C655.236,409.167 654.719,408.779 654.508,409.012C647.161,408.863 646.771,408.34 642.606,411.635C642.163,411.984 642.177,411.996 637.092,416.027C636.953,415.909 635.344,414.555 635.344,414.555C634.993,414.384 635.01,414.985 630.488,415.039C625.696,415.096 625.71,414.985 624.5,414.872C624.341,414.857 622.804,414.713 622.5,414.81C622.047,414.954 621.778,415.473 621.325,415.618C618.907,412.518 617.643,410.441 616.451,409.572C615.077,408.572 613.608,409.192 596.476,409.041C596.856,402.812 602.179,379.336 603.652,370.522C605.108,361.807 606.381,356.9 606.346,356.488C606.316,356.131 605.645,354.874 605.524,354.824C605.153,354.669 605.149,355.178 600.503,355.029C593.821,354.815 560.313,355.252 548.396,354.895C548.017,354.419 547.637,353.943 547.257,353.467C548.923,347.655 548.546,346.447 554.472,318.494C555.175,315.176 558.464,297.354 559.142,296.385C559.327,296.121 559.677,296.022 559.919,295.808C560.391,295.39 560.29,295.121 561.505,295.056C562.783,294.986 562.777,295.054 577.503,294.982C578.863,294.975 578.84,295.072 594.503,295.053C614.77,295.029 614.774,295.241 616.516,294.984C617.406,294.852 617.402,294.841 618.079,294.263C618.923,293.542 618.988,293.562 619.28,292.449C619.984,289.763 622.197,276.291 623.768,270.58C624.289,268.687 624.059,268.657 628.661,246.535C629.446,242.76 630.43,237.309 630.575,236.505C630.419,236.345 630.101,236.438 629.945,236.278C629.602,235.928 629.926,235.734 629.521,235.427C629.084,235.095 628.945,235.519 628.511,235.19C629.525,234.649 630.673,234.959 631.583,231.522C632.642,227.518 632.207,227.439 633.285,223.426C634.254,219.822 636.073,209.479 636.648,209.073C636.908,208.89 637.242,209.68 637.502,209.497Z" style="fill:rgb(44,47,53);"/>
            <path d="M510.116,414.778C512.324,414.98 512.309,415.008 512.5,414.996C513.519,414.931 513.502,414.883 514.525,414.966C514.557,414.968 519.393,414.977 522.476,414.762C524.854,414.596 525.51,415.694 525.866,415.86C522.374,418.775 522.041,419.296 521.802,419.672C521.199,420.617 520.08,425.13 519.96,425.612C518.089,433.15 515.527,440.853 515.516,442.5C515.501,444.54 519.273,448.805 520.077,449.846C522.189,452.578 522.284,453.128 527.503,453.042C528.704,453.022 536.2,452.899 542.526,453.074C542.737,453.08 544.659,453.133 544.76,454.477C544.78,454.747 544.737,454.742 543.955,457.623C543.715,458.506 541.422,466.945 540.725,468.604C540.024,470.271 539.373,469.824 527.504,469.881C524.311,469.897 522.514,470.53 523.33,467.457C524.319,463.739 525.334,461.817 521.5,461.986C516.733,462.196 514.812,461.99 512.469,462.107C510.314,462.215 509.876,463.236 508.984,466.628C507.333,472.898 506.301,473.54 510.347,478.62C513.486,482.561 513.755,484.136 517.505,484.033C525.401,483.816 535.336,484.058 539.511,483.931C540.822,483.891 541.309,483.514 541.486,483.472C541.914,483.857 542.445,484.115 542.873,484.5C544.368,485.844 543.392,486.606 544.879,494.423C546.789,504.457 546.566,504.477 548.386,514.517C549.385,520.033 549.319,520.041 549.408,520.52C549.877,523.027 549.818,523.021 550.234,525.552C550.892,529.539 551.091,529.482 551.775,533.46C552.054,535.08 551.726,535.272 552.931,536.402C554.073,537.475 560.217,536.855 562.498,536.952C564.764,537.048 609.529,536.989 609.532,536.988C609.877,536.894 610.002,536.443 610.28,536.218C610.581,535.974 610.957,535.833 611.259,535.589C611.67,536.036 612.082,536.482 612.493,536.929C612.424,537.041 612.489,537.206 612.42,537.318C612.161,537.739 611.71,538.042 611.526,538.501C611.316,539.026 611.422,539.039 612.526,545.496C613.95,553.828 614.617,555.884 615.161,560.542C615.162,560.551 617.063,569.757 617.898,575.451C618.494,579.519 618.704,579.471 619.244,583.537C619.329,584.176 619.485,584.134 620.624,591.478C620.72,592.092 621.115,594.295 621.159,594.54C620.929,595.172 620.699,595.804 620.47,596.437C620.32,596.479 619.874,597.095 617.505,597.007C614.226,596.886 614.244,597.002 576.496,596.931C575.536,596.929 565.185,596.91 564.494,596.845C564.151,596.813 563.829,596.654 563.486,596.622L562.371,595.53C561.157,590.289 560.992,586.492 560.497,584.501C558.964,578.329 559.298,578.273 557.927,570.439C554.873,552.977 554.979,552.965 554.611,551.469C553.766,548.039 554.058,548.001 553.37,544.524C552.776,541.522 552.468,537.822 552.163,537.546C551.982,537.383 551.675,537.699 551.439,537.64C551.097,537.553 550.852,537.221 550.511,537.127C550.352,537.083 546.813,537.098 546.492,537.1C499.568,537.301 499.569,536.898 495.493,537.076C494.131,537.136 494.234,537.44 493.352,538.486C492.75,538.027 492.149,537.567 491.547,537.108C491.748,536.822 491.818,536.457 492.019,536.171C492.201,535.912 492.638,535.805 492.684,535.492C492.721,535.234 491.047,525.032 490.553,521.495C490.242,519.266 488.127,507.669 487.842,504.474C487.513,500.778 485.91,494.33 485.694,493.458C484.624,489.155 484.661,484.397 484.472,484.004C484.435,483.93 484.406,483.998 483.437,483.91C487.469,484.059 487.459,483.948 491.499,484.028C491.823,484.035 494.895,484.096 495.521,483.526C496.253,482.858 496.063,482.714 500.616,466.533C501.111,464.777 500.986,464.746 506.539,444.51C507.113,442.419 509.685,431.724 512.432,422.479C513.672,418.308 512.825,418.182 510.116,414.778Z" style="fill:rgb(0,1,14);"/>
            <path d="M548.396,354.895C560.313,355.252 593.821,354.815 600.503,355.029C605.149,355.178 605.153,354.669 605.524,354.824C605.645,354.874 606.316,356.131 606.346,356.488C606.381,356.9 605.108,361.807 603.652,370.522C602.179,379.336 596.856,402.812 596.476,409.041C594.694,409.06 591.451,408.994 590.439,409.335C589.241,409.738 581.228,416.125 579.617,417.629C576.288,420.737 576.808,421.139 575.51,425.503C571.942,437.499 572.214,437.553 568.945,449.622C568.56,451.044 564.442,466.247 564.144,467.407C562.762,472.78 561.849,473.291 565.173,477.731C568.321,481.935 569.309,483.667 571.476,483.823C572.789,483.918 592.142,483.935 593.51,483.905C596.934,483.829 597.669,482.395 601.166,480.153L602.112,481.5C602.313,483.954 604.282,496.224 604.487,497.502C605.217,502.049 605.251,502.029 606.046,506.578C606.571,509.587 606.44,509.589 607.031,512.6C607.098,512.938 608.555,519.854 609.084,523.565C609.895,529.257 610.355,530.591 610.765,533.462C610.92,534.546 611.008,534.509 611.259,535.589C610.957,535.833 610.581,535.974 610.28,536.218C610.002,536.443 609.877,536.894 609.532,536.988C609.529,536.989 564.764,537.048 562.498,536.952C560.217,536.855 554.073,537.475 552.931,536.402C551.726,535.272 552.054,535.08 551.775,533.46C551.091,529.482 550.892,529.539 550.234,525.552C549.818,523.021 549.877,523.027 549.408,520.52C549.319,520.041 549.385,520.033 548.386,514.517C546.566,504.477 546.789,504.457 544.879,494.423C543.392,486.606 544.368,485.844 542.873,484.5C542.445,484.115 541.914,483.857 541.486,483.472C545.406,480.631 552.934,476.201 554.387,472.455C554.928,471.059 557.61,460.637 557.876,459.605C560.169,450.691 561.022,450.183 559.191,447.732C553.915,440.668 553.367,439.917 552.478,439.546C550.381,438.671 534.103,439.429 532.598,439.098C531.531,438.863 531.566,437.654 531.571,437.503C531.581,437.161 534.123,427.498 534.741,425.574C535.692,422.615 536.39,422.901 539.501,422.949C549.677,423.11 549.665,423 550.548,423.048C551.762,423.115 552.872,423.529 552.373,425.47C551.474,428.974 549.854,430.805 553.474,430.894C554.277,430.913 558.795,431.024 563.514,430.918C566.131,430.859 566.169,429.445 567.042,425.403C567.933,421.284 569.158,419.688 567.182,416.739C565.794,414.666 563.683,412.004 563.365,411.603C560.919,408.518 560.433,409 556.497,408.98C554.978,408.973 541.386,408.905 537.508,409.07C537.092,408.27 536.814,408.398 536.692,407.5C536.643,407.136 537.01,406.836 537.121,406.486C537.325,405.845 537.476,405.188 537.633,404.533C538.686,400.155 538.972,398.012 539.049,397.439C539.134,396.799 539.558,393.627 540.42,389.485C541.642,383.62 542.361,377.975 543.416,373.478C544.011,370.942 546.025,359.924 546.587,357.519C546.925,356.071 547.298,356.315 547.728,355.857C547.995,355.573 548.129,355.18 548.396,354.895Z" style="fill:rgb(16,18,27);"/>
            <path d="M493.352,538.486C494.234,537.44 494.131,537.136 495.493,537.076C499.569,536.898 499.568,537.301 546.492,537.1C546.813,537.098 550.352,537.083 550.511,537.127C550.852,537.221 551.097,537.553 551.439,537.64C551.675,537.699 551.982,537.383 552.163,537.546C552.468,537.822 552.776,541.522 553.37,544.524C554.058,548.001 553.766,548.039 554.611,551.469C554.979,552.965 554.873,552.977 557.927,570.439C559.298,578.273 558.964,578.329 560.497,584.501C560.992,586.492 561.157,590.289 562.371,595.53C561.852,595.921 562,596.046 561.473,596.443C561.407,596.493 561.052,596.76 560.546,596.904C560.207,597 557.744,597.003 557.5,597.003C528.976,597.034 528.978,596.924 526.498,596.975C517.587,597.156 513.049,596.908 509.494,596.947C504.853,596.998 504.847,596.585 504.472,596.731C504.166,596.851 504.04,597.236 503.894,597.531C503.308,598.709 503.746,598.752 504.23,601.561C507.544,620.784 507.582,620.773 507.797,622.455C508.993,631.786 512.312,647.067 513.458,655.503C512.806,656.033 512.154,656.563 511.502,657.093C491.147,657.17 491.163,657.105 469.499,657.122C457.01,657.131 456.756,657.308 455.544,656.4C455.176,656.124 454.864,655.777 454.496,655.501C453.803,651.731 450.786,633.329 450.656,632.477C449.84,627.103 446.657,609.437 446.437,608.516C446.136,607.26 444.807,598.672 444.665,596.471C448.076,597.352 448.129,596.877 460.491,596.94C468.715,596.982 501.269,596.972 501.551,596.878C501.764,596.808 503.18,596.336 503.107,594.554C503.072,593.711 501.444,585.34 501.288,584.54C501.165,583.906 501.258,583.893 500.009,576.557C498.299,566.514 498.345,566.529 496.432,556.513C495.95,553.993 496.149,553.97 495.511,551.497C495.262,550.532 495.052,547.407 493.599,540.48C493.328,539.185 493.439,539.187 493.352,538.486Z" style="fill:rgb(47,49,54);"/>
            <path d="M454.496,655.501C454.864,655.777 455.176,656.124 455.544,656.4C456.756,657.308 457.01,657.131 469.499,657.122C491.163,657.105 491.147,657.17 511.502,657.093C511.801,657.251 512.215,657.009 512.515,657.167C512.81,657.322 512.894,657.722 513.136,657.952C513.334,658.141 513.673,658.175 513.82,658.406C514.293,659.144 518.962,689.75 520.673,698.464C520.86,699.419 520.598,699.463 522.747,710.446C523.145,712.482 523.014,712.488 523.427,714.516C523.493,714.839 523.419,715.218 523.607,715.49C523.624,715.515 525.447,716.798 525.487,716.813C526.176,717.068 549.336,716.948 561.493,716.992C568.896,717.018 569.864,716.74 570.5,716.961C570.951,717.118 571.295,717.513 571.746,717.67C561.187,729.135 551.729,748.819 542.799,763.68C541.394,766.019 531.189,784.481 521.727,800.633C519.013,805.266 518.394,807.028 510.896,819.736C508.368,824.022 508.677,824.541 507.51,824.595C506.345,824.649 506.48,824.276 505.939,823.245C503.92,819.399 483.573,783.525 480.309,777.584L481.5,777.149L482.5,776.989C486.42,777 526.787,777.117 531.494,776.903C533.907,776.794 533.601,775.907 533.377,773.519C533.077,770.329 529.673,753.902 528.785,746.473C528.665,745.473 528.127,743.602 527.924,742.429C526.015,731.362 526.04,731.377 525.869,730.417C523.867,719.181 524.797,718.495 522.553,717.162C521.903,716.775 510.162,717.017 508.497,717.019C469.815,717.056 469.817,716.995 466.454,717.041C465.574,716.216 465.639,716.172 464.637,715.489C463.309,709.033 463.65,708.982 462.27,702.545C462.18,702.122 461.024,694.643 457.035,671.592C455.511,662.788 455.053,658.791 454.804,658.444C454.626,658.195 454.218,658.222 453.989,658.019C453.663,657.732 453.908,657.551 453.526,657.315C453.064,657.029 452.962,657.385 452.503,657.101C452.869,656.973 453.191,656.738 453.557,656.611C453.783,656.532 454.11,656.67 454.264,656.487C454.482,656.229 454.278,655.758 454.496,655.501Z" style="fill:rgb(0,1,13);"/>
            <path d="M463.492,181.029C463.065,182.79 463.092,182.78 462.73,184.551C459.329,201.175 459.225,201.135 458.976,202.588C457.596,210.61 454.929,221.423 453.947,226.566C452.563,233.81 452.598,233.881 452.877,234.454C453.023,234.754 453.369,234.926 453.516,235.227C452.958,236.003 452.4,236.778 451.842,237.554C451.613,236.794 452.126,235.423 449.514,235.264C445.199,235 445.212,235.184 395.469,235.169C394.435,235.169 394.397,235.089 393.545,235.661C392.18,236.578 392.479,236.824 392.17,238.437C391.456,242.167 391.39,242.149 391.335,242.474C390.458,247.654 390.272,247.597 389.869,249.578C387.64,260.541 387.922,260.58 385.652,271.535C383.564,281.611 383.414,281.576 383.245,282.454C383.153,282.933 382.35,287.11 382.174,288.453C381.56,293.139 381.094,293.069 381.18,293.469C381.326,294.155 382.329,294.441 382.476,295.128C381.563,295.88 381.554,295.845 380.569,296.507C380.132,296.205 380.015,295.56 379.578,295.258C378.986,294.849 333.994,295.246 323.529,295.034C322.945,294.529 322.36,294.025 321.776,293.52C322.618,289.488 322.627,289.507 323.195,285.447C323.313,284.606 324.321,281.116 327.178,266.419C327.898,262.712 328.137,262.784 329.127,257.441C329.157,257.278 330.658,250.284 330.738,249.544C330.765,249.298 330.905,248.001 331.259,246.5L330.27,245.295C333.688,242.137 333.553,242.013 337.242,239.155C337.46,238.986 337.411,238.94 339.821,236.884C340.089,236.655 340.101,236.674 343.338,234.24C343.971,234.529 343.877,234.652 344.5,234.937C344.576,234.971 345.097,235.209 345.5,235.227C345.84,235.241 346.16,235.036 346.5,235.023C346.517,235.023 348.188,235.285 349.484,235.234C353.023,235.093 353.016,235.166 382.503,235.159C390.719,235.157 390.889,235.241 392.032,234.194C392.268,233.978 392.6,233.856 392.775,233.589C393.122,233.063 393.778,229.894 393.846,229.568C395.74,220.431 395.816,220.464 396.256,217.463C396.326,216.981 397.591,212.01 398.086,208.463C398.622,204.623 399.505,202.953 399.484,202.5C399.468,202.146 399.144,201.854 399.127,201.5L399.356,200.223C400.443,199.755 429.009,186.221 463.492,181.029Z" style="fill:rgb(0,1,13);"/>
            <path d="M321.776,293.52C322.36,294.025 322.945,294.529 323.529,295.034C323.445,295.067 322.711,294.886 321.916,295.672C320.979,296.598 320.828,297.373 320.351,299.468C320.205,300.111 320.26,300.111 318.759,307.549C317.946,311.577 314.393,330.407 314.018,332.396C313.881,333.122 313.705,333.07 312.091,341.431C311.951,342.155 311.886,342.131 310.236,350.451C309.931,351.989 309.933,351.973 309.525,353.504C308.855,353.942 308.185,354.381 307.515,354.819C307.624,354.954 308.871,356.512 308.871,356.512C309.125,357.278 308.449,357.225 307.054,366.438C306.783,368.226 306.409,368.901 305.157,376.442C304.656,379.455 304.491,379.413 304.049,382.44C303.995,382.807 302.63,388.534 302.3,390.467C301.073,397.647 300.838,397.597 300.149,402.44C299.667,405.827 298.601,410.088 297.853,413.585C296.653,414.748 296.689,414.78 296.558,414.84C296.241,414.987 295.858,414.945 295.541,415.092C292.804,415.078 261.049,415.17 247.522,415.034C245.638,415.015 245.235,414.61 244.5,414.801C244.002,414.93 243.588,415.297 243.09,415.425C244.045,407.034 245.637,391.974 250.624,373.534C254.539,359.058 256.439,355.071 258.684,348.567C260.506,343.289 264.519,334.514 265.069,333.31C269.91,322.724 270.286,322.928 275.606,312.561C276.001,311.792 276.693,310.444 281.162,303.298C283.913,298.899 284.293,297.913 287.193,294.2L288.5,295.05C290.075,295.126 290.055,295.17 291.492,295.147C312.653,294.809 312.653,295.118 314.492,295.059C318.872,294.918 319.014,295.419 320.494,294.481C320.945,294.195 321.325,293.806 321.776,293.52Z" style="fill:rgb(24,26,34);"/>
            <path d="M774.434,414.512C777.128,446.104 775.779,451.257 774.101,471.455C773.956,473.198 772.158,488.338 769.597,499.523C767.478,508.781 762.995,525.832 757.831,537.683C757.344,537.642 756.987,537.111 756.5,537.069C756.139,537.039 755.857,537.475 755.494,537.485C755.136,537.495 754.836,537.168 754.479,537.126C753.537,537.017 734.252,537.097 732.493,537.104C729.973,537.115 730.309,538.038 729.725,538.506C728.987,538.036 728.248,537.565 727.51,537.095C727.758,536.81 728.03,536.547 728.278,536.262C728.974,535.459 728.905,535.387 728.755,534.457C726.825,522.505 726.818,522.521 726.702,521.476C726.578,520.351 726.267,520.411 724.356,507.522C723.981,504.992 723.942,505.019 723.348,502.531C723.216,501.981 723.507,501.945 722.336,495.535C722.315,495.418 721.446,489.078 721.369,488.517C721.279,487.865 721.347,487.171 721.098,486.562C720.906,486.093 720.206,485.911 720.1,485.416C719.971,484.818 720.885,485.084 720.655,484.5C720.313,483.634 719.639,484.247 719.299,483.383C719.339,482.904 719.557,482.981 719.597,482.506C719.604,482.426 719.598,482.426 719.457,481.505C719.408,481.181 719.202,479.837 718.913,477.447C716.67,458.883 716.25,458.276 717.391,456.412C717.933,455.527 725.733,450.197 727.063,448.225C727.735,447.229 731.27,432.882 733.391,425.469C734.861,420.331 735.614,419.792 732.261,415.639C732.47,415.572 733.087,414.672 735.486,414.977C736.915,415.159 737.134,415.187 753.498,415.095C770.094,415.001 770.084,415.355 771.516,415.186C772.183,415.108 772.833,414.913 773.5,414.835L774.434,414.512Z" style="fill:rgb(0,1,13);"/>
            <path d="M688.758,246.086C691.92,249.006 694.387,250.896 702.533,259.469C712.102,269.539 720.816,280.716 722.315,282.638C726.345,287.807 726.179,287.911 730.669,294.413C729.904,294.624 729.998,294.952 728.311,295.062C727.385,295.123 727.402,295.105 726.48,295.1C715.451,295.034 715.46,294.966 714.503,294.999C704.911,295.33 680.713,294.615 679.455,295.239C679.222,295.355 679.129,295.648 678.936,295.824C678.699,296.04 678.348,296.142 678.173,296.411C677.357,297.671 673.352,320.571 672.098,325.393C670.659,330.928 670.997,330.981 669.74,336.552C668.489,342.093 667.522,348.022 666.452,353.495C666.298,353.604 664.519,354.854 664.519,354.854C664.41,354.896 642.434,354.972 615.493,354.871C608.505,354.845 608.502,354.854 608.435,354.832C608.306,354.788 606.857,353.612 606.851,353.555C606.761,352.653 607.387,352.759 609.119,342.451C609.268,341.567 609.428,341.603 611.213,331.444C611.897,327.548 612.307,327.634 614.209,316.446C614.401,315.317 614.735,315.394 617.222,302.443C618.282,296.925 618.229,296.905 618.496,296.499C618.609,296.328 618.88,296.338 619.04,296.209C619.236,296.049 619.349,295.804 619.546,295.646C620.773,294.663 620.909,295 622.49,294.954C623.209,294.933 623.201,295.073 631.489,295.03C643.73,294.965 675.962,295.082 676.509,294.882C676.648,294.831 676.563,294.717 677.952,293.718C678.945,293.004 678.564,292.775 678.851,291.585C679.674,288.181 680.966,280.01 682.577,273.517C682.932,272.085 682.777,272.073 686.196,255.434C686.715,252.908 686.597,252.91 687.141,250.403C687.277,249.774 687.472,249.15 687.516,248.508C687.547,248.059 687.156,247.567 687.362,247.167C687.63,246.643 688.489,246.61 688.758,246.086Z" style="fill:rgb(0,1,13);"/>
            <path d="M326.206,594.564C326.392,594.826 326.196,595.25 326.382,595.512C326.522,595.71 326.873,595.621 327.063,595.773C327.269,595.938 327.313,596.258 327.521,596.422C328.472,597.168 330.353,596.88 337.497,596.927C346.258,596.985 382.867,596.872 383.507,597.03C384.056,597.165 383.949,597.377 384.501,597.498C385.067,597.623 385.061,597.373 385.628,597.498C385.674,597.825 385.546,598.161 385.592,598.488C385.695,599.218 385.847,599.187 387.316,607.535C394.531,648.543 394.83,650.744 395.344,654.523C395.476,655.494 395.615,655.551 395.036,656.355C394.929,656.505 394.721,656.566 394.619,656.719C394.532,656.851 394.641,657.12 394.493,657.175C394.181,657.292 393.827,657.147 393.494,657.141C385.015,656.987 376.013,657.133 374.493,657.158C368.486,657.256 368.498,656.91 362.502,657.074C356.35,657.242 355.517,656.444 354.799,656.835C354.178,657.174 353.642,657.657 353.021,657.996C348.866,655.402 333.112,643.18 321.507,631.493C321.5,631.486 311.323,621.843 299.222,606.71C297.121,604.082 293.766,599.512 292.308,597.607C292.744,597.461 293.064,597.06 293.5,596.914C294.193,596.683 296.488,597.109 298.5,597.038C305.83,596.777 314.502,597.3 324.544,596.82C324.945,596.498 325.07,596.761 325.474,596.437C325.532,596.39 325.78,596.191 325.988,595.659C326.124,595.313 326.071,594.911 326.206,594.564Z" style="fill:rgb(39,41,48);"/>
            <path d="M444.277,595.53L444.665,596.471C444.807,598.672 446.136,607.26 446.437,608.516C446.657,609.437 449.84,627.103 450.656,632.477C450.786,633.329 453.803,651.731 454.496,655.501C454.278,655.758 454.482,656.229 454.264,656.487C454.11,656.67 453.783,656.532 453.557,656.611C453.191,656.738 452.869,656.973 452.503,657.101C448.1,657.096 397.726,657.037 397.46,657.189C395.301,658.415 396.236,659.014 396.724,661.452C396.854,662.098 396.822,662.098 398.086,669.572C400.103,681.494 400.046,681.485 400.223,682.52C400.513,684.224 399.934,684.267 400.37,685.932C400.399,686.042 400.618,686.02 400.646,686.129C370.665,671.168 362.15,664.644 353.021,657.996C353.642,657.657 354.178,657.174 354.799,656.835C355.517,656.444 356.35,657.242 362.502,657.074C368.498,656.91 368.486,657.256 374.493,657.158C376.013,657.133 385.015,656.987 393.494,657.141C393.827,657.147 394.181,657.292 394.493,657.175C394.641,657.12 394.532,656.851 394.619,656.719C394.721,656.566 394.929,656.505 395.036,656.355C395.615,655.551 395.476,655.494 395.344,654.523C394.83,650.744 394.531,648.543 387.316,607.535C385.847,599.187 385.695,599.218 385.592,598.488C385.546,598.161 385.674,597.825 385.628,597.498L385.955,596.353C387.977,597.113 388.02,596.891 390.506,597.007C391.72,597.064 418.098,597.023 420.497,597.02C422.261,597.017 442.264,596.987 442.541,596.91C442.901,596.81 443.371,596.436 443.436,596.385C443.91,596.008 443.794,595.914 444.277,595.53Z" style="fill:rgb(0,1,14);"/>
            <path d="M464.637,715.489C465.639,716.172 465.574,716.216 466.454,717.041C469.817,716.995 469.815,717.056 508.497,717.019C510.162,717.017 521.903,716.775 522.553,717.162C524.797,718.495 523.867,719.181 525.869,730.417C526.04,731.377 526.015,731.362 527.924,742.429C528.127,743.602 528.665,745.473 528.785,746.473C529.673,753.902 533.077,770.329 533.377,773.519C533.601,775.907 533.907,776.794 531.494,776.903C526.787,777.117 486.42,777 482.5,776.989L481.5,777.149L480.309,777.584C474.742,768.217 468.237,755.481 462.776,746.341C457.43,737.394 454.256,729.016 444.071,717.769C444.825,717.46 444.965,716.551 447.488,716.911C449.493,717.198 451.171,717 451.522,716.989C455.674,716.85 463.048,717.155 463.584,716.785C464.042,716.469 464.179,715.805 464.637,715.489Z" style="fill:rgb(42,45,51);"/>
            <path d="M323.529,295.034C333.994,295.246 378.986,294.849 379.578,295.258C380.015,295.56 380.132,296.205 380.569,296.507C377.702,310.321 377.93,310.343 377.66,311.538C377.515,312.18 376.55,316.452 375.94,319.583C373.987,329.617 373.962,329.589 371.958,339.595C370.566,346.542 370.182,346.462 369.454,353.502C368.793,353.987 368.131,354.472 367.47,354.957C364.574,355.034 322.564,355.075 319.498,354.964C317.803,354.903 310.807,355.076 310.391,354.761C309.985,354.454 309.931,353.811 309.525,353.504C309.933,351.973 309.931,351.989 310.236,350.451C311.886,342.131 311.951,342.155 312.091,341.431C313.705,333.07 313.881,333.122 314.018,332.396C314.393,330.407 317.946,311.577 318.759,307.549C320.26,300.111 320.205,300.111 320.351,299.468C320.828,297.373 320.979,296.598 321.916,295.672C322.711,294.886 323.445,295.067 323.529,295.034Z" style="fill:rgb(49,52,57);"/>
            <path d="M451.842,237.554C451.49,239.352 451.485,239.339 451.462,239.496C450.528,245.851 450.014,245.733 449.127,251.435C448.327,256.584 448.036,256.512 446.97,261.603C444.493,273.438 444.758,273.481 444.525,274.506C444.327,275.378 444.29,275.54 442.325,285.463C442.197,286.109 440.742,293.457 440.691,293.529C440.534,293.749 440.149,293.673 439.947,293.854C439.737,294.041 439.743,294.413 439.515,294.579C439.125,294.863 438.768,295.124 433.498,295.04C432.539,295.025 428.533,294.961 421.501,294.966C385.571,294.987 385.594,294.972 382.476,295.128C382.329,294.441 381.326,294.155 381.18,293.469C381.094,293.069 381.56,293.139 382.174,288.453C382.35,287.11 383.153,282.933 383.245,282.454C383.414,281.576 383.564,281.611 385.652,271.535C387.922,260.58 387.64,260.541 389.869,249.578C390.272,247.597 390.458,247.654 391.335,242.474C391.39,242.149 391.456,242.167 392.17,238.437C392.479,236.824 392.18,236.578 393.545,235.661C394.397,235.089 394.435,235.169 395.469,235.169C445.212,235.184 445.199,235 449.514,235.264C452.126,235.423 451.613,236.794 451.842,237.554Z" style="fill:rgb(49,51,57);"/>
            <path d="M562.371,595.53L563.486,596.622C563.335,596.998 562.783,597.112 562.632,597.488C562.58,597.618 567.157,624.754 567.775,627.438C567.981,628.331 567.959,628.333 571.9,651.422C571.955,651.747 572.334,653.969 572.577,655.487C572.346,655.769 572.303,656.177 572.072,656.459C572.072,656.459 570.615,657.062 570.488,657.114C534.97,657.104 516.291,657.321 515.469,656.949C515.39,656.913 515.47,656.827 514.654,656.241C514.077,655.826 514.041,655.922 513.458,655.503C512.312,647.067 508.993,631.786 507.797,622.455C507.582,620.773 507.544,620.784 504.23,601.561C503.746,598.752 503.308,598.709 503.894,597.531C504.04,597.236 504.166,596.851 504.472,596.731C504.847,596.585 504.853,596.998 509.494,596.947C513.049,596.908 517.587,597.156 526.498,596.975C528.978,596.924 528.976,597.034 557.5,597.003C557.744,597.003 560.207,597 560.546,596.904C561.052,596.76 561.407,596.493 561.473,596.443C562,596.046 561.852,595.921 562.371,595.53Z" style="fill:rgb(0,1,14);"/>
            <path d="M563.486,596.622C563.829,596.654 564.151,596.813 564.494,596.845C565.185,596.91 575.536,596.929 576.496,596.931C614.244,597.002 614.226,596.886 617.505,597.007C619.874,597.095 620.32,596.479 620.47,596.437C620.708,596.836 621.102,597.127 621.341,597.526C622.174,598.918 621.854,601.754 623.527,608.492C623.642,608.955 626.784,627.511 627.049,629.548C627.153,630.349 631.459,654.954 631.561,655.494C630.97,656.294 631.001,656.293 630.504,657.175C626.007,657.018 626.018,657.157 621.506,657.139C579.041,656.973 578.861,657.443 574.458,656.824C573.224,655.842 573.235,655.845 573.126,655.763C572.962,655.64 572.741,655.61 572.577,655.487C572.334,653.969 571.955,651.747 571.9,651.422C567.959,628.333 567.981,628.331 567.775,627.438C567.157,624.754 562.58,597.618 562.632,597.488C562.783,597.112 563.335,596.998 563.486,596.622Z" style="fill:rgb(48,51,57);"/>
            <path d="M513.366,234.807C513.764,234.855 514.121,235.102 514.519,235.149C515.868,235.31 515.869,235.195 531.501,235.196C534.543,235.196 569.379,235.199 569.525,235.229C569.714,235.267 570.823,236.279 570.872,236.452C570.972,236.815 570.725,237.217 570.826,237.58C570.239,240.095 570.066,240.044 568.797,247.555C568.593,248.762 568.22,248.681 565.747,262.544C565.291,265.102 564.7,266.645 562.738,277.539C561.896,282.214 561.296,282.088 560.9,286.544C560.702,288.772 560.2,289.942 559.918,291.593C559.809,292.231 559.938,292.942 559.634,293.514C559.597,293.583 557.676,294.858 557.517,294.912C556.628,295.216 555.937,294.861 550.491,295.003C545.624,295.13 545.627,294.847 517.498,295.009C516.211,295.017 501.985,295.099 501.408,294.835C501.156,294.719 501.056,294.406 500.876,294.196C500.674,293.962 500.345,293.8 500.263,293.503C500.248,293.45 502.249,282.156 502.429,281.482C503.742,276.543 503.32,276.468 504.53,271.508C505.852,266.09 509.871,243.021 511.499,237.5C511.781,237.155 511.915,236.706 512.196,236.361C512.405,236.106 512.522,236.271 512.729,235.996C513.141,235.449 512.956,235.352 513.366,234.807Z" style="fill:rgb(49,51,57);"/>
            <path d="M373.549,537.098C374.18,537.564 374.81,538.03 375.441,538.497C376.884,549.103 377.257,549.025 379.083,559.574C381.952,576.142 381.859,576.144 382.161,577.574C382.698,580.123 383.001,583.922 383.415,585.52C384.313,588.981 384.203,590.709 385.008,594.562C385.311,596.014 385.678,595.83 385.955,596.353L385.628,597.498C385.061,597.373 385.067,597.623 384.501,597.498C383.949,597.377 384.056,597.165 383.507,597.03C382.867,596.872 346.258,596.985 337.497,596.927C330.353,596.88 328.472,597.168 327.521,596.422C327.313,596.258 327.269,595.938 327.063,595.773C326.873,595.621 326.522,595.71 326.382,595.512C326.196,595.25 326.392,594.826 326.206,594.564C324.857,587.111 324.819,587.122 324.733,586.47C323.813,579.486 322.403,573.434 322.256,572.545C318.83,551.737 318.259,551.846 316.386,539.515C316.352,539.292 316.067,537.413 317.547,536.947C317.701,536.898 317.686,536.926 319.497,536.936C343.418,537.07 343.417,536.891 345.496,536.961C352.112,537.185 368.206,536.794 373.549,537.098Z" style="fill:rgb(0,1,13);"/>
            <path d="M612.493,536.929C615.128,537.097 615.12,537.089 645.496,537.073C656.009,537.068 655.988,537.058 666.502,537.083C667.423,537.085 667.418,537.089 667.497,537.084C669.12,536.992 669.074,536.514 669.448,536.379L670.446,537.502C670.48,537.839 670.377,538.18 670.412,538.517C670.495,539.329 670.594,539.305 672.181,548.568C672.57,550.838 672.823,550.77 673.111,553.548C673.252,554.91 673.309,554.896 675.847,570.448C676.638,575.299 676.712,575.264 677.017,576.611C677.079,576.883 679.691,592.972 680.301,595.544C680.219,596.246 680.137,596.947 680.055,597.649C679.866,597.554 679.729,597.372 679.54,597.276C678.255,596.627 677.257,597.063 674.505,597.015C664.84,596.849 624.258,597.187 623.478,597.039C623.22,596.99 621.485,595.788 621.3,595.516C621.115,595.244 621.344,594.812 621.159,594.54C621.115,594.295 620.72,592.092 620.624,591.478C619.485,584.134 619.329,584.176 619.244,583.537C618.704,579.471 618.494,579.519 617.898,575.451C617.063,569.757 615.162,560.551 615.161,560.542C614.617,555.884 613.95,553.828 612.526,545.496C611.422,539.039 611.316,539.026 611.526,538.501C611.71,538.042 612.161,537.739 612.42,537.318C612.489,537.206 612.424,537.041 612.493,536.929Z" style="fill:rgb(45,47,53);"/>
            <path d="M730.669,294.413C733.642,298.918 733.651,298.892 736.563,303.455C736.254,303.851 735.786,304.104 735.477,304.5C734.784,305.387 734.943,305.458 734.981,306.575C735.062,309.01 733.231,315.427 732.898,317.55C732.268,321.554 732.243,321.531 731.444,325.49C729.765,333.806 729.842,333.815 729.687,334.535C727.886,342.855 728.089,342.893 727.899,343.608C726.863,347.504 727.172,347.548 726.292,351.458C725.86,353.376 726.223,353.712 724.532,354.712C723.615,355.255 671.764,354.866 668.493,355.014C667.813,354.508 667.133,354.002 666.452,353.495C667.522,348.022 668.489,342.093 669.74,336.552C670.997,330.981 670.659,330.928 672.098,325.393C673.352,320.571 677.357,297.671 678.173,296.411C678.348,296.142 678.699,296.04 678.936,295.824C679.129,295.648 679.222,295.355 679.455,295.239C680.713,294.615 704.911,295.33 714.503,294.999C715.46,294.966 715.451,295.034 726.48,295.1C727.402,295.105 727.385,295.123 728.311,295.062C729.998,294.952 729.904,294.624 730.669,294.413Z" style="fill:rgb(49,51,57);"/>
            <path d="M375.441,538.497C376.269,537.463 376.15,537.157 377.475,537.076C379.314,536.963 379.297,537.168 400.5,537.067C407.782,537.032 432.501,537.089 432.513,537.093C432.513,537.093 434.2,538.402 434.347,538.516C435.027,542.739 442.231,582.946 444.277,595.53C443.794,595.914 443.91,596.008 443.436,596.385C443.371,596.436 442.901,596.81 442.541,596.91C442.264,596.987 422.261,597.017 420.497,597.02C418.098,597.023 391.72,597.064 390.506,597.007C388.02,596.891 387.977,597.113 385.955,596.353C385.678,595.83 385.311,596.014 385.008,594.562C384.203,590.709 384.313,588.981 383.415,585.52C383.001,583.922 382.698,580.123 382.161,577.574C381.859,576.144 381.952,576.142 379.083,559.574C377.257,549.025 376.884,549.103 375.441,538.497Z" style="fill:rgb(45,48,53);"/>
            <path d="M434.684,537.517C435.017,537.407 435.164,536.959 435.497,536.849C435.551,536.831 440.109,537.009 440.51,537.025C443.868,537.156 443.866,536.814 482.511,537.07C487.04,537.101 487.022,536.927 491.547,537.108C492.149,537.567 492.75,538.027 493.352,538.486C493.439,539.187 493.328,539.185 493.599,540.48C495.052,547.407 495.262,550.532 495.511,551.497C496.149,553.97 495.95,553.993 496.432,556.513C498.345,566.529 498.299,566.514 500.009,576.557C501.258,583.893 501.165,583.906 501.288,584.54C501.444,585.34 503.072,593.711 503.107,594.554C503.18,596.336 501.764,596.808 501.551,596.878C501.269,596.972 468.715,596.982 460.491,596.94C448.129,596.877 448.076,597.352 444.665,596.471L444.277,595.53C442.231,582.946 435.027,542.739 434.347,538.516L434.684,537.517Z" style="fill:rgb(0,1,14);"/>
            <path d="M513.458,655.503C514.041,655.922 514.077,655.826 514.654,656.241C515.47,656.827 515.39,656.913 515.469,656.949C516.291,657.321 534.97,657.104 570.488,657.114C570.811,657.251 571.199,657.171 571.522,657.308C571.522,657.308 572.929,658.388 573.051,658.482C573.727,666.371 574.46,666.248 577.202,683.555C578.464,691.526 578.588,691.488 579.835,699.448C580.008,700.553 580.67,705.779 580.974,706.5C581.183,706.995 581.573,707.4 581.782,707.895C575.35,713.726 572.502,716.843 571.746,717.67C571.295,717.513 570.951,717.118 570.5,716.961C569.864,716.74 568.896,717.018 561.493,716.992C549.336,716.948 526.176,717.068 525.487,716.813C525.447,716.798 523.624,715.515 523.607,715.49C523.419,715.218 523.493,714.839 523.427,714.516C523.014,712.488 523.145,712.482 522.747,710.446C520.598,699.463 520.86,699.419 520.673,698.464C518.962,689.75 514.293,659.144 513.82,658.406C513.673,658.175 513.334,658.141 513.136,657.952C512.894,657.722 512.81,657.322 512.515,657.167C512.215,657.009 511.801,657.251 511.502,657.093C512.154,656.563 512.806,656.033 513.458,655.503Z" style="fill:rgb(48,50,55);"/>
            <path d="M670.446,537.502C670.97,537.356 670.83,536.814 672.518,536.927C675.864,537.15 701.362,536.858 727.51,537.095C728.248,537.565 728.987,538.036 729.725,538.506C729.94,542.599 731.407,547.956 731.753,550.456C732.036,552.501 732.022,552.482 732.467,554.507C732.846,556.233 732.68,557.557 733.42,560.52C734.268,563.916 735.106,571.565 735.925,574.394C736.037,574.784 736.273,575.132 736.376,575.524C736.458,575.84 736.305,576.22 736.474,576.5C736.53,576.593 736.66,576.45 737.5,577.386C737.842,577.767 737.688,577.853 738.027,578.231C735.454,582.231 730.669,590.393 724.923,597.925C724.38,597.756 724.042,597.156 723.5,596.987C723.119,596.868 718.906,596.903 718.507,596.906C716.506,596.923 701.814,597.045 693.499,597.015C684.301,596.982 684.309,597.033 683.511,597.003C681.485,596.929 681.453,596.187 681.018,595.867C680.807,595.711 680.512,595.699 680.301,595.544C679.691,592.972 677.079,576.883 677.017,576.611C676.712,575.264 676.638,575.299 675.847,570.448C673.309,554.896 673.252,554.91 673.111,553.548C672.823,550.77 672.57,550.838 672.181,548.568C670.594,539.305 670.495,539.329 670.412,538.517C670.377,538.18 670.48,537.839 670.446,537.502Z" style="fill:rgb(0,1,13);"/>
            <path d="M523.498,177.454L523.295,178.5L523.229,179.5C523.195,179.661 522.942,180.861 522.839,181.517C522.533,183.487 521.372,188.358 521.177,189.428C519.605,198.061 519.317,197.982 517.887,205.558C515.499,218.212 514.478,221.682 514.252,223.463C513.871,226.48 513.686,226.432 513.134,229.431C512.443,233.182 512.282,233.156 512.304,233.486C512.326,233.829 512.707,234.044 512.922,234.311C513.061,234.484 513.227,234.634 513.366,234.807C512.956,235.352 513.141,235.449 512.729,235.996C512.522,236.271 512.405,236.106 512.196,236.361C511.915,236.706 511.781,237.155 511.499,237.5C511.417,237.17 511.767,236.828 511.685,236.499C511.623,236.247 511.295,236.156 511.118,235.966C510.914,235.747 510.815,235.404 510.545,235.275C510.364,235.189 463.794,235.067 453.516,235.227C453.369,234.926 453.023,234.754 452.877,234.454C452.598,233.881 452.563,233.81 453.947,226.566C454.929,221.423 457.596,210.61 458.976,202.588C459.225,201.135 459.329,201.175 462.73,184.551C463.092,182.78 463.065,182.79 463.492,181.029C465.48,180.679 475.565,178.9 488.53,177.903C502.487,176.829 517.72,176.957 523.498,177.454Z" style="fill:rgb(50,52,57);"/>
            <path d="M547.257,353.467C547.637,353.943 548.017,354.419 548.396,354.895C548.129,355.18 547.995,355.573 547.728,355.857C547.298,356.315 546.925,356.071 546.587,357.519C546.025,359.924 544.011,370.942 543.416,373.478C542.361,377.975 541.642,383.62 540.42,389.485C539.558,393.627 539.134,396.799 539.049,397.439C538.972,398.012 538.686,400.155 537.633,404.533C537.476,405.188 537.325,405.845 537.121,406.486C537.01,406.836 536.643,407.136 536.692,407.5C536.814,408.398 537.092,408.27 537.508,409.07C535.625,409.149 535.129,408.45 530.369,412.335C528.146,414.149 528.148,414.13 525.866,415.86C525.51,415.694 524.854,414.596 522.476,414.762C519.393,414.977 514.557,414.968 514.525,414.966C513.502,414.883 513.519,414.931 512.5,414.996C512.309,415.008 512.324,414.98 510.116,414.778C506.216,409.889 506.393,409.185 503.516,409.08C502.366,409.038 481.598,408.979 480.44,409.221C480.3,409.25 480.316,409.267 478.766,409.848L477.442,408.5L477.751,407.5C478.602,404.033 478.751,398.894 480.592,391.524C480.621,391.408 482.47,381.995 482.711,380.539C483.382,376.477 483.706,376.554 484.282,372.463C484.315,372.23 484.514,370.815 484.814,369.575C487.008,360.523 487.178,356.906 487.465,356.499C487.489,356.466 489.42,355.027 489.464,355.01C490.156,354.743 523.204,354.983 529.505,354.911C535.685,354.841 545.098,354.985 545.536,354.801C545.536,354.801 547.119,353.574 547.257,353.467Z" style="fill:rgb(42,44,50);"/>
            <path d="M621.159,594.54C621.344,594.812 621.115,595.244 621.3,595.516C621.485,595.788 623.22,596.99 623.478,597.039C624.258,597.187 664.84,596.849 674.505,597.015C677.257,597.063 678.255,596.627 679.54,597.276C679.729,597.372 679.866,597.554 680.055,597.649C680.21,597.94 680.786,597.971 681.067,599.543C681.34,601.07 683.58,614.183 683.798,615.456C686.959,633.96 686.89,633.961 687.224,635.558C687.289,635.87 687.202,636.241 687.387,636.5C687.658,636.879 688.229,636.966 688.5,637.345L689.121,638.107C680.629,645.493 677.746,648.536 668.789,654.896C667.966,655.48 668.037,655.549 667.229,656.146C667.166,656.192 664.58,657.98 663.632,658.706L662.5,657.074C661.496,657.042 661.509,657.036 660.502,657.011C658.497,656.962 658.518,657.049 656.5,657.029C636.226,656.836 636.229,657.107 634.467,657.086C633.165,657.071 632.902,656.382 632.707,656.231C632.348,655.953 631.92,655.773 631.561,655.494C631.459,654.954 627.153,630.349 627.049,629.548C626.784,627.511 623.642,608.955 623.527,608.492C621.854,601.754 622.174,598.918 621.341,597.526C621.102,597.127 620.708,596.836 620.47,596.437C620.699,595.804 620.929,595.172 621.159,594.54Z" style="fill:rgb(0,1,14);"/>
            <path d="M523.498,177.454C524.363,177.522 549.534,178.522 577.448,185.691C579.434,186.201 579.408,186.211 581.388,186.789L581.155,187.5C579.115,193.843 579.715,194.848 578.724,198.563C577.058,204.813 577.456,205.689 576.427,209.48C575.024,214.645 572.092,230.929 572.004,231.394C571.691,233.038 571.171,233.098 571.87,234.439C572.036,234.757 572.318,235.005 572.484,235.324C572.295,235.5 572.352,235.851 572.164,236.027C571.803,236.364 571.625,236.051 571.292,236.437C570.875,236.92 571.244,237.095 570.826,237.58C570.725,237.217 570.972,236.815 570.872,236.452C570.823,236.279 569.714,235.267 569.525,235.229C569.379,235.199 534.543,235.196 531.501,235.196C515.869,235.195 515.868,235.31 514.519,235.149C514.121,235.102 513.764,234.855 513.366,234.807C513.227,234.634 513.061,234.484 512.922,234.311C512.707,234.044 512.326,233.829 512.304,233.486C512.282,233.156 512.443,233.182 513.134,229.431C513.686,226.432 513.871,226.48 514.252,223.463C514.478,221.682 515.499,218.212 517.887,205.558C519.317,197.982 519.605,198.061 521.177,189.428C521.372,188.358 522.533,183.487 522.839,181.517C522.942,180.861 523.195,179.661 523.229,179.5L523.295,178.5L523.498,177.454Z" style="fill:rgb(0,1,14);"/>
            <path d="M717.496,409.063C725.904,409.015 727.063,408.612 728.496,410.503C728.804,410.909 731.186,414.051 732.261,415.639C735.614,419.792 734.861,420.331 733.391,425.469C731.27,432.882 727.735,447.229 727.063,448.225C725.733,450.197 717.933,455.527 717.391,456.412C716.25,458.276 716.67,458.883 718.913,477.447C719.202,479.837 719.408,481.181 719.457,481.505C719.598,482.426 719.604,482.426 719.597,482.506C719.557,482.981 719.339,482.904 719.299,483.383C719.116,483.439 718.773,483.868 717.536,483.925C713.559,484.108 708.279,483.927 707.475,483.9C704.768,483.807 705.036,482.654 704.347,478.526C704.175,477.497 703.165,468.423 703.067,467.544C702.434,461.855 702.891,460.475 700.544,460.153C700.27,460.115 693.828,460.086 693.464,460.123C691.14,460.357 691.511,461.198 689.414,468.475C687.529,475.016 687.762,475.063 685.82,481.603C684.984,484.419 683.924,483.863 677.503,483.883C675.28,483.89 672.12,484.091 671.581,483.429C670.845,482.525 671.411,482.388 672.883,476.619C675.894,464.827 683.568,437.197 684.763,432.575C685.441,429.95 689.161,416.88 689.549,415.517C690.183,413.289 690.66,409.412 692.39,409.095C693.264,408.936 693.263,408.957 703.495,408.992C704.616,408.996 704.602,409 717.496,409.063Z" style="fill:rgb(252,253,251);"/>
            <path d="M654.508,409.012C664.626,409.045 664.622,408.962 665.501,408.979C671.61,409.101 671.82,409.173 673.106,410.814C677.292,416.154 677.619,416.618 677.986,417.142C679.683,419.56 679.205,419.871 676.912,428.606C669.89,455.367 669.548,455.272 668.979,457.61C668.648,458.968 666.816,466.482 664.533,474.508C662.233,482.593 662.62,483.83 659.502,483.851C658.697,483.856 649.766,483.915 649.441,483.889C648,483.774 647.865,482.68 647.844,482.512C647.818,482.304 647.866,482.31 648.73,479.573C648.885,479.083 653.668,461.565 653.675,461.499C653.705,461.178 653.623,460.815 653.417,460.566C652.726,459.733 652.576,459.998 651.484,459.996C636.932,459.975 636.643,459.782 635.925,460.801C635.513,461.386 630.674,479.783 630.239,481.44C629.631,483.748 629.269,483.918 626.504,483.917C616.86,483.911 616.671,483.96 616.343,483.865C616.216,483.828 615.366,483.582 615.414,482.496C615.448,481.738 615.914,481.867 618.083,473.393C620.291,464.761 628.787,434.494 632.165,421.425C632.815,418.91 634.545,417.969 637.092,416.027C642.177,411.996 642.163,411.984 642.606,411.635C646.771,408.34 647.161,408.863 654.508,409.012Z" style="fill:rgb(253,253,252);"/>
            <path d="M478.766,409.848C480.316,409.267 480.3,409.25 480.44,409.221C481.598,408.979 502.366,409.038 503.516,409.08C506.393,409.185 506.216,409.889 510.116,414.778C512.825,418.182 513.672,418.308 512.432,422.479C509.685,431.724 507.113,442.419 506.539,444.51C500.986,464.746 501.111,464.777 500.616,466.533C496.063,482.714 496.253,482.858 495.521,483.526C494.895,484.096 491.823,484.035 491.499,484.028C487.459,483.948 487.469,484.059 483.437,483.91C483.006,483.535 482.819,484.019 482.392,483.648C482.316,483.582 481.839,483.167 481.831,482.514C481.829,482.377 486.458,465.566 487.187,462.429C487.722,460.125 486.852,459.984 484.503,460.041C477.88,460.203 471.301,459.726 470.467,460.455C469.765,461.068 468.952,464.246 468.864,464.59C468.586,465.677 465.646,476.436 465.364,477.466C463.995,482.477 464.01,483.75 461.522,483.892C461.458,483.896 451.471,483.894 451.441,483.891C448.542,483.611 450.046,481.133 450.749,478.562C452.125,473.527 452,473.513 453.401,468.472C460.88,441.559 465.556,421.805 466.917,419.777C468.188,417.884 475.881,411.855 478.766,409.848Z" style="fill:rgb(253,253,252);"/>
            <path d="M760.975,354.413C765.227,366.822 765.305,366.784 768.633,379.464C768.96,380.711 771.513,393.455 771.807,395.454C773.076,404.072 773.361,404.022 774.434,414.512L773.5,414.835C772.833,414.913 772.183,415.108 771.516,415.186C770.084,415.355 770.094,415.001 753.498,415.095C737.134,415.187 736.915,415.159 735.486,414.977C733.087,414.672 732.47,415.572 732.261,415.639C731.186,414.051 728.804,410.909 728.496,410.503C727.063,408.612 725.904,409.015 717.496,409.063C716.716,408.542 715.936,408.021 715.156,407.5C715.192,407.194 714.464,407.154 714.5,406.847C714.535,406.553 715.113,406.67 715.282,406.428C715.793,405.696 715.1,405.511 717.356,395.466C718.686,389.54 718.214,389.453 719.783,383.584C720.165,382.157 719.937,382.132 723.564,365.513C724.469,361.367 725.021,357.135 725.378,356.485C725.47,356.317 727.143,355.114 727.486,355.002C728.914,354.534 728.964,355.248 743.5,354.946C757.472,354.655 757.471,354.989 758.685,354.948C758.957,354.938 759.235,355.048 759.5,354.986C760.014,354.866 760.462,354.533 760.975,354.413Z" style="fill:rgb(48,50,55);"/>
            <path d="M452.503,657.101C452.962,657.385 453.064,657.029 453.526,657.315C453.908,657.551 453.663,657.732 453.989,658.019C454.218,658.222 454.626,658.195 454.804,658.444C455.053,658.791 455.511,662.788 457.035,671.592C461.024,694.643 462.18,702.122 462.27,702.545C463.65,708.982 463.309,709.033 464.637,715.489C464.179,715.805 464.042,716.469 463.584,716.785C463.048,717.155 455.674,716.85 451.522,716.989C451.171,717 449.493,717.198 447.488,716.911C444.965,716.551 444.825,717.46 444.071,717.769C435.201,707.442 422.801,698.148 415.719,694.117C410.903,691.376 410.078,690.435 400.646,686.129C400.618,686.02 400.399,686.042 400.37,685.932C399.934,684.267 400.513,684.224 400.223,682.52C400.046,681.485 400.103,681.494 398.086,669.572C396.822,662.098 396.854,662.098 396.724,661.452C396.236,659.014 395.301,658.415 397.46,657.189C397.726,657.037 448.1,657.096 452.503,657.101Z" style="fill:rgb(48,50,55);"/>
            <path d="M416.503,409.063C425.628,409.014 426.563,408.631 427.216,410.578C427.232,410.624 432.082,437.027 432.782,440.443C434.02,446.481 433.517,447.789 434.069,448.925C434.506,449.822 434.694,450.09 435.511,449.512C435.896,449.24 435.928,446.473 437.569,440.519C440.595,429.538 440.615,429.553 440.864,428.595C441.693,425.405 444.284,415.649 444.583,414.523C445.544,410.905 445.297,409.004 448.505,408.974C453.017,408.933 453.001,409.172 457.505,408.948C457.628,408.942 460.779,408.479 460.005,411.386C450.527,446.984 448.535,453.82 447.465,457.49C447.451,457.538 443.197,473.963 441.352,480.458C440.903,482.039 440.812,483.759 438.534,483.888C436.408,484.009 429.293,483.927 428.49,483.918C426.902,483.9 426.944,483.663 426.43,483.578C426.073,482.66 425.867,482.756 425.614,481.479C425.323,480.007 419.557,449.931 419.399,446.52C419.353,445.531 419.383,445.55 419.332,444.55C419.308,444.066 419.275,444.09 419.25,443.611C419.008,443.544 418.765,443.477 418.523,443.41C418.229,443.456 418.137,442.785 417.843,442.832C417.412,442.899 417.941,443.571 415.703,451.564C408.066,478.841 407.787,483.045 406.571,483.612C405.615,484.057 403.93,483.889 396.496,483.905C393.701,483.911 392.308,484.053 393.153,481.403C395.231,474.886 396.286,469.305 397.379,465.467C401.77,450.057 401.424,449.986 405.745,434.565C408.823,423.583 408.763,423.588 411.643,412.538C412.414,409.581 412.462,408.883 415.5,408.991C415.835,409.003 416.168,409.051 416.503,409.063Z" style="fill:rgb(253,253,252);"/>
            <path d="M537.508,409.07C541.386,408.905 554.978,408.973 556.497,408.98C560.433,409 560.919,408.518 563.365,411.603C563.683,412.004 565.794,414.666 567.182,416.739C569.158,419.688 567.933,421.284 567.042,425.403C566.169,429.445 566.131,430.859 563.514,430.918C558.795,431.024 554.277,430.913 553.474,430.894C549.854,430.805 551.474,428.974 552.373,425.47C552.872,423.529 551.762,423.115 550.548,423.048C549.665,423 549.677,423.11 539.501,422.949C536.39,422.901 535.692,422.615 534.741,425.574C534.123,427.498 531.581,437.161 531.571,437.503C531.566,437.654 531.531,438.863 532.598,439.098C534.103,439.429 550.381,438.671 552.478,439.546C553.367,439.917 553.915,440.668 559.191,447.732C561.022,450.183 560.169,450.691 557.876,459.605C557.61,460.637 554.928,471.059 554.387,472.455C552.934,476.201 545.406,480.631 541.486,483.472C541.309,483.514 540.822,483.891 539.511,483.931C535.336,484.058 525.401,483.816 517.505,484.033C513.755,484.136 513.486,482.561 510.347,478.62C506.301,473.54 507.333,472.898 508.984,466.628C509.876,463.236 510.314,462.215 512.469,462.107C514.812,461.99 516.733,462.196 521.5,461.986C525.334,461.817 524.319,463.739 523.33,467.457C522.514,470.53 524.311,469.897 527.504,469.881C539.373,469.824 540.024,470.271 540.725,468.604C541.422,466.945 543.715,458.506 543.955,457.623C544.737,454.742 544.78,454.747 544.76,454.477C544.659,453.133 542.737,453.08 542.526,453.074C536.2,452.899 528.704,453.022 527.503,453.042C522.284,453.128 522.189,452.578 520.077,449.846C519.273,448.805 515.501,444.54 515.516,442.5C515.527,440.853 518.089,433.15 519.96,425.612C520.08,425.13 521.199,420.617 521.802,419.672C522.041,419.296 522.374,418.775 525.866,415.86C528.148,414.13 528.146,414.149 530.369,412.335C535.129,408.45 535.625,409.149 537.508,409.07Z" style="fill:rgb(252,253,252);"/>
            <path d="M581.388,186.789C611.947,195.245 634.198,207.706 637.502,209.497C637.242,209.68 636.908,208.89 636.648,209.073C636.073,209.479 634.254,219.822 633.285,223.426C632.207,227.439 632.642,227.518 631.583,231.522C630.673,234.959 629.525,234.649 628.511,235.19C624.191,235.144 624.194,235.219 574.507,235.161C573.232,235.16 573.248,235.262 572.484,235.324C572.318,235.005 572.036,234.757 571.87,234.439C571.171,233.098 571.691,233.038 572.004,231.394C572.092,230.929 575.024,214.645 576.427,209.48C577.456,205.689 577.058,204.813 578.724,198.563C579.715,194.848 579.115,193.843 581.155,187.5L581.388,186.789Z" style="fill:rgb(50,52,56);"/>
            <path d="M596.476,409.041C613.608,409.192 615.077,408.572 616.451,409.572C617.643,410.441 618.907,412.518 621.325,415.618C624.059,418.942 624.08,419.259 623.065,423.392C620.337,434.495 619.558,434.672 618.596,434.89C617.771,435.078 614.3,434.795 608.501,435.035C606.147,435.132 605.31,434.89 605.908,432.607C607.976,424.715 608.813,424.423 607.623,423.343C607.315,423.064 607.249,423.187 596.502,422.965C591.333,422.859 590.672,422.926 590.012,425.383C586.951,436.785 584.461,446.584 582.64,452.541C582.077,454.381 578.554,467.542 578.623,468.491C578.717,469.785 580.282,469.867 580.467,469.877C580.9,469.899 591.538,469.926 592.501,469.928C596.505,469.938 595.864,468.085 597.184,463.41C598.439,458.968 598.34,457.571 600.496,457.439C601.453,457.38 602.799,457.5 609.499,457.422C609.734,457.419 612.064,457.392 612.436,457.621C613.268,458.131 613.117,459.272 613.097,459.424C613.054,459.748 611.875,464.157 611.765,464.568C609.523,472.948 609.593,473.179 607.227,475.166C606.746,475.57 606.743,475.539 601.166,480.153C597.669,482.395 596.934,483.829 593.51,483.905C592.142,483.935 572.789,483.918 571.476,483.823C569.309,483.667 568.321,481.935 565.173,477.731C561.849,473.291 562.762,472.78 564.144,467.407C564.442,466.247 568.56,451.044 568.945,449.622C572.214,437.553 571.942,437.499 575.51,425.503C576.808,421.139 576.288,420.737 579.617,417.629C581.228,416.125 589.241,409.738 590.439,409.335C591.451,408.994 594.694,409.06 596.476,409.041Z" style="fill:rgb(253,253,252);"/>
            <path d="M366.383,484.005C357.458,483.584 356.409,484.516 356.259,482.547C356.214,481.957 356.344,481.97 358.193,475.403C361.319,464.298 361.909,461.11 362.424,459.478C363.325,456.627 365.803,446.282 370.111,431.381C373.638,419.181 374.169,415.855 375.406,411.468C376.095,409.024 377.567,409.199 379.49,409.16C380.772,409.134 389.004,408.968 395.517,409.113C402.691,409.274 402.811,409.12 403.299,409.67C403.999,410.458 403.277,412.255 402.773,414.586C402.724,414.815 402.358,416.506 402.151,417.439C402.026,417.999 398.875,429.499 398.846,429.593C397.439,434.159 384.621,482.335 384.553,482.527C383.771,484.739 381.951,483.802 366.383,484.005Z" style="fill:rgb(3,106,171);"/>
            <path d="M574.458,656.824C578.861,657.443 579.041,656.973 621.506,657.139C626.018,657.157 626.007,657.018 630.504,657.175C630.613,657.27 631.859,658.36 631.859,658.36C631.984,658.428 632.206,658.368 632.264,658.499C632.526,659.091 632.249,659.148 633.596,666.483C634.947,673.835 634.537,673.887 634.748,674.5C634.944,675.069 635.153,674.932 635.362,675.5C635.533,675.964 635.296,675.987 635.469,676.455C618.808,686.45 604.382,689.301 582.83,706.949C582.743,707.02 582.752,707.019 581.782,707.895C581.573,707.4 581.183,706.995 580.974,706.5C580.67,705.779 580.008,700.553 579.835,699.448C578.588,691.488 578.464,691.526 577.202,683.555C574.46,666.248 573.727,666.371 573.051,658.482C573.52,657.93 573.989,657.377 574.458,656.824Z" style="fill:rgb(0,1,13);"/>
            <path d="M358.437,409.041C366.694,409.21 368.819,408.527 368.202,411.448C367.606,414.266 365.338,421.489 364.113,426.401C362.406,433.252 359.729,442.296 358.343,448.472C357.559,451.966 356.609,453.192 354.036,464.404C353.071,468.608 351.051,473.912 350.017,478.386C349.35,481.273 349.295,483.721 346.533,483.861C345.725,483.902 336.491,483.912 336.437,483.909C333.393,483.761 334.314,482.356 335.104,479.416C335.659,477.354 340.794,458.241 341.932,453.606C342.303,452.095 348.935,427.76 349.548,425.513C349.721,424.877 351.211,419.41 351.636,417.545C351.748,417.052 351.87,417.089 353.413,411.476C354.262,408.389 355.242,409.168 358.437,409.041Z" style="fill:rgb(213,42,50);"/>
            <path d="M337.503,408.961C345.218,409.168 347.234,408.681 347.302,410.512C347.348,411.768 338.12,444.323 337.649,446.534C336.86,450.242 336.635,450.172 335.75,453.57C331.702,469.121 331.76,469.126 331.363,470.465C328.686,479.49 328.592,482.485 327.4,483.375C326.698,483.9 326.53,484.025 316.459,483.896C316.248,483.893 314.319,483.869 314.195,482.545C314.16,482.173 314.227,482.18 315.086,479.387C315.261,478.815 318.297,466.908 318.696,465.555C321.524,455.971 325.886,438.889 326.868,435.606C330.689,422.822 333.29,411.258 334.012,410.182C335.003,408.706 336.293,409.055 337.503,408.961Z" style="fill:rgb(215,42,49);"/>
            <path d="M680.301,595.544C680.512,595.699 680.807,595.711 681.018,595.867C681.453,596.187 681.485,596.929 683.511,597.003C684.309,597.033 684.301,596.982 693.499,597.015C701.814,597.045 716.506,596.923 718.507,596.906C718.906,596.903 723.119,596.868 723.5,596.987C724.042,597.156 724.38,597.756 724.923,597.925C724.645,598.366 724.037,599.331 721.105,603.21C719.513,605.316 718.804,605.741 713.063,613.149C709.902,617.23 695.857,632.184 689.121,638.107L688.5,637.345C688.229,636.966 687.658,636.879 687.387,636.5C687.202,636.241 687.289,635.87 687.224,635.558C686.89,633.961 686.959,633.96 683.798,615.456C683.58,614.183 681.34,601.07 681.067,599.543C680.786,597.971 680.21,597.94 680.055,597.649C680.137,596.947 680.219,596.246 680.301,595.544Z" style="fill:rgb(47,50,55);"/>
            <path d="M330.27,245.295L331.259,246.5C330.905,248.001 330.765,249.298 330.738,249.544C330.658,250.284 329.157,257.278 329.127,257.441C328.137,262.784 327.898,262.712 327.178,266.419C324.321,281.116 323.313,284.606 323.195,285.447C322.627,289.507 322.618,289.488 321.776,293.52C321.325,293.806 320.945,294.195 320.494,294.481C319.014,295.419 318.872,294.918 314.492,295.059C312.653,295.118 312.653,294.809 291.492,295.147C290.055,295.17 290.075,295.126 288.5,295.05L287.193,294.2C289.076,290.918 298.559,277.786 307.664,267.647C308.202,267.047 320.791,252.786 330.27,245.295Z" style="fill:rgb(49,51,56);"/>
            <path d="M399.356,200.223L399.127,201.5C399.144,201.854 399.468,202.146 399.484,202.5C399.505,202.953 398.622,204.623 398.086,208.463C397.591,212.01 396.326,216.981 396.256,217.463C395.816,220.464 395.74,220.431 393.846,229.568C393.778,229.894 393.122,233.063 392.775,233.589C392.6,233.856 392.268,233.978 392.032,234.194C390.889,235.241 390.719,235.157 382.503,235.159C353.016,235.166 353.023,235.093 349.484,235.234C348.188,235.285 346.517,235.023 346.5,235.023C346.16,235.036 345.84,235.241 345.5,235.227C345.097,235.209 344.576,234.971 344.5,234.937C343.877,234.652 343.971,234.529 343.338,234.24C359.721,220.341 385.299,205.957 399.356,200.223Z" style="fill:rgb(49,52,55);"/>
            <path d="M308.123,478.401C307.15,481.693 307.034,483.822 304.523,483.939C298.961,484.199 297.3,484.068 297.986,481.624C298.973,478.108 298.968,478.131 299.919,474.619C302.242,466.044 301.95,465.986 304.539,457.511C306.003,452.717 306.642,448.516 312.166,429.41C313.544,424.642 317.203,410.487 317.818,409.772C318.84,408.582 325.318,409.068 325.657,409.203C326.653,409.602 326.325,411.272 326.289,411.456C325.508,415.434 325.164,415.346 313.045,460.377C312.656,461.82 312.623,461.806 308.123,478.401Z" style="fill:rgb(248,207,89);"/>
            <path d="M282.955,480.638C283.751,477.992 286.458,467.658 287.423,464.475C288.915,459.556 295.132,436.033 301.76,411.563C302.579,408.537 303.38,408.906 306.503,408.991C309.333,409.067 309.332,409.025 309.576,409.048C310.99,409.182 311.127,410.322 311.148,410.492C311.16,410.596 308.95,418.96 308.491,420.497C305.329,431.076 305.826,431.204 304.195,436.401C302.79,440.877 295.928,466.601 294.507,471.502C291.37,482.319 291.817,482.501 291.193,483.253C290.848,483.668 290.493,484.095 284.473,483.899C281.696,483.808 282.552,482.165 282.955,480.638Z" style="fill:rgb(250,211,93);"/>
            <path d="M757.831,537.683C752.583,552.207 748.986,558.199 741.056,573.266C740.581,574.168 738.274,577.837 738.027,578.231C737.688,577.853 737.842,577.767 737.5,577.386C736.66,576.45 736.53,576.593 736.474,576.5C736.305,576.22 736.458,575.84 736.376,575.524C736.273,575.132 736.037,574.784 735.925,574.394C735.106,571.565 734.268,563.916 733.42,560.52C732.68,557.557 732.846,556.233 732.467,554.507C732.022,552.482 732.036,552.501 731.753,550.456C731.407,547.956 729.94,542.599 729.725,538.506C730.309,538.038 729.973,537.115 732.493,537.104C734.252,537.097 753.537,537.017 754.479,537.126C754.836,537.168 755.136,537.495 755.494,537.485C755.857,537.475 756.139,537.039 756.5,537.069C756.987,537.111 757.344,537.642 757.831,537.683Z" style="fill:rgb(47,49,54);"/>
            <path d="M649.5,422.966C662.342,423.298 663.454,422.544 663.478,424.5C663.49,425.436 659.37,440.259 658.991,441.624C658.112,444.788 657.969,446.162 655.488,446.273C654.937,446.298 643.197,446.348 642.504,446.349C639.692,446.354 640.249,445.071 641.021,442.364C642.285,437.927 642.054,437.881 643.371,433.462C646.141,424.171 645.735,423.611 647.397,423.131C647.397,423.131 649.332,422.979 649.5,422.966Z" style="fill:rgb(7,8,18);"/>
            <path d="M494.494,423.053C496.507,423.135 496.502,423.088 496.668,423.141C496.791,423.18 497.676,423.463 497.532,424.502C497.431,425.226 497.106,425.901 496.913,426.607C494.745,434.575 494.811,434.576 492.649,442.541C491.813,445.622 491.278,445.9 490.432,446.196C490.028,446.338 475.881,446.295 475.575,446.219C474.453,445.939 474.544,444.663 474.555,444.504C474.574,444.239 476.232,437.617 476.539,436.511C479.239,426.796 479.43,423.673 481.416,423.173C482.756,422.836 493.448,423.034 494.494,423.053Z" style="fill:rgb(2,3,15);"/>
            <path d="M715.504,422.933C717.442,423.006 717.432,422.981 717.597,423.012C718.81,423.244 719.008,423.272 719.151,424.49C719.156,424.531 718.791,426.078 718.644,426.547C715.297,437.239 714.514,443.134 713.399,444.423C711.476,446.648 707.707,446.344 707.503,446.342C698.315,446.259 698.321,446.324 697.524,446.276C695.256,446.143 696.301,443.518 697.414,439.475C698.157,436.781 701.253,424.451 701.815,423.757C702.561,422.834 703.041,422.937 715.504,422.933Z" style="fill:rgb(22,23,30);"/>
            <path d="M631.561,655.494C631.92,655.773 632.348,655.953 632.707,656.231C632.902,656.382 633.165,657.071 634.467,657.086C636.229,657.107 636.226,656.836 656.5,657.029C658.518,657.049 658.497,656.962 660.502,657.011C661.509,657.036 661.496,657.042 662.5,657.074L663.632,658.706C656.581,664.104 656.323,663.714 651.709,666.823C642.667,672.916 637.33,675.431 635.469,676.455C635.296,675.987 635.533,675.964 635.362,675.5C635.153,674.932 634.944,675.069 634.748,674.5C634.537,673.887 634.947,673.835 633.596,666.483C632.249,659.148 632.526,659.091 632.264,658.499C632.206,658.368 631.984,658.428 631.859,658.36C631.859,658.36 630.613,657.27 630.504,657.175C631.001,656.293 630.97,656.294 631.561,655.494Z" style="fill:rgb(48,50,56);"/>
            <path d="M572.577,655.487C572.741,655.61 572.962,655.64 573.126,655.763C573.235,655.845 573.224,655.842 574.458,656.824C573.989,657.377 573.52,657.93 573.051,658.482C572.929,658.388 571.522,657.308 571.522,657.308C571.199,657.171 570.811,657.251 570.488,657.114C570.615,657.062 572.072,656.459 572.072,656.459C572.303,656.177 572.346,655.769 572.577,655.487Z" style="fill:rgb(22,25,33);"/>
            <path d="M679.722,245.3C679.813,245.066 679.569,244.783 679.66,244.549C680.643,242.017 681.797,244.55 681.87,244.712C681.918,244.817 681.066,245.592 680.517,245.573C680.237,245.564 680.002,245.309 679.722,245.3Z" style="fill:rgb(44,48,52);"/>
            <path d="M297.853,413.585C297.784,413.898 298.204,414.191 298.136,414.504C297.977,415.225 297.865,416.179 297.208,416.517C296.453,416.906 297.21,415.88 296.554,415.319C296.137,414.963 295.96,415.45 295.541,415.092C295.858,414.945 296.241,414.987 296.558,414.84C296.689,414.78 296.653,414.748 297.853,413.585Z" style="fill:rgb(25,27,34);"/>
        </g>
    </g>
</svg>
