<?xml version="1.0" encoding="UTF-8" standalone="no"?>
<!DOCTYPE svg PUBLIC "-//W3C//DTD SVG 1.1//EN" "http://www.w3.org/Graphics/SVG/1.1/DTD/svg11.dtd">
<svg width="100%" height="100%" viewBox="0 0 578 693" version="1.1" xmlns="http://www.w3.org/2000/svg" xmlns:xlink="http://www.w3.org/1999/xlink" xml:space="preserve" xmlns:serif="http://www.serif.com/" style="fill-rule:evenodd;clip-rule:evenodd;stroke-linejoin:round;stroke-miterlimit:2;">
    <g transform="matrix(1,0,0,1,-159.850205,-268.802595)">
        <g id="riders" transform="matrix(1.171875,0,0,1.171875,0,0)">
            <path d="M622.913,528.587C622.014,532.637 618.749,545.102 617.232,549.406C612.386,563.157 612.382,563.138 606.642,576.565C604.786,580.906 593.064,603.912 580.2,620.271C577.17,624.124 576.058,626.051 568.592,634.579C563.84,640.006 550.455,654.976 528.271,671.192C522.671,675.286 522.595,675.155 516.724,678.869C511.943,681.893 511.301,682.877 495.323,691.158C473.118,702.667 464.321,702.513 457.805,708.814C454.644,711.87 451.147,715.936 450.594,716.579C440.799,727.966 440.669,730.393 429.75,748.646C429.161,749.63 424.945,757.232 424.235,758.344C422.887,760.452 420.536,765.051 411.759,779.653C409.706,783.07 409.762,783.079 404.022,793.233C403.475,794.199 403.372,794.125 397.036,805.225C396.662,805.881 396.574,805.821 392.223,813.348C390.857,815.71 388.831,820.78 382.536,820.182C377.041,819.66 375.338,814.323 372.026,808.764C370.979,807.008 371.05,806.977 359.143,786.699C358.509,785.619 356.757,782.236 354.048,777.774C353.24,776.444 336.529,747.415 335.008,744.773C325.173,727.691 324.948,726.447 317.347,717.627C314.626,714.469 313.762,713.149 309.621,709.366C302.99,703.306 293.364,702.165 282.365,696.805C280.998,696.139 274.933,693.912 267.348,689.793C265.997,689.059 253.937,682.511 250.657,680.258C248.196,678.567 247.558,678.553 239.333,672.743C237.84,671.688 227.812,664.604 221.249,658.79C214.116,652.471 210.425,649.115 202.306,640.688C194.817,632.916 186.504,621.984 185.39,620.586C181.661,615.903 175.855,607 175.067,605.791C171.722,600.66 171.719,600.688 168.634,595.421C166.003,590.929 157.428,574.476 154.413,566.535C149.035,552.371 149.153,552.35 146.111,542.626C142.74,531.85 135.235,503.664 136.561,465.502C137.842,428.616 146.407,397.288 161.289,366.398C161.856,365.222 167.704,354.129 169.824,350.687C171.029,348.73 173.199,344.746 174.724,342.657C176.178,340.663 178.035,337.423 181.644,332.603C183.864,329.639 186.127,325.94 192.094,319.137C199.571,310.613 199.179,310.254 211.786,297.802C215.157,294.473 226.85,284.302 230.56,281.581C232.3,280.306 252.472,263.667 282.434,250.36C283.616,249.835 288.473,247.678 297.406,244.253C299.494,243.452 315.185,238.346 319.451,237.3C341.177,231.969 354.417,230.746 357.496,230.462C375.598,228.79 399.424,229.085 413.549,231.123C442.241,235.263 453.489,239.72 456.473,240.587C468.615,244.115 470.688,245.647 476.423,247.696C479.92,248.945 492.404,254.555 496.306,256.845C497.101,257.312 504.764,261.255 510.362,264.734C511.98,265.739 519.827,270.616 530.139,277.999C532.38,279.603 544.486,289.048 554.382,298.625C556.628,300.8 561.927,305.725 572.712,318.318C573.598,319.352 576.053,322.219 583.156,331.756C585.556,334.98 585.368,335.093 587.737,338.334C588.608,339.526 595.061,349.783 597.192,353.669C598.359,355.796 604.481,366.129 611.938,384.321C616.952,396.552 620.394,410.085 620.975,412.37C623.14,420.883 626.245,431.007 628.225,455.525C629.514,471.486 629.755,477.449 627.707,499.522C627.538,501.335 625.644,516.043 624.077,523.411C623.989,523.826 623.981,523.82 622.913,528.587Z" style="fill:rgb(247,249,248);"/>
            <path d="M392.651,239.967C418.501,241.38 427.647,244.008 428.642,244.262C428.606,244.627 428.928,244.97 428.892,245.335C428.875,245.508 428.488,245.851 428.269,247.46C427.983,249.57 427.431,249.667 428.394,251.581C428.762,252.312 430.421,252.624 430.466,252.635C439.161,254.829 439.301,255.063 440.453,254.422C440.97,254.135 441.305,253.948 444.452,248.199C446.589,248.413 446.573,248.429 448.635,249.02C450.625,249.59 450.618,249.567 452.59,250.233C461.582,253.27 461.672,252.956 470.481,256.545C479.61,260.265 479.507,260.465 488.439,264.626C494.325,267.368 494.251,267.943 498.276,269.769C498.302,270.172 499.454,270.699 497.766,271.792C496.611,272.541 496.536,272.384 495.744,272.882C487.868,277.84 485.815,285.171 485.447,286.485C480.343,304.709 491.429,314.67 501.591,320.338C512.553,326.452 525.725,325.557 530.533,324.696C545.132,322.08 548.854,318.939 549.527,318.543C553.673,316.104 553.721,313.033 556.363,315.641C558.407,317.66 560.351,319.961 560.681,320.352C569.75,331.09 569.599,331.192 575.196,338.717C580.285,345.558 579.18,346.08 579.263,346.536C577.887,352.037 579.087,352.334 578.285,353.333C578.063,353.61 577.645,353.681 577.422,353.958C573.771,351.97 573.82,351.898 572.537,351.407C560.471,346.788 554.852,349.115 551.532,350.569C543.1,354.263 539.044,364.818 538.273,367.425C534.17,381.304 535.685,388.339 535.576,389.511C535.368,391.756 534.351,391.087 523.505,395.53C523.517,395.32 523.296,395.14 523.308,394.93C523.347,394.235 523.721,394.297 523.928,389.524C523.983,388.252 524.561,374.909 524.072,373.613C523.486,372.062 523.15,372.22 521.494,372.286C514.223,372.574 511.488,372.698 505.49,368.512C497.813,363.155 496.29,345.134 494.25,340.608C493.463,338.863 492.385,336.172 489.414,334.692C485.937,332.959 485.014,338.157 479.629,336.16C476.237,334.901 470.975,332.712 458.655,328.091C457.209,327.549 457.233,327.525 440.672,321.073C432.782,317.999 423.55,314.005 414.445,310.654C413.108,310.161 402.061,305.576 395.564,304.219C392.068,303.488 393.092,301.934 392.897,294.487C392.868,293.381 393.212,287.199 387.494,285.52C384.749,284.714 378.136,285.525 377.455,293.497C377.39,294.253 377.329,297.265 377.308,297.472C377.176,298.778 376.874,298.639 376.238,299.221C375.949,299.249 375.953,299.207 372.609,299.432C370.111,294.861 370.183,289.941 367.498,289.832C366.967,289.81 342.813,294.716 336.489,296.464C329.848,298.3 324.406,299.239 315.511,301.548C311.606,302.561 276.097,310.361 274.522,310.618C274.053,310.695 269.158,311.494 268.702,311.812C267.595,312.582 268.61,314.206 268.719,314.38C272.071,319.74 271.525,320.008 272.802,322.333C272.891,322.494 273.027,322.624 273.122,322.781C273.753,323.822 273.614,323.865 274.043,325.351C274.025,325.419 273.118,326.75 273.548,331.496C274.032,336.833 275.412,338.075 272.554,339.567C271.972,339.871 271.9,339.887 271.864,340.553C271.81,341.562 271.984,341.547 272.806,342.139C278.424,346.183 288.04,349.737 288.817,355.452C289.65,361.572 284.944,366.521 284.246,367.255C283.879,367.641 279.027,372.491 278.387,370.611C277.709,368.618 278.989,367.664 281.329,361.441C282.447,358.468 282.736,356.594 280.5,356.504C278.278,356.414 270.412,358.075 266.71,348.42C266.261,347.249 265.862,343.746 264.488,343.635C263.333,343.541 258.766,346.84 257.834,351.561C256.829,356.656 258.506,358.71 258.896,359.187C262.314,363.373 270.432,363.863 274.101,368.784C275.994,371.321 274.612,376.14 268.665,377.999C265.833,378.884 262.795,378.89 255.48,375.558C255.217,375.394 252.525,374.023 247.617,370.33C241.222,365.517 241.255,365.46 240.592,365.26C238.199,364.537 236.843,366.883 235.174,369.29C234.909,369.671 233.185,372.157 232.701,374.536C232.635,374.861 232.684,375.203 232.618,375.529C232.49,376.409 231.812,381.063 230.027,386.345C229.289,388.528 228.699,388.863 228.487,388.984C228.175,389.161 227.749,388.571 227.437,388.749C225.032,387.916 225.044,387.934 222.632,387.107C210.278,382.868 210.283,381.664 209.439,382.401C208.156,383.524 211.174,385.421 211.428,385.58C214.743,387.663 214.58,387.864 217.844,390.003C222.083,392.781 222.583,392.473 225.888,395.243C225.632,395.848 225.962,395.992 225.027,397.283C224.637,397.821 224.67,397.824 224.376,398.433C221.34,404.732 217.385,409.994 217.539,411.492C217.669,412.76 218.127,412.461 219.332,412.914C227.811,416.101 227.795,416.13 228.541,416.38C230.88,417.164 230.967,416.496 231.403,416.362C231.606,416.3 231.836,416.396 232.039,416.334C231.966,416.992 232.129,417.009 231.6,419.518C230.345,425.477 230.709,425.537 229.281,431.45C228.166,436.066 228.365,436.122 226.601,440.542C226.273,441.366 226.044,441.629 226,441.725C224.885,444.158 224.87,445.162 224.742,445.688C224.62,445.797 224.584,446.312 223.592,446.703C223.083,446.903 218.971,447.897 215.594,448.841C211.767,449.911 212.145,448.134 210.229,444.643C208.075,440.718 208.09,440.733 206.035,436.747C203.298,431.437 194.669,431.623 193.574,438.51C193.358,439.867 193.42,454.536 193.078,461.483C192.328,476.69 193.495,529.976 192.917,541.512C192.431,551.23 193.193,552.59 193.661,553.422C193.688,553.471 195.091,556.715 199.495,556.434C201.666,556.295 205.049,555.013 205.614,551.518C206.162,548.124 204.53,533.454 205.994,509.523C206.373,503.328 205.843,500.867 208.523,501.378C212.209,502.08 216.642,508.453 224.486,508.801C237.138,509.362 238.832,499.687 242.341,503.64C242.87,504.236 242.675,504.394 248.738,511.293C250.932,513.789 249.4,514.25 248.6,525.506C247.825,536.404 252.533,539.686 253.564,540.405C255.154,541.514 257.766,541.902 258.128,542.71C258.209,542.891 258.706,543.999 256.669,544.723C256.566,544.76 256.573,544.755 255.368,545.16C248.109,546.896 239.9,546.139 233.704,550.76C225.118,557.164 221.307,567.933 229.77,580.324C234.118,586.691 237.029,586.671 234.414,590.44C232.603,593.049 228.57,598.479 228.055,599.173C226.488,601.283 224.828,602.292 224.496,602.494C224.117,602.724 223.661,602.851 223.35,603.166C222.825,603.697 222.562,604.45 222.036,604.981C221.478,604.101 221.422,603.559 219.541,603.812C208.704,605.272 208.169,606.656 207.814,607.575C206.987,609.713 213.166,621.986 214.211,623.665C221.902,636.02 227.993,640.723 233.635,645.328C237.828,648.751 245.025,652.903 246.47,653.562C255.69,657.762 255.679,657.885 265.575,660.027C265.934,660.432 266.154,660.032 266.516,660.44C266.563,660.494 266.374,660.53 266.714,661.315C266.788,661.484 266.856,661.429 267.835,663.319C269.825,667.162 275.118,668.43 278.268,666.159C284.561,661.623 280.111,652.315 273.507,652.709C271.872,652.807 270.388,654.045 270.387,654.045C269.884,654.067 269.512,653.403 269.009,653.425C271.727,646.879 272.706,644.683 272.093,643.768C270.778,641.803 259.203,646.144 240.73,631.213C230.707,623.111 227.193,616.107 226.404,614.535C226.622,614.135 227.08,613.9 227.297,613.5C227.459,613.201 227.419,612.829 227.508,612.501C228.306,609.561 228.177,609.544 228.87,606.581C231.5,595.347 238.884,596.455 251.49,596.821C256.789,596.975 256.765,596.772 259.502,596.618C262.258,596.462 262.796,598.227 268.076,602.986C270.606,605.267 274.541,610.062 276.495,610.107C278.163,610.145 284.422,606.082 285.105,604.374C285.86,602.486 278.552,594.675 276.156,591.656C276.068,591.545 275.43,590.741 275.981,589.898C276.232,589.515 277.529,589.042 277.674,588.989C279.728,588.24 279.752,588.321 286.491,585.478C288.089,584.804 288.029,584.708 289.585,583.958C289.877,583.818 290.212,583.782 290.504,583.641C290.787,583.766 291.146,583.583 291.429,583.708C292.424,584.147 292.302,584.29 292.922,585.206C295.112,588.437 295.102,588.427 297.421,591.56C301.59,597.192 302.317,596.526 303.734,598.34C304.768,599.663 304.331,608.023 304.358,615.501C304.425,634.55 303.908,637.919 303.847,645.501C303.776,654.266 311.235,653.337 313.688,651.845C318.555,648.883 317.34,646.007 317.84,637.521C318.725,622.483 317.636,622.477 318.339,607.416C319.059,607.49 319.924,606.169 322.787,610.315C324.931,613.421 324.274,615.164 328.007,619.892C330.828,623.464 331.152,623.121 334.167,625.885C339.774,631.025 331.669,636.231 341.574,642.387C341.803,642.53 351.606,647.943 351.769,648.002C351.926,648.059 351.92,648.035 353.805,648.439C353.872,651.977 353.804,651.963 353.831,655.498C353.849,657.898 355.026,658.387 355.337,658.71C355.356,658.964 355.579,659.175 355.598,659.43C355.622,659.755 355.483,659.751 355.595,663.498C355.64,665.018 355.834,671.472 355.711,682.498C355.678,685.489 354.835,685.276 354.632,685.697C350.809,688.733 337.124,696.3 333.611,698.676C332.896,699.16 332.478,699.443 324.262,704.072C324.052,704.19 322.18,705.245 321.507,705.27C319.706,705.338 318.722,702.56 313.384,698.598C313.815,698.279 314.212,697.914 314.643,697.595C316.593,696.149 319.861,697.004 318.715,693.431C318.406,692.468 315.246,685.311 314.051,682.7C312.349,678.98 312.475,678.482 308.553,677.306C304.006,675.941 304.035,675.892 299.585,674.272C293.656,672.114 293.171,671.098 288.334,674.234C286.813,675.22 281.208,678.493 280.69,678.814C278.307,680.292 278.133,680.129 276.523,682.41C271.282,680.214 266.368,677.43 256.425,671.625C255.524,671.099 255.545,671.071 245.569,664.396C241.956,661.978 231.647,653.89 228.715,651.258C228.39,650.967 216.531,640.823 211.277,634.632C211.468,634.225 211.818,633.907 212.009,633.5C212.767,631.887 211.858,628.186 211.128,626.678C207.816,619.834 200.696,621.908 199.967,622.012C196.416,617.881 195.358,616.24 195.01,615.7C196.625,614.045 196.587,614.023 196.754,613.913C200.6,611.356 200.432,606.171 200.297,605.554C199.358,601.265 187.152,600.033 186.504,600.447C185.95,600.8 185.695,601.516 185.141,601.869C184.064,600.186 183.921,600.291 181.595,596.441C177.071,588.957 177.001,589.012 172.83,581.33C171.561,578.992 170.667,575.976 170.524,575.495C170.685,575.197 169.905,574.886 170.066,574.588C170.363,574.039 171.182,573.978 171.596,573.511C171.754,573.333 173.897,562.389 174.087,561.419C180.124,530.599 181.436,530.874 182.641,522.524C183.72,515.049 184.333,514.429 179.127,503.685C177.613,500.56 177.159,500.157 172.542,498.396C162.657,494.624 150.44,488.177 149.651,488.224C149.167,488.252 148.745,488.604 148.263,488.655C148.084,488.674 147.955,488.403 147.777,488.422C147.758,488.196 148.075,488.027 148.056,487.8C148.05,487.719 147.375,487.69 147.244,484.51C147.123,481.547 146.514,466.689 148.392,447.46C148.68,447.655 149.843,447.849 150.621,449.378C150.953,450.031 150.957,450.008 151.394,450.582C153.332,453.128 153.319,453.114 155.236,455.686C159.023,460.767 162.082,465.407 162.268,465.662C165.689,470.363 167.178,473.27 168.219,474.783C168.318,474.926 169.307,476.364 170.316,475.345C170.494,475.166 174.962,461.644 175.357,460.45C181.476,441.933 181.756,442.032 182.274,440.418C183.838,435.541 187.727,425.248 188.332,423.442C190.643,416.553 193.009,411.394 194.325,407.436C195.795,403.018 199.112,394.519 199.147,394.396C199.855,391.878 197.877,391.778 193.286,388.799C192.224,388.11 191.673,388.532 191.502,388.504C191.651,388.225 191.438,387.837 191.588,387.558C191.81,387.145 192.248,386.891 192.559,386.538C192.703,386.374 193.87,385.048 194.198,384.342C195.369,381.817 192.298,379.215 189.94,377.035C186.463,373.822 185.052,371.672 182.176,374.06C175.269,379.794 179.03,382.811 180.063,383.911C184.246,388.364 187.075,389.352 187.435,389.638C187.613,389.78 187.646,390.065 187.834,390.194C188.171,390.424 188.62,390.449 188.956,390.679C187.8,392.165 187.853,392.192 186.585,393.586C184.574,395.794 183.995,394.278 180.668,390.36C174.749,383.388 173.301,379.764 171.778,377.331C170.963,376.028 170.827,376.154 170.327,375.557C170.058,375.235 169.881,374.842 169.611,374.52C170.821,371.122 172.127,367.804 175.518,362.513C176.019,361.73 176.118,361.831 176.436,361.437C176.692,361.119 176.57,361.057 176.835,360.768C177.068,360.514 177.158,360.652 177.399,360.39C177.474,360.393 178.386,361.021 180.334,360.132C203.888,349.382 212.153,349.168 212.458,346.494C212.552,345.664 212.334,345.686 209.874,336.38C209.035,333.205 206.995,334.79 201.564,336.685C191.087,340.341 191.387,341.011 190.476,341.317C190.302,341.376 190.307,341.323 188.187,341.391C190.785,337.387 191.128,337.659 193.913,333.803C198.944,326.837 210.094,313.749 219.749,304.768C220.041,304.497 223.345,301.423 223.389,301.382C224.24,300.573 230.269,295.266 232.551,293.567C233.942,292.531 236.98,289.811 238.723,288.882C240.715,287.819 240.831,287.958 242.346,286.271C242.915,286.544 242.931,287.498 243.5,287.772C243.814,287.922 244.085,287.382 244.413,287.264C245.905,286.728 245.956,286.932 247.439,286.343C258.066,282.123 258.108,282.274 268.583,277.69C271.119,276.58 271.141,275.612 269.127,269.26C269.699,268.729 269.625,268.671 270.267,268.203C272.118,266.852 277.978,264.223 284.308,261.076C285.019,260.723 287.274,259.602 293.451,257.21C293.615,259.452 293.411,259.528 294.505,261.497C295.231,262.805 296.266,263.439 296.46,263.558C302.581,267.313 309.637,261.675 307.067,254.623C307.034,254.534 305.709,252.806 305.589,252.649C316.037,248.85 319.566,248.52 340.531,242.802C341.817,242.451 341.826,242.567 343.537,242.426C343.412,242.97 343.325,242.927 343.202,243.465C343.071,244.036 343.197,244.051 343.157,244.08C342.715,244.402 342.128,244.453 341.609,244.625C340.938,244.847 340.978,244.906 340.318,245.184C339.48,245.537 327.964,249.504 326.444,250.42C325.892,250.753 323.874,251.97 326.563,258.475C328.115,262.229 328.521,262.902 329.531,263.214C330.336,263.462 334.695,261.354 336.307,260.222C341.962,256.249 353.173,250.652 363.398,247.203C376.264,242.863 376.774,242.602 378.503,243.496C379.937,244.237 383.545,250.601 383.918,251.26C385.803,254.584 385.888,255.741 389.547,254.657C397.293,252.361 397.389,252.188 397.549,251.519C397.835,250.318 397.562,250.33 396.941,249.264C394.267,244.666 394.141,244.764 392.705,242.392C391.765,240.839 392.611,240.133 392.651,239.967Z" style="fill:rgb(16,28,39);"/>
            <path d="M577.422,353.958C578.462,356.1 578.466,356.131 578.422,358.497C578.337,363.064 578.187,365.017 578.194,366.504C578.226,372.992 583.863,366.896 585.499,366.511C585.932,366.409 586.388,366.431 586.822,366.329C587.009,366.749 591.012,374.045 590.579,387.503C590.139,401.187 586.301,407.948 584.516,411.509C583.322,413.893 581.023,416.489 579.567,416.13C578.066,415.76 575.473,413.069 573.133,410.897C570.298,408.265 571.924,407.593 573.666,403.574C577.909,393.793 578.203,381.995 576.348,375.54C575.593,372.914 573.364,362.155 562.502,362.56C560.333,362.64 555.839,363.01 551.78,370.638C549.948,374.079 549.034,379.75 548.903,380.566C548.867,380.786 548.526,382.904 548.777,383.341C549.666,384.889 550.095,383.72 552.602,382.763C557.478,380.901 557.705,388.669 557.783,389.472C559.184,403.928 560.618,408.448 566.609,412.322C568.839,413.764 571.622,413.973 569.492,422.498C568.991,424.502 568.619,427.743 565.572,427.131C563.292,426.672 559.3,425.87 538.597,416.283C535.318,414.765 530.898,412.936 528.451,406.52C527.362,403.664 526.188,404.365 523.383,406.319C523.239,406.42 521.793,407.427 521.602,407.613C521.415,407.795 521.326,408.069 521.121,408.23C520.941,408.37 520.666,408.346 520.487,408.487C516.269,409.717 513.853,412.218 509.447,414.4C504.915,416.645 495.634,422.326 493.679,423.759C491.003,425.719 490.417,425.32 489.277,428.419C487.253,433.922 484.189,445.378 482.326,447.333C480.534,449.213 476.055,449.714 464.681,454.912C460.009,457.047 459.892,456.77 455.365,459.226C450.172,462.044 449.142,461.582 449.403,463.515C449.552,464.621 450.347,464.347 454.325,476.559C456.537,483.348 457.11,487.305 459.431,494.523C463.827,508.196 464.396,507.978 466.271,512.594C468.994,519.298 468.361,520.285 460.749,538.6C458.222,544.679 458.307,544.712 458.03,545.213C457.293,546.548 454.955,545.206 454.725,545.075C452.009,543.515 443.657,539.783 436.437,537.714C427.665,535.199 419.971,531.565 397.552,526.272C397.159,526.18 388.946,524.488 385.508,524.658C377.491,525.053 363.505,529.736 356.512,531.546C344.863,534.56 330.153,538.941 328.512,539.537C324.524,540.986 324.581,541.067 318.535,543.577C314.415,545.288 311.679,547.533 310.452,545.538C308.155,541.801 301.412,521.886 301.832,518.543C302.038,516.908 307.041,500.913 314.811,484.643C315.402,483.407 317.038,479.98 320.804,468.597C322.211,464.344 322.605,463.317 318.557,461.391C317.013,460.657 315.339,459.486 307.374,455.78C300.047,452.371 300.095,452.302 292.609,449.236C286.396,446.691 286.619,445.952 284.763,441.395C279.35,428.106 280.758,426.273 270.271,420.952C262.576,417.047 262.862,416.568 258.548,414.412C256.976,413.627 249.211,409.124 248.404,408.656C245.11,406.724 242.978,405.664 236.395,401.702C233.911,399.984 226.441,395.532 225.888,395.243C222.583,392.473 222.083,392.781 217.844,390.003C214.58,387.864 214.743,387.663 211.428,385.58C211.174,385.421 208.156,383.524 209.439,382.401C210.283,381.664 210.278,382.868 222.632,387.107C225.044,387.934 225.032,387.916 227.437,388.749C228.112,389.023 228.833,389.173 229.507,389.447C229.628,389.497 229.548,389.679 233.629,391.13C235.151,391.671 239.156,393.048 239.637,393.213C243.163,394.454 248.83,396.83 249.622,397.162C259.102,400.68 258.994,400.929 264.681,403.002C268.112,404.253 268.144,404.246 268.452,404.176C268.602,404.142 268.624,403.917 268.739,403.814C269.088,403.502 269.439,403.491 269.25,402.534C268.819,400.35 266.936,398.985 272.613,390.58C273.324,389.527 273.442,389.621 278.139,382.276C280.003,379.36 287.62,368.086 288.091,367.252C290.9,362.281 291.289,362.541 294,358.19C298.444,351.059 298.932,350.246 303.557,351.272C307.816,352.218 314.72,354.913 325.579,358.236C335.118,361.155 334.985,361.506 344.564,364.292C351.104,366.195 370.297,372.671 372.526,373.424C385.441,377.782 385.89,377.53 390.639,375.886C401.967,371.965 401.867,371.74 411.55,368.649C412.91,368.215 420.865,365.375 426.577,363.743C429.112,363.019 438.541,359.704 448.551,356.655C451.559,355.739 454.327,354.305 466.578,350.788C471.041,349.506 472.187,353.364 477.65,360.389C478.764,361.821 484.077,369.943 489.697,377.355C490.423,378.312 495.14,385.316 495.821,386.294C497.281,388.387 499.932,392.761 500.326,394.546C501.168,398.36 496.697,402.627 497.999,404.034C498.91,405.019 499.129,404.243 503.594,402.776C515.891,398.736 521.943,396.188 523.505,395.53C534.351,391.087 535.368,391.756 535.576,389.511C535.685,388.339 534.17,381.304 538.273,367.425C539.044,364.818 543.1,354.263 551.532,350.569C554.852,349.115 560.471,346.788 572.537,351.407C573.82,351.898 573.771,351.97 577.422,353.958Z" style="fill:rgb(252,251,252);"/>
            <path d="M248.404,408.656C249.211,409.124 256.976,413.627 258.548,414.412C262.862,416.568 262.576,417.047 270.271,420.952C280.758,426.273 279.35,428.106 284.763,441.395C286.619,445.952 286.396,446.691 292.609,449.236C300.095,452.302 300.047,452.371 307.374,455.78C315.339,459.486 317.013,460.657 318.557,461.391C322.605,463.317 322.211,464.344 320.804,468.597C317.038,479.98 315.402,483.407 314.811,484.643C307.041,500.913 302.038,516.908 301.832,518.543C301.412,521.886 308.155,541.801 310.452,545.538C311.679,547.533 314.415,545.288 318.535,543.577C324.581,541.067 324.524,540.986 328.512,539.537C330.153,538.941 344.863,534.56 356.512,531.546C363.505,529.736 377.491,525.053 385.508,524.658C388.946,524.488 397.159,526.18 397.552,526.272C419.971,531.565 427.665,535.199 436.437,537.714C443.657,539.783 452.009,543.515 454.725,545.075C454.955,545.206 457.293,546.548 458.03,545.213C458.307,544.712 458.222,544.679 460.749,538.6C468.361,520.285 468.994,519.298 466.271,512.594C464.396,507.978 463.827,508.196 459.431,494.523C457.11,487.305 456.537,483.348 454.325,476.559C450.347,464.347 449.552,464.621 449.403,463.515C449.142,461.582 450.172,462.044 455.365,459.226C459.892,456.77 460.009,457.047 464.681,454.912C476.055,449.714 480.534,449.213 482.326,447.333C484.189,445.378 487.253,433.922 489.277,428.419C490.417,425.32 491.003,425.719 493.679,423.759C495.634,422.326 504.915,416.645 509.447,414.4C513.853,412.218 516.269,409.717 520.487,408.487C520.993,409.991 521.189,409.985 520.953,411.547C519.855,418.799 519.543,420.295 524.633,423.258C526.169,424.151 538.697,430.867 540.482,431.544C546.779,433.934 546.992,433.382 558.416,438.623L558.828,439.369C558.794,439.702 559.217,439.975 559.184,440.308C559.165,440.496 558.838,440.474 558.703,440.606C558.057,441.24 557.15,443.052 557.038,443.277C553.586,450.175 553.138,450.461 545.477,457.475C544.948,457.96 544.961,457.943 544.444,458.443C536.558,466.064 536.378,465.849 528.448,473.447C521.552,480.056 520.958,480.647 521.514,483.497C522.892,490.556 525.279,507.424 525.669,510.481C525.262,510.045 524.579,509.936 524.171,509.5C523.929,509.242 523.946,508.829 523.817,508.5C523.374,507.366 522.969,507.611 522.531,506.481C522.127,505.44 522.038,505.507 521.481,504.521C521.409,504.392 520.866,503.43 519.742,503.905C518.965,504.234 518.822,505.439 518.804,505.593C518.317,509.694 517.678,509.545 516.953,513.601C516.416,516.609 515.985,516.489 515.489,519.498C514.817,523.575 514.444,523.476 513.642,527.534C513.611,527.688 512.935,529.54 513.68,530.365C514.724,531.52 514.96,531.023 516.509,530.922C519.427,530.73 520.115,531.153 521.041,528.378C522.661,523.529 521.742,523.323 523.192,518.433C523.788,516.422 523.7,513.081 524.23,512.5C524.646,512.045 525.35,511.924 525.766,511.469C525.84,512.287 525.804,513.221 526.165,513.727C526.666,514.427 526.633,514.587 527.505,514.575C528.021,514.567 537.045,510.276 539.314,511.766C539.467,511.866 540.5,511.784 540.87,520.48C540.907,521.334 541.763,524.795 536.508,527.515C532.284,529.703 531.787,529.404 530.674,529.92C528.014,531.153 529.271,532.983 530.148,535.608C531.528,539.738 528.409,538.598 527.581,538.892C527.195,539.03 526.941,539.43 526.555,539.567C526.23,539.418 525.825,539.525 525.5,539.375C525.086,539.185 525.106,538.485 522.533,538.258C518.25,537.878 519.564,540.396 510.762,551.695C509.18,553.727 507.853,556.144 502.54,562.53C501.771,563.454 494.124,572.646 493.351,574.433C492.465,576.484 492.682,576.811 492.762,601.51C492.762,601.76 492.77,604.235 492.951,604.623C493.186,605.131 493.679,605.489 493.914,605.997C493.801,606.183 493.556,606.263 493.443,606.449C492.627,607.796 493.1,607.91 493.136,611.508C493.264,624.007 493.219,623.984 493.673,636.493C493.774,639.258 494.192,664.088 493.45,668.492C492.143,676.247 480.548,676.746 479.677,668.48C479.594,667.688 479.415,640.558 479.211,639.534C478.96,638.281 478.297,637.766 478.25,637.677C478.422,637.313 478.341,636.863 478.512,636.5C478.512,636.499 479.355,635.759 479.44,634.502C479.693,630.79 479.364,601.577 479.714,595.479C479.723,595.326 479.806,593.885 479.421,593.583C478.375,592.763 477.517,594.28 477.431,594.431C477.059,595.089 476.953,595.277 472.044,602.194C471.814,602.519 471.745,602.445 469.012,606.141C468.478,606.862 468.236,606.641 461.788,614.723C459.544,617.536 459.543,617.509 457.25,620.294C451.457,627.33 452.855,629.661 453.506,631.526C451.021,631.905 451.016,631.9 448.739,632.955C444.879,634.744 440.23,639.876 439.59,640.582C433.861,646.906 433.837,646.863 428.366,653.392C425.639,656.647 424.157,656.355 423.501,656.517C422.841,655.914 423.164,655.681 422.5,655.074C422.06,654.672 421.916,654.974 421.429,654.624C421.041,654.346 420.798,653.904 420.437,653.593C420.237,653.421 415.303,650.465 414.277,649.891C406.325,645.442 406.661,644.98 405.016,643.479C404.982,641.88 404.788,632.703 404.65,623.498C404.952,623.071 405.558,622.927 405.86,622.5C406.093,622.17 405.614,620.506 407.586,621.109C408.868,621.501 410.249,621.649 410.484,621.674C415.005,622.158 415.034,621.42 415.385,621.594C416.959,622.374 415.249,629.763 417.471,630.557C420.796,631.745 420.152,625.897 420.108,622.498C420.062,618.91 420.425,618.964 421.781,615.621C423.603,611.129 423.993,611.332 425.87,609.835C427.564,608.485 428.411,607.62 428.429,607.614C428.629,607.547 428.758,607.88 428.905,608.031C429.683,608.836 429.25,609.806 429.349,611.509C429.572,615.328 432.262,614.412 432.816,613.861C434.378,612.31 433.411,603.459 433.92,601.599C433.994,601.327 434.716,599.689 434.752,599.674C434.866,599.625 436.459,600.249 436.599,600.418C437.111,601.041 436.807,601.136 436.818,605.496C436.82,606.206 436.841,614.366 436.847,614.381C436.904,614.535 438.048,615.154 438.267,615.13C438.397,615.115 439.637,612.872 439.748,612.671C441.542,609.426 446.36,604.12 447.124,601.415C447.666,599.496 447.241,599.457 446.326,576.507C446.068,570.037 446.651,569.978 446.358,569.5C446.037,568.975 445.338,568.757 445.017,568.232C447.924,562.046 451.301,559.065 448.207,556.909C447.424,556.364 444.785,554.708 444.486,554.52C439.901,551.644 436.203,546.39 417.435,542.892C393.992,538.521 387.524,538.33 372.481,539.254C369.612,539.431 347.771,541.933 338.39,545.193C334.764,546.453 326.799,549.907 322.772,553.782C318.341,558.045 319.662,559.452 319.794,560.4C319.534,560.88 318.841,561.02 318.581,561.5C318.505,561.64 318.62,561.637 318.622,563.493C318.628,570.511 318.341,570.483 318.258,577.49C318.18,583.998 318.255,583.98 318.221,590.488C318.215,591.604 318.15,603.938 318.216,604.446C318.267,604.837 318.522,605.177 318.602,605.563C318.674,605.913 318.717,606.279 318.667,606.633C318.627,606.913 318.379,607.136 318.339,607.416C317.636,622.477 318.725,622.483 317.84,637.521C317.34,646.007 318.555,648.883 313.688,651.845C311.235,653.337 303.776,654.266 303.847,645.501C303.908,637.919 304.425,634.55 304.358,615.501C304.331,608.023 304.768,599.663 303.734,598.34C302.317,596.526 301.59,597.192 297.421,591.56C295.102,588.427 295.112,588.437 292.922,585.206C292.302,584.29 292.424,584.147 291.429,583.708C291.146,583.583 290.787,583.766 290.504,583.641C289.76,582.7 289.574,582.865 288.679,581.331C287.97,580.116 284.988,576.751 284.649,576.369C278.995,569.989 279.178,569.851 273.568,563.442C259.01,546.81 259.175,546.334 257.5,546.11C257.169,546.066 256.805,546.282 256.5,546.147C256.043,545.943 255.825,545.364 255.368,545.16C256.573,544.755 256.566,544.76 256.669,544.723C258.706,543.999 258.209,542.891 258.128,542.71C257.766,541.902 255.154,541.514 253.564,540.405C252.533,539.686 247.825,536.404 248.6,525.506C249.4,514.25 250.932,513.789 248.738,511.293C242.675,504.394 242.87,504.236 242.341,503.64C238.832,499.687 237.138,509.362 224.486,508.801C216.642,508.453 212.209,502.08 208.523,501.378C205.843,500.867 206.373,503.328 205.994,509.523C204.53,533.454 206.162,548.124 205.614,551.518C205.049,555.013 201.666,556.295 199.495,556.434C195.091,556.715 193.688,553.471 193.661,553.422C193.193,552.59 192.431,551.23 192.917,541.512C193.495,529.976 192.328,476.69 193.078,461.483C193.42,454.536 193.358,439.867 193.574,438.51C194.669,431.623 203.298,431.437 206.035,436.747C208.09,440.733 208.075,440.718 210.229,444.643C212.145,448.134 211.767,449.911 215.594,448.841C218.971,447.897 223.083,446.903 223.592,446.703C224.584,446.312 224.62,445.797 224.742,445.688C225.125,445.797 225.119,445.5 225.5,445.608C226.574,445.914 226.408,446.185 226.5,446.19C226.899,446.208 227.211,445.81 227.595,445.703C227.899,445.619 228.225,445.665 228.537,445.624C230.106,445.415 236.923,443.936 237.575,443.699C237.871,443.592 240.073,442.364 240.535,441.523C242.244,438.412 246.245,411.05 246.589,410.523C246.589,410.523 248.259,408.805 248.404,408.656Z" style="fill:rgb(250,43,150);"/>
            <path d="M589.523,362.457C589.804,362.733 590.01,362.522 590.546,363.465C593.171,368.091 600.286,382.442 603.386,391.54C605.753,398.488 607.095,401.65 607.461,402.512C607.629,402.908 611.25,415.726 612.732,422.448C615.377,434.447 615.681,439.641 615.752,440.531C615.301,440.805 614.95,441.225 614.499,441.499C613.969,441.821 613.889,441.654 613.261,442.166C608.547,446.009 606.481,448.086 606.324,448.084C605.045,448.068 604.548,446.691 604.482,446.509C603.455,443.665 602.698,440.13 596.703,435.244C591.414,430.933 591.941,438.223 591.893,440.512C591.561,456.405 592.869,456.56 591.222,461.405C590.886,462.392 590.165,464.514 591.912,474.425C593.35,482.581 601.579,478.09 603.156,471.419C603.835,468.549 603.849,462.065 613.503,462.179C614.177,462.187 614.851,462.255 615.524,462.232C615.936,462.218 616.338,462.049 616.749,462.069C617.145,462.088 617.508,462.329 617.904,462.348C619.081,476.243 618.167,494.709 616.474,501.494C615.431,505.676 615.586,507.334 615.531,509.506C610.59,506.656 610.272,507.613 605.457,508.113C599.974,508.682 599.455,509.364 595.355,505.671C592.07,502.712 583.53,496.046 582.431,495.964C581.156,495.869 580.644,497.351 580.58,497.534C580.56,497.593 577.228,507.748 576.937,508.637C575.671,512.497 576.142,512.984 578.653,514.169C580.126,514.864 584.955,516.58 589.59,521.415C592.778,524.74 593.705,525.836 590.02,535.289C588.873,538.232 588.624,538.088 586.978,540.793C585.151,543.797 585.105,544.909 586.379,545.663C591.216,548.527 591.932,547.324 600.843,554.038C601.771,554.737 601.819,554.634 603.747,555.525C603.152,557.039 603.326,557.937 600.496,557.546C589.72,556.057 572.103,554.562 558.676,546.19C558.445,546.046 556.241,544.672 555.556,544.834C554.471,545.09 554.619,545.341 554.203,546.363C551.406,553.248 552.312,556.517 549.569,557.666C544.482,559.795 543.673,558.975 540.764,563.659C538.656,567.053 533.246,577.008 530.343,585.443C530.271,585.653 527.414,593.022 525.404,599.469C524.737,601.607 523.2,605.664 519.249,619.424C517.769,624.581 516.049,626.522 519.458,627.622C526.28,629.824 527.796,630.143 528.537,630.299C531.421,630.906 531.335,627.99 531.874,625.585C533.57,618.023 536.882,605.833 537.157,604.335C537.588,601.977 543.609,582.239 546.467,575.486C549.09,569.285 549.878,565.842 549.882,565.84C550.087,565.746 550.234,566.195 550.46,566.194C550.729,566.194 550.927,565.757 551.184,565.838C551.417,565.911 553.37,573.903 558.604,581.424C563.818,588.918 568.688,593.484 572.369,596.653C572.796,597.02 575.909,599.7 577.773,601.152C580.134,602.993 579.257,603.72 576.575,607.554C576.245,608.026 573.841,611.462 572.321,613.363C572.179,613.54 571.337,614.593 570.583,615.605C570.191,615.329 569.709,615.199 569.318,614.923C568.228,614.153 568.569,612.047 564.504,612.53C563.305,612.672 561.691,613.319 560.46,611.532C559.061,609.502 558.004,608.594 558.636,607.573C558.754,607.383 559.101,607.431 559.219,607.24C559.217,606.984 559.215,606.727 559.213,606.471C559.299,606.138 559.957,606.191 560.043,605.858C560.127,605.531 559.593,605.955 556.694,603.276C548.616,595.81 548.735,594.356 546.47,595.456C546.311,595.533 544.252,597.505 542.386,599.38C541.512,600.259 541.143,600.534 540.554,601.555C539.896,602.693 539.755,602.59 539.695,602.758C539.603,603.012 539.73,603.305 539.672,603.569C539.479,604.438 538.515,604.72 540.56,607.455C541.885,609.226 544.897,613.164 545.276,613.659C545.83,614.383 551.631,621.968 552.181,622.73C553.882,625.09 551.72,626.527 549.977,628.868C548.664,630.631 548.697,630.636 547.301,632.346C546.036,633.895 546.195,634.168 545.428,634.262C544.118,634.422 544.353,633.782 541.324,629.621C539.73,627.432 538.589,625.193 537.482,625.198C536.155,625.205 536.599,625.934 531.765,633.662C527.036,641.222 527.53,642.07 530.06,644.892C531.263,646.234 531.197,646.27 532.481,647.52C535.315,650.279 536.163,650.247 536.883,650.638C536.095,651.57 536.191,651.643 534.769,652.818C525.464,660.505 523.415,661.569 522.31,662.143C520.901,662.874 520.843,662.775 519.651,663.824C519.22,663.618 519.015,663.073 518.584,662.867C518.064,662.62 514.794,663.27 514.469,663.335C506.923,664.835 506.252,664.464 505.271,665.086C503.872,665.972 504.011,666.905 504.173,670.532C504.247,672.195 504.768,672.307 504.835,672.603C504.915,672.96 504.652,673.339 504.732,673.696C503.576,674.555 503.651,674.621 502.438,675.399C500.639,676.553 493.503,680.13 490.631,681.756C490.384,681.895 481.08,686.521 476.384,688.177C468.755,690.867 464.574,691.984 460.542,693.635C459.057,694.243 459.053,694.176 457.544,694.725C457.577,694.564 457.954,692.709 457.954,692.709C458.034,692.562 458.286,692.602 458.399,692.479C458.475,692.396 458.382,692.339 459.251,691.366C461.135,689.256 469.559,673.683 469.596,673.528C470.028,671.73 469.273,671.373 464.329,668.84C460.619,666.939 459.585,666.235 458.39,667.38C457.505,668.227 457.847,668.461 450.354,680.41C441.854,693.964 440.483,696.068 442.247,697.61C442.768,698.065 443.309,698.497 443.83,698.953C440.683,700.08 440.666,699.972 429.376,703.107C429.152,703.17 427.176,703.718 426.494,703.551C426.224,703.485 426.024,703.232 425.754,703.165C425.504,702.823 425.154,702.562 424.904,702.22C424.791,702.064 418.802,692.728 415.668,686.417C414.433,683.928 413.794,682.99 411.579,683.733C410.244,684.182 406.639,685.748 402.422,687.316C399.453,688.42 401.393,690.017 404.343,694.605C406.874,698.54 412.245,705.406 423.092,721.77C425.87,725.961 427.145,727.504 428.092,728.533C428.068,728.887 428.713,729.111 427.574,731.539C426.566,733.688 421.036,742.336 416.548,750.538C416.292,750.212 415.771,750.173 415.515,749.847C415.308,749.584 415.407,749.174 415.247,748.88C415.187,748.77 415.066,748.861 414.324,747.612C413.817,746.758 410.638,742.097 410.275,741.71C408.312,739.616 406.774,741.408 400.428,745.392C394.254,749.268 394.233,749.214 382.439,756.4C373.067,762.111 373.177,762.267 363.728,767.868C363.673,767.9 361.673,769.373 361.495,769.505C359.215,765.971 344.376,739.835 341.732,735.365C339.679,731.895 339.88,731.804 335.853,725.288C335.666,724.984 335.705,724.979 333.606,721.437C330.798,716.699 328.889,715.628 330.262,714.299C331.146,713.444 331.487,714.137 344.544,708.601C353.852,704.655 354.11,704.922 354.762,703.865C355.746,702.27 355.343,702.032 355.527,690.5C355.554,688.805 355.732,686.459 355.582,686.204C355.401,685.894 354.813,686.007 354.632,685.697C354.835,685.276 355.678,685.489 355.711,682.498C355.834,671.472 355.64,665.018 355.595,663.498C355.483,659.751 355.622,659.755 355.598,659.43C355.579,659.175 355.356,658.964 355.337,658.71C356.314,658.571 358.943,659.474 359.078,654.489C359.241,648.482 359.299,648.505 359.538,642.502C359.984,631.295 358.714,631.172 359.678,612.51C359.837,609.427 359.862,605.127 360.566,604.573C361.641,603.726 363.488,605.515 365.614,606.086C367.431,606.573 371.029,606.528 371.502,606.522C371.962,606.897 372.04,607.622 372.5,607.997C372.566,608.05 375.473,608.321 376.486,608.575C377.72,608.884 379.725,609.962 383.48,609.763C387.943,609.526 386.707,614.319 392.367,614.822C392.666,614.848 392.988,614.746 393.268,614.856C393.408,614.911 393.156,615.241 394.746,616.014C395.328,616.297 395.441,616.254 395.5,616.231C396.29,615.929 396.01,615.53 396.801,615.228C399.775,618.244 399.293,618.702 399.323,627.501C399.345,634.131 399.43,634.107 399.333,639.503C399.186,639.55 397.5,640.089 397.5,640.089C396.471,640.032 387.07,633.215 383.454,631.569C382.158,630.979 381.749,630.689 382.605,629.555C383.205,628.759 386.624,629.784 386.774,628.503C386.874,627.652 386.612,627.729 385.926,627.187C384.974,626.436 382.712,624.65 373.466,618.562C372.418,617.872 372.218,617.401 371.351,618.32C370.462,619.262 370.927,619.435 371.01,622.491C371.248,631.348 371.038,634.767 371.177,637.499C371.228,638.505 371.2,638.487 371.121,639.5C371.051,640.403 371.08,640.438 371.13,640.5C371.79,641.308 372.178,640.796 372.847,641.615C373.872,639.925 373.843,639.92 373.953,639.79C374.107,639.609 375.201,639.102 375.481,639.095C378.014,639.029 385.361,647.979 395.452,656.559C397.29,658.122 405.878,666.969 412.683,662.824C415.114,661.344 415.293,660.698 415.961,659.848C418.226,656.968 418.683,657.496 423.501,656.517C424.157,656.355 425.639,656.647 428.366,653.392C433.837,646.863 433.861,646.906 439.59,640.582C440.23,639.876 444.879,634.744 448.739,632.955C451.016,631.9 451.021,631.905 453.506,631.526C459.53,631.367 459.514,631.658 465.416,632.888C474.194,634.718 474.875,636.12 478.25,637.677C478.297,637.766 478.96,638.281 479.211,639.534C479.415,640.558 479.594,667.688 479.677,668.48C480.548,676.746 492.143,676.247 493.45,668.492C494.192,664.088 493.774,639.258 493.673,636.493C493.219,623.984 493.264,624.007 493.136,611.508C493.1,607.91 492.627,607.796 493.443,606.449C493.556,606.263 493.801,606.183 493.914,605.997C494.161,606.149 494.252,606.488 494.499,606.641C499.391,609.666 507.454,607.968 508.08,601.48C508.2,600.239 508.063,577.539 508.051,575.457C508.022,570.597 511.149,575.805 516.536,574.691C524.966,572.949 524.356,563.495 524.9,557.526C525.719,548.542 525.241,548.509 526.555,539.567C526.941,539.43 527.195,539.03 527.581,538.892C528.409,538.598 531.528,539.738 530.148,535.608C529.271,532.983 528.014,531.153 530.674,529.92C531.787,529.404 532.284,529.703 536.508,527.515C541.763,524.795 540.907,521.334 540.87,520.48C540.5,511.784 539.467,511.866 539.314,511.766C537.045,510.276 528.021,514.567 527.505,514.575C526.633,514.587 526.666,514.427 526.165,513.727C525.804,513.221 525.84,512.287 525.766,511.469L525.669,510.481C525.279,507.424 522.892,490.556 521.514,483.497C520.958,480.647 521.552,480.056 528.448,473.447C536.378,465.849 536.558,466.064 544.444,458.443C544.961,457.943 544.948,457.96 545.477,457.475C553.138,450.461 553.586,450.175 557.038,443.277C557.15,443.052 558.057,441.24 558.703,440.606C558.838,440.474 559.165,440.496 559.184,440.308C559.217,439.975 558.794,439.702 558.828,439.369C558.69,439.12 558.553,438.871 558.416,438.623C546.992,433.382 546.779,433.934 540.482,431.544C538.697,430.867 526.169,424.151 524.633,423.258C519.543,420.295 519.855,418.799 520.953,411.547C521.189,409.985 520.993,409.991 520.487,408.487C520.666,408.346 520.941,408.37 521.121,408.23C521.326,408.069 521.415,407.795 521.602,407.613C521.793,407.427 523.239,406.42 523.383,406.319C526.188,404.365 527.362,403.664 528.451,406.52C530.898,412.936 535.318,414.765 538.597,416.283C559.3,425.87 563.292,426.672 565.572,427.131C568.619,427.743 568.991,424.502 569.492,422.498C571.622,413.973 568.839,413.764 566.609,412.322C560.618,408.448 559.184,403.928 557.783,389.472C557.705,388.669 557.478,380.901 552.602,382.763C550.095,383.72 549.666,384.889 548.777,383.341C548.526,382.904 548.867,380.786 548.903,380.566C549.034,379.75 549.948,374.079 551.78,370.638C555.839,363.01 560.333,362.64 562.502,362.56C573.364,362.155 575.593,372.914 576.348,375.54C578.203,381.995 577.909,393.793 573.666,403.574C571.924,407.593 570.298,408.265 573.133,410.897C575.473,413.069 578.066,415.76 579.567,416.13C581.023,416.489 583.322,413.893 584.516,411.509C586.301,407.948 590.139,401.187 590.579,387.503C591.012,374.045 587.009,366.749 586.822,366.329C586.828,366.275 586.599,365.209 587.27,364.335C587.83,363.605 588.357,363.311 589.523,362.457Z" style="fill:rgb(35,29,48);"/>
            <path d="M372.609,299.432C375.953,299.207 375.949,299.249 376.238,299.221C376.874,298.639 377.176,298.778 377.308,297.472C377.329,297.265 377.39,294.253 377.455,293.497C378.136,285.525 384.749,284.714 387.494,285.52C393.212,287.199 392.868,293.381 392.897,294.487C393.092,301.934 392.068,303.488 395.564,304.219C402.061,305.576 413.108,310.161 414.445,310.654C423.55,314.005 432.782,317.999 440.672,321.073C457.233,327.525 457.209,327.549 458.655,328.091C470.975,332.712 476.237,334.901 479.629,336.16C485.014,338.157 485.937,332.959 489.414,334.692C492.385,336.172 493.463,338.863 494.25,340.608C496.29,345.134 497.813,363.155 505.49,368.512C511.488,372.698 514.223,372.574 521.494,372.286C523.15,372.22 523.486,372.062 524.072,373.613C524.561,374.909 523.983,388.252 523.928,389.524C523.721,394.297 523.347,394.235 523.308,394.93C523.296,395.14 523.517,395.32 523.505,395.53C521.943,396.188 515.891,398.736 503.594,402.776C499.129,404.243 498.91,405.019 497.999,404.034C496.697,402.627 501.168,398.36 500.326,394.546C499.932,392.761 497.281,388.387 495.821,386.294C495.14,385.316 490.423,378.312 489.697,377.355C484.077,369.943 478.764,361.821 477.65,360.389C472.187,353.364 471.041,349.506 466.578,350.788C454.327,354.305 451.559,355.739 448.551,356.655C438.541,359.704 429.112,363.019 426.577,363.743C420.865,365.375 412.91,368.215 411.55,368.649C401.867,371.74 401.967,371.965 390.639,375.886C385.89,377.53 385.441,377.782 372.526,373.424C370.297,372.671 351.104,366.195 344.564,364.292C334.985,361.506 335.118,361.155 325.579,358.236C314.72,354.913 307.816,352.218 303.557,351.272C298.932,350.246 298.444,351.059 294,358.19C291.289,362.541 290.9,362.281 288.091,367.252C287.62,368.086 280.003,379.36 278.139,382.276C273.442,389.621 273.324,389.527 272.613,390.58C266.936,398.985 268.819,400.35 269.25,402.534C269.439,403.491 269.088,403.502 268.739,403.814C268.624,403.917 268.602,404.142 268.452,404.176C268.144,404.246 268.112,404.253 264.681,403.002C258.994,400.929 259.102,400.68 249.622,397.162C249.604,397.056 249.371,397.092 249.353,396.986C249.338,396.904 249.334,394.558 249.348,394.469C249.363,394.373 251.319,388.055 251.491,387.497C254.206,378.726 253.821,378.587 255.48,375.558C262.795,378.89 265.833,378.884 268.665,377.999C274.612,376.14 275.994,371.321 274.101,368.784C270.432,363.863 262.314,363.373 258.896,359.187C258.506,358.71 256.829,356.656 257.834,351.561C258.766,346.84 263.333,343.541 264.488,343.635C265.862,343.746 266.261,347.249 266.71,348.42C270.412,358.075 278.278,356.414 280.5,356.504C282.736,356.594 282.447,358.468 281.329,361.441C278.989,367.664 277.709,368.618 278.387,370.611C279.027,372.491 283.879,367.641 284.246,367.255C284.944,366.521 289.65,361.572 288.817,355.452C288.04,349.737 278.424,346.183 272.806,342.139C271.984,341.547 271.81,341.562 271.864,340.553C271.9,339.887 271.972,339.871 272.554,339.567C275.412,338.075 274.032,336.833 273.548,331.496C273.118,326.75 274.025,325.419 274.043,325.351C274.327,324.955 273.88,324.846 274.16,324.455C274.636,323.792 274.884,324.083 275.406,323.451C275.575,323.247 275.471,322.904 275.623,322.687C275.774,322.47 276.061,322.392 276.264,322.223C276.351,322.151 276.336,322.139 277.308,321.283C281.824,317.31 285.732,314.071 287.549,313.641C292.896,312.378 294.082,318.34 294.778,319.403C295.047,319.814 295.468,320.113 295.737,320.524C295.833,320.799 295.692,321.121 295.788,321.395C295.941,321.832 296.148,321.732 298.347,326.58C299.756,329.687 302.588,327.768 306.433,326.333C307.648,325.879 310.366,324.729 315.573,322.689C316.875,322.179 316.817,322.088 331.609,315.736C335.596,314.024 335.477,313.794 340.627,311.76C340.927,311.642 344.358,310.287 344.376,310.275C344.522,310.176 344.516,309.918 344.673,309.837C344.802,309.772 344.849,309.959 346.418,309.374C347.66,308.912 347.273,308.541 347.475,307.24C348.582,307.022 348.623,307.26 351.485,306.448C353.099,305.989 367.866,302.159 368.402,302.049C371.553,301.406 371.356,300.954 371.74,300.658C371.873,300.555 372.12,300.628 372.217,300.491C372.435,300.184 372.391,299.739 372.609,299.432Z" style="fill:rgb(246,42,148);"/>
            <path d="M319.794,560.4C319.662,559.452 318.341,558.045 322.772,553.782C326.799,549.907 334.764,546.453 338.39,545.193C347.771,541.933 369.612,539.431 372.481,539.254C387.524,538.33 393.992,538.521 417.435,542.892C436.203,546.39 439.901,551.644 444.486,554.52C444.785,554.708 447.424,556.364 448.207,556.909C451.301,559.065 447.924,562.046 445.017,568.232C444.73,568.79 444.681,568.748 444.393,569.448C443.067,572.665 438.8,580.33 438.626,580.594C437.766,581.901 434.037,583.062 429.424,587.423C423.309,593.205 412.287,602.147 411.538,603.523C409.357,607.529 412.812,609.532 406.736,614.78C404.124,617.036 404.673,617.508 404.65,623.498C404.788,632.703 404.982,641.88 405.016,643.479C404.74,648.271 405.182,648.283 404.756,650.547C404.214,653.422 401.687,653.438 400.771,653.008C398.905,652.134 399.344,649.239 399.333,639.503C399.43,634.107 399.345,634.131 399.323,627.501C399.293,618.702 399.775,618.244 396.801,615.228C394.762,612.894 395.229,612.622 395.129,609.512C395.077,607.88 395.243,607.542 393.694,607.01C392.961,606.758 384.431,606.034 371.502,606.522C371.029,606.528 367.431,606.573 365.614,606.086C363.488,605.515 361.641,603.726 360.566,604.573C359.862,605.127 359.837,609.427 359.678,612.51C358.714,631.172 359.984,631.295 359.538,642.502C359.299,648.505 359.241,648.482 359.078,654.489C358.943,659.474 356.314,658.571 355.337,658.71C355.026,658.387 353.849,657.898 353.831,655.498C353.804,651.963 353.872,651.977 353.805,648.439C354.016,643.37 354.1,615.718 353.777,610.48C353.479,605.647 350.064,605.878 348.418,601.541C347.229,598.406 347.549,597.895 346.492,597.872C345.833,597.857 345.752,597.897 345.565,598.536C345.44,598.962 345.583,606.249 345.196,610.471C344.73,615.553 341.532,614.141 341.235,613.908C340.138,613.051 340.103,612.064 340.138,610.492C340.297,603.35 340.845,600.996 338.88,598.239C336.019,594.227 336.229,594.12 334.117,589.683C332.099,585.444 325.219,574.692 319.794,560.4Z" style="fill:rgb(254,253,254);"/>
            <path d="M313.932,396.519C314.311,388.897 314.178,388.279 316.077,386.134C319.228,382.576 321.969,383.422 324.411,384.672C331.596,388.352 331.294,388.853 340.289,393.875C343.823,395.847 343.688,396.044 347.294,397.908C363.012,406.033 363.034,405.985 364.394,406.704C371.679,410.556 371.742,410.414 372.37,410.757C372.873,411.032 375.598,412.518 378.708,414.099C384.107,416.844 384.5,417.246 388.338,415.191C400.329,408.769 400.338,408.832 401.372,408.261C410.763,403.077 410.846,403.267 411.656,402.808C412.843,402.134 424.095,396.113 424.653,395.771C429.792,392.619 430.009,393.037 435.208,390.003C439.873,387.279 439.983,387.508 444.631,384.725C447.92,382.755 450.529,383.96 451.386,384.65C452.826,385.806 453.271,386.112 453.799,397.487C454.265,407.536 454.296,407.517 455.203,417.535C455.708,423.114 458.253,421.483 463.453,419.38C478.532,413.282 478.61,413.548 486.459,410.398C489.015,409.372 492.916,407.06 492.273,411.468C490.978,420.355 490.175,421.817 489.734,422.619C488.225,425.367 477.653,428.525 474.371,430.222C471.642,431.632 464.148,434.667 461.294,436.069C457.617,437.874 448.829,441.601 448.596,441.71C441.574,444.998 437.937,447.72 436.901,444.402C436.589,443.404 436.026,419.605 435.975,417.448C435.935,415.751 436.146,415.029 434.461,415.205C433.92,415.262 424.283,420.747 420.749,422.895C419.415,423.705 404.693,433.7 404.654,433.727C397.133,439.027 397.207,439.121 396.52,439.528C393.16,441.519 387.602,446.229 385.489,446.348C384.85,446.383 383.794,446.442 378.357,442.729C377.977,442.469 364.703,433.978 364.349,433.746C352.841,426.212 337.262,417.436 335.595,416.27C335.455,416.172 334.308,415.37 333.485,416.491C333.115,416.997 332.863,433.681 332.561,439.503C332.347,443.633 332.647,447.917 328.662,446.123C322.279,443.25 322.269,443.294 321.721,443.031C320.592,442.49 317.549,441.031 307.425,436.654C291.9,429.942 291.974,429.781 290.618,429.212C279.44,424.52 278.907,424.058 276.83,417.395C274.25,409.119 274.043,409.189 273.857,408.458C273.825,408.331 273.568,407.318 274.598,406.99C275.005,406.861 275.012,407.003 280.651,409.11C288.244,411.946 288.196,412.014 295.677,415.086C308.624,420.403 308.515,420.623 309.651,421.058C312.615,422.193 312.666,420.689 312.811,417.521C313.257,407.776 313.6,406.44 313.932,396.519Z" style="fill:rgb(249,43,149);"/>
            <path d="M255.368,545.16C255.825,545.364 256.043,545.943 256.5,546.147C256.805,546.282 257.169,546.066 257.5,546.11C259.175,546.334 259.01,546.81 273.568,563.442C279.178,569.851 278.995,569.989 284.649,576.369C284.988,576.751 287.97,580.116 288.679,581.331C289.574,582.865 289.76,582.7 290.504,583.641C290.212,583.782 289.877,583.818 289.585,583.958C288.029,584.708 288.089,584.804 286.491,585.478C279.752,588.321 279.728,588.24 277.674,588.989C277.529,589.042 276.232,589.515 275.981,589.898C275.43,590.741 276.068,591.545 276.156,591.656C278.552,594.675 285.86,602.486 285.105,604.374C284.422,606.082 278.163,610.145 276.495,610.107C274.541,610.062 270.606,605.267 268.076,602.986C262.796,598.227 262.258,596.462 259.502,596.618C256.765,596.772 256.789,596.975 251.49,596.821C238.884,596.455 231.5,595.347 228.87,606.581C228.177,609.544 228.306,609.561 227.508,612.501C227.419,612.829 227.459,613.201 227.297,613.5C227.08,613.9 226.622,614.135 226.404,614.535C225.823,613.686 223.417,610.678 222.036,604.981C222.562,604.45 222.825,603.697 223.35,603.166C223.661,602.851 224.117,602.724 224.496,602.494C224.828,602.292 226.488,601.283 228.055,599.173C228.57,598.479 232.603,593.049 234.414,590.44C237.029,586.671 234.118,586.691 229.77,580.324C221.307,567.933 225.118,557.164 233.704,550.76C239.9,546.139 248.109,546.896 255.368,545.16Z" style="fill:rgb(182,22,125);"/>
            <path d="M169.611,374.52C169.881,374.842 170.058,375.235 170.327,375.557C170.827,376.154 170.963,376.028 171.778,377.331C173.301,379.764 174.749,383.388 180.668,390.36C183.995,394.278 184.574,395.794 186.585,393.586C187.853,392.192 187.8,392.165 188.956,390.679C189.062,390.549 189.266,390.528 189.373,390.398C189.526,390.212 189.561,389.946 189.713,389.758C189.875,389.557 190.116,389.433 190.298,389.25C190.448,389.1 190.527,388.875 190.707,388.764C190.944,388.617 191.265,388.651 191.502,388.504C191.673,388.532 192.224,388.11 193.286,388.799C197.877,391.778 199.855,391.878 199.147,394.396C199.112,394.519 195.795,403.018 194.325,407.436C193.009,411.394 190.643,416.553 188.332,423.442C187.727,425.248 183.838,435.541 182.274,440.418C181.756,442.032 181.476,441.933 175.357,460.45C174.962,461.644 170.494,475.166 170.316,475.345C169.307,476.364 168.318,474.926 168.219,474.783C167.178,473.27 165.689,470.363 162.268,465.662C162.082,465.407 159.023,460.767 155.236,455.686C153.319,453.114 153.332,453.128 151.394,450.582C150.957,450.008 150.953,450.031 150.621,449.378C149.843,447.849 148.68,447.655 148.392,447.46C148.533,446.34 149.307,440.182 150.442,433.5C150.954,433.287 150.989,433.498 151.5,433.285C151.592,433.247 152.107,433.032 152.549,432.621C152.915,432.282 153.056,431.711 153.48,431.448C153.788,431.256 154.21,431.297 154.566,431.369C155.345,431.527 155.117,431.801 155.459,432.525C156.304,434.312 157.5,435.832 158.413,437.552C160.412,441.317 164.439,447.059 164.698,447.265C165.611,447.993 166.29,447.477 166.399,447.394C166.63,447.219 167.101,445.559 167.148,445.394C168.274,441.424 169.569,438.424 170.725,434.571C174.083,423.376 181.602,405.537 181.606,405.517C181.965,403.235 180.798,403.744 178.492,403.624C176.046,403.496 176.199,402.891 171.704,398.301C163.625,390.052 164.253,389.247 163.117,389.031C162.879,388.986 162.916,389.656 162.678,389.611C165.356,384.24 166.341,379.719 169.611,374.52Z" style="fill:rgb(58,145,206);"/>
            <path d="M319.794,560.4C325.219,574.692 332.099,585.444 334.117,589.683C336.229,594.12 336.019,594.227 338.88,598.239C340.845,600.996 340.297,603.35 340.138,610.492C340.103,612.064 340.138,613.051 341.235,613.908C341.532,614.141 344.73,615.553 345.196,610.471C345.583,606.249 345.44,598.962 345.565,598.536C345.752,597.897 345.833,597.857 346.492,597.872C347.549,597.895 347.229,598.406 348.418,601.541C350.064,605.878 353.479,605.647 353.777,610.48C354.1,615.718 354.016,643.37 353.805,648.439C351.92,648.035 351.926,648.059 351.769,648.002C351.606,647.943 341.803,642.53 341.574,642.387C331.669,636.231 339.774,631.025 334.167,625.885C331.152,623.121 330.828,623.464 328.007,619.892C324.274,615.164 324.931,613.421 322.787,610.315C319.924,606.169 319.059,607.49 318.339,607.416C318.379,607.136 318.627,606.913 318.667,606.633C318.717,606.279 318.674,605.913 318.602,605.563C318.522,605.177 318.267,604.837 318.216,604.446C318.15,603.938 318.215,591.604 318.221,590.488C318.255,583.98 318.18,583.998 318.258,577.49C318.341,570.483 318.628,570.511 318.622,563.493C318.62,561.637 318.505,561.64 318.581,561.5C318.841,561.02 319.534,560.88 319.794,560.4Z" style="fill:rgb(189,25,123);"/>
            <path d="M372.609,299.432C372.391,299.739 372.435,300.184 372.217,300.491C372.12,300.628 371.873,300.555 371.74,300.658C371.356,300.954 371.553,301.406 368.402,302.049C367.866,302.159 353.099,305.989 351.485,306.448C348.623,307.26 348.582,307.022 347.475,307.24C344.68,307.843 337.503,310.031 328.421,312.129C324.141,313.117 315.622,315.439 309.561,316.755C298.087,319.245 296.426,319.476 295.945,319.994C295.816,320.133 295.867,320.385 295.737,320.524C295.468,320.113 295.047,319.814 294.778,319.403C294.082,318.34 292.896,312.378 287.549,313.641C285.732,314.071 281.824,317.31 277.308,321.283C276.336,322.139 276.351,322.151 276.264,322.223C276.061,322.392 275.774,322.47 275.623,322.687C275.471,322.904 275.575,323.247 275.406,323.451C274.884,324.083 274.636,323.792 274.16,324.455C273.88,324.846 274.327,324.955 274.043,325.351C273.614,323.865 273.753,323.822 273.122,322.781C273.027,322.624 272.891,322.494 272.802,322.333C271.525,320.008 272.071,319.74 268.719,314.38C268.61,314.206 267.595,312.582 268.702,311.812C269.158,311.494 274.053,310.695 274.522,310.618C276.097,310.361 311.606,302.561 315.511,301.548C324.406,299.239 329.848,298.3 336.489,296.464C342.813,294.716 366.967,289.81 367.498,289.832C370.183,289.941 370.111,294.861 372.609,299.432Z" style="fill:rgb(237,135,33);"/>
            <path d="M147.777,488.422C147.955,488.403 148.084,488.674 148.263,488.655C148.745,488.604 149.167,488.252 149.651,488.224C150.44,488.177 162.657,494.624 172.542,498.396C177.159,500.157 177.613,500.56 179.127,503.685C184.333,514.429 183.72,515.049 182.641,522.524C181.436,530.874 180.124,530.599 174.087,561.419C173.897,562.389 171.754,573.333 171.596,573.511C171.182,573.978 170.363,574.039 170.066,574.588C169.905,574.886 170.685,575.197 170.524,575.495C166.115,569.362 166.617,567.463 162.231,557.684C162.454,557.19 162.968,556.867 163.19,556.373C163.632,555.393 162.598,555.253 163.837,548.562C166.241,535.588 166.814,531.096 168.544,523.51C169.04,521.333 170.04,515.696 170.015,515.506C169.894,514.556 169.37,513.922 167.304,512.888C160.027,509.242 155.107,507.596 152.28,505.923C150.174,504.677 149.204,505.44 148.931,505.5C147.592,491.843 147.494,491.844 147.777,488.422Z" style="fill:rgb(58,145,207);"/>
            <path d="M222.036,604.981C223.417,610.678 225.823,613.686 226.404,614.535C227.193,616.107 230.707,623.111 240.73,631.213C259.203,646.144 270.778,641.803 272.093,643.768C272.706,644.683 271.727,646.879 269.009,653.425C267.816,656.023 267.842,656.018 266.676,658.626C266.175,659.747 265.707,659.859 265.575,660.027C255.679,657.885 255.69,657.762 246.47,653.562C245.025,652.903 237.828,648.751 233.635,645.328C227.993,640.723 221.902,636.02 214.211,623.665C213.166,621.986 206.987,609.713 207.814,607.575C208.169,606.656 208.704,605.272 219.541,603.812C221.422,603.559 221.478,604.101 222.036,604.981Z" style="fill:rgb(230,229,230);"/>
            <path d="M526.555,539.567C525.241,548.509 525.719,548.542 524.9,557.526C524.356,563.495 524.966,572.949 516.536,574.691C511.149,575.805 508.022,570.597 508.051,575.457C508.063,577.539 508.2,600.239 508.08,601.48C507.454,607.968 499.391,609.666 494.499,606.641C494.252,606.488 494.161,606.149 493.914,605.997C493.679,605.489 493.186,605.131 492.951,604.623C492.77,604.235 492.762,601.76 492.762,601.51C492.682,576.811 492.465,576.484 493.351,574.433C494.124,572.646 501.771,563.454 502.54,562.53C507.853,556.144 509.18,553.727 510.762,551.695C519.564,540.396 518.25,537.878 522.533,538.258C525.106,538.485 525.086,539.185 525.5,539.375C525.825,539.525 526.23,539.418 526.555,539.567Z" style="fill:rgb(189,26,126);"/>
            <path d="M615.531,509.506C614.246,520.939 612.95,523.05 612.788,523.454C610.326,521.814 609.663,520.436 606.842,522.883C603.516,525.768 602.668,527.322 606.563,529.393C606.935,529.591 608.339,530.42 608.492,530.511C608.68,531.107 608.868,531.703 609.056,532.298C608.959,532.436 608.754,532.47 608.657,532.608C608.515,532.809 608.511,533.09 608.361,533.285C607.999,533.758 603.801,536.825 603.508,537.505C602.69,539.399 604.485,540.507 605.471,541.532C605.655,541.724 606.395,542.492 607.901,543.811C607.123,547.508 605.179,552.539 603.747,555.525C601.819,554.634 601.771,554.737 600.843,554.038C591.932,547.324 591.216,548.527 586.379,545.663C585.105,544.909 585.151,543.797 586.978,540.793C588.624,538.088 588.873,538.232 590.02,535.289C593.705,525.836 592.778,524.74 589.59,521.415C584.955,516.58 580.126,514.864 578.653,514.169C576.142,512.984 575.671,512.497 576.937,508.637C577.228,507.748 580.56,497.593 580.58,497.534C580.644,497.351 581.156,495.869 582.431,495.964C583.53,496.046 592.07,502.712 595.355,505.671C599.455,509.364 599.974,508.682 605.457,508.113C610.272,507.613 610.59,506.656 615.531,509.506Z" style="fill:rgb(210,40,141);"/>
            <path d="M445.017,568.232C445.338,568.757 446.037,568.975 446.358,569.5C446.651,569.978 446.068,570.037 446.326,576.507C447.241,599.457 447.666,599.496 447.124,601.415C446.36,604.12 441.542,609.426 439.748,612.671C439.637,612.872 438.397,615.115 438.267,615.13C438.048,615.154 436.904,614.535 436.847,614.381C436.841,614.366 436.82,606.206 436.818,605.496C436.807,601.136 437.111,601.041 436.599,600.418C436.459,600.249 434.866,599.625 434.752,599.674C434.716,599.689 433.994,601.327 433.92,601.599C433.411,603.459 434.378,612.31 432.816,613.861C432.262,614.412 429.572,615.328 429.349,611.509C429.25,609.806 429.683,608.836 428.905,608.031C428.758,607.88 428.629,607.547 428.429,607.614C428.411,607.62 427.564,608.485 425.87,609.835C423.993,611.332 423.603,611.129 421.781,615.621C420.425,618.964 420.062,618.91 420.108,622.498C420.152,625.897 420.796,631.745 417.471,630.557C415.249,629.763 416.959,622.374 415.385,621.594C415.034,621.42 415.005,622.158 410.484,621.674C410.249,621.649 408.868,621.501 407.586,621.109C405.614,620.506 406.093,622.17 405.86,622.5C405.558,622.927 404.952,623.071 404.65,623.498C404.673,617.508 404.124,617.036 406.736,614.78C412.812,609.532 409.357,607.529 411.538,603.523C412.287,602.147 423.309,593.205 429.424,587.423C434.037,583.062 437.766,581.901 438.626,580.594C438.8,580.33 443.067,572.665 444.393,569.448C444.681,568.748 444.73,568.79 445.017,568.232Z" style="fill:rgb(190,23,121);"/>
            <path d="M348.363,273.018C354.361,270.975 358.044,270.014 361.586,268.735C366.996,266.781 379.817,262.733 381.394,262.184C382.039,261.96 387.875,259.928 389.493,259.476C392.907,258.52 393.759,258.124 394.773,259.272C395.579,260.185 397.603,267.432 397.609,267.484C397.93,270.018 396.516,269.647 389.598,272.72C371.756,280.645 345.408,288.994 340.426,290.243C337.339,291.016 334.947,292.789 333.594,289.458C332.404,286.529 332.524,286.505 331.354,283.557C330.014,280.182 329.179,278.983 332.63,277.896C339.433,275.754 339.469,275.911 348.363,273.018Z" style="fill:rgb(189,35,133);"/>
            <path d="M162.678,389.611C162.916,389.656 162.879,388.986 163.117,389.031C164.253,389.247 163.625,390.052 171.704,398.301C176.199,402.891 176.046,403.496 178.492,403.624C180.798,403.744 181.965,403.235 181.606,405.517C181.602,405.537 174.083,423.376 170.725,434.571C169.569,438.424 168.274,441.424 167.148,445.394C167.101,445.559 166.63,447.219 166.399,447.394C166.29,447.477 165.611,447.993 164.698,447.265C164.439,447.059 160.412,441.317 158.413,437.552C157.5,435.832 156.304,434.312 155.459,432.525C155.117,431.801 155.345,431.527 154.566,431.369C154.21,431.297 153.788,431.256 153.48,431.448C153.056,431.711 152.915,432.282 152.549,432.621C152.107,433.032 151.592,433.247 151.5,433.285C150.989,433.498 150.954,433.287 150.442,433.5C150.649,432.326 153.93,416.545 155.229,412.415C155.818,410.543 156.058,410.328 156.087,410.262C156.743,409.779 156.852,409.991 157.518,409.5C158.092,409.077 157.931,408.925 158.49,408.491C158.682,408.341 158.976,408.368 159.167,408.218C159.299,408.113 160.078,406.847 160.212,406.43C160.486,405.577 159.841,403.537 159.812,403.5C159.464,403.06 158.808,402.937 158.461,402.497C160.243,395.947 160.206,395.947 162.678,389.611Z" style="fill:rgb(14,27,38);"/>
            <path d="M559.213,606.471L559.219,607.24C559.101,607.431 558.754,607.383 558.636,607.573C558.004,608.594 559.061,609.502 560.46,611.532C561.691,613.319 563.305,612.672 564.504,612.53C568.569,612.047 568.228,614.153 569.318,614.923C569.709,615.199 570.191,615.329 570.583,615.605C570.422,615.804 565.417,622.661 559.82,628.788C550.553,638.933 546.163,643.09 539.19,649.142C537.261,650.815 537.094,650.543 536.883,650.638C536.163,650.247 535.315,650.279 532.481,647.52C531.197,646.27 531.263,646.234 530.06,644.892C527.53,642.07 527.036,641.222 531.765,633.662C536.599,625.934 536.155,625.205 537.482,625.198C538.589,625.193 539.73,627.432 541.324,629.621C544.353,633.782 544.118,634.422 545.428,634.262C546.195,634.168 546.036,633.895 547.301,632.346C548.697,630.636 548.664,630.631 549.977,628.868C551.72,626.527 553.882,625.09 552.181,622.73C551.631,621.968 545.83,614.383 545.276,613.659C544.897,613.164 541.885,609.226 540.56,607.455C538.515,604.72 539.479,604.438 539.672,603.569C539.73,603.305 539.603,603.012 539.695,602.758C539.755,602.59 539.896,602.693 540.554,601.555C541.143,600.534 541.512,600.259 542.386,599.38C544.252,597.505 546.311,595.533 546.47,595.456C548.735,594.356 548.616,595.81 556.694,603.276C559.593,605.955 560.127,605.531 560.043,605.858C559.957,606.191 559.299,606.138 559.213,606.471Z" style="fill:rgb(57,144,207);"/>
            <path d="M415.572,752.531C414.222,754.875 412.298,757.652 402.654,774.587C396.496,785.402 395.87,786.341 395.216,787.323C394.731,788.051 390.319,795.912 388.229,799.347C387.022,801.331 384.611,806.119 384.341,806.329C384.233,806.412 383.482,806.993 382.635,806.356C382.614,806.34 379.602,800.792 378.223,798.676C376.459,795.969 373.117,789.627 371.258,786.636C370.956,786.15 370.974,786.161 367.713,780.414C367.731,780.408 369.072,780.322 370.385,779.347C372.138,778.044 408.569,756.473 411.724,753.897C413.34,752.578 413.369,752.615 413.494,752.483C413.651,752.319 413.597,751.969 413.805,751.878C413.805,751.878 415.431,752.479 415.572,752.531Z" style="fill:rgb(15,27,39);"/>
            <path d="M537.436,297.807C537.508,297.849 538.094,297.814 540.264,299.759C544.194,303.281 544.873,304.125 544.104,305.29C543.494,306.214 539.109,309.902 532.542,310.76C522.415,312.082 511.543,312.034 503.143,304.937C502.176,304.12 495.074,298.12 498.93,289.691C502.022,282.93 509.732,279.069 521.833,289.088C522.573,289.7 527.126,293.47 530.132,297.76C530.804,298.719 531.694,301.595 533.76,299.906C536.462,297.696 536.677,298.098 537.436,297.807Z" style="fill:rgb(15,29,39);"/>
            <path d="M399.333,639.503C399.344,649.239 398.905,652.134 400.771,653.008C401.687,653.438 404.214,653.422 404.756,650.547C405.182,648.283 404.74,648.271 405.016,643.479C406.661,644.98 406.325,645.442 414.277,649.891C415.303,650.465 420.237,653.421 420.437,653.593C420.798,653.904 421.041,654.346 421.429,654.624C421.916,654.974 422.06,654.672 422.5,655.074C423.164,655.681 422.841,655.914 423.501,656.517C418.683,657.496 418.226,656.968 415.961,659.848C415.293,660.698 415.114,661.344 412.683,662.824C405.878,666.969 397.29,658.122 395.452,656.559C385.361,647.979 378.014,639.029 375.481,639.095C375.201,639.102 374.107,639.609 373.953,639.79C373.843,639.92 373.872,639.925 372.847,641.615C372.178,640.796 371.79,641.308 371.13,640.5C371.08,640.438 371.051,640.403 371.121,639.5C371.2,638.487 371.228,638.505 371.177,637.499C371.038,634.767 371.248,631.348 371.01,622.491C370.927,619.435 370.462,619.262 371.351,618.32C372.218,617.401 372.418,617.872 373.466,618.562C382.712,624.65 384.974,626.436 385.926,627.187C386.612,627.729 386.874,627.652 386.774,628.503C386.624,629.784 383.205,628.759 382.605,629.555C381.749,630.689 382.158,630.979 383.454,631.569C387.07,633.215 396.471,640.032 397.5,640.089C397.5,640.089 399.186,639.55 399.333,639.503Z" style="fill:rgb(175,26,119);"/>
            <path d="M416.548,750.538C416.347,750.929 416.405,750.941 416.206,751.328C416.157,751.425 416.159,751.417 415.572,752.531C415.431,752.479 413.805,751.878 413.805,751.878C413.597,751.969 413.651,752.319 413.494,752.483C413.369,752.615 413.34,752.578 411.724,753.897C408.569,756.473 372.138,778.044 370.385,779.347C369.072,780.322 367.731,780.408 367.713,780.414C366.172,778.107 366.268,778.07 361.495,769.505C361.673,769.373 363.673,767.9 363.728,767.868C373.177,762.267 373.067,762.111 382.439,756.4C394.233,749.214 394.254,749.268 400.428,745.392C406.774,741.408 408.312,739.616 410.275,741.71C410.638,742.097 413.817,746.758 414.324,747.612C415.066,748.861 415.187,748.77 415.247,748.88C415.407,749.174 415.308,749.584 415.515,749.847C415.771,750.173 416.292,750.212 416.548,750.538Z" style="fill:rgb(186,33,131);"/>
            <path d="M615.752,440.531C616.818,445.751 617.952,456.281 617.904,462.348C617.508,462.329 617.145,462.088 616.749,462.069C616.338,462.049 615.936,462.218 615.524,462.232C614.851,462.255 614.177,462.187 613.503,462.179C603.849,462.065 603.835,468.549 603.156,471.419C601.579,478.09 593.35,482.581 591.912,474.425C590.165,464.514 590.886,462.392 591.222,461.405C592.869,456.56 591.561,456.405 591.893,440.512C591.941,438.223 591.414,430.933 596.703,435.244C602.698,440.13 603.455,443.665 604.482,446.509C604.548,446.691 605.045,448.068 606.324,448.084C606.481,448.086 608.547,446.009 613.261,442.166C613.889,441.654 613.969,441.821 614.499,441.499C614.95,441.225 615.301,440.805 615.752,440.531Z" style="fill:rgb(204,40,137);"/>
            <path d="M392.651,239.967C392.611,240.133 391.765,240.839 392.705,242.392C394.141,244.764 394.267,244.666 396.941,249.264C397.562,250.33 397.835,250.318 397.549,251.519C397.389,252.188 397.293,252.361 389.547,254.657C385.888,255.741 385.803,254.584 383.918,251.26C383.545,250.601 379.937,244.237 378.503,243.496C376.774,242.602 376.264,242.863 363.398,247.203C353.173,250.652 341.962,256.249 336.307,260.222C334.695,261.354 330.336,263.462 329.531,263.214C328.521,262.902 328.115,262.229 326.563,258.475C323.874,251.97 325.892,250.753 326.444,250.42C327.964,249.504 339.48,245.537 340.318,245.184C340.978,244.906 340.938,244.847 341.609,244.625C342.128,244.453 342.715,244.402 343.157,244.08C343.197,244.051 343.071,244.036 343.202,243.465C343.325,242.927 343.412,242.97 343.537,242.426C343.784,242.432 344.174,242.791 345.517,242.471C347.341,242.037 347.329,241.952 356.469,241.102C360.553,240.721 365.892,240.064 372.474,240.061C372.55,240.061 377.682,239.842 382.494,239.842C382.976,239.842 388.471,239.842 388.518,239.849C388.833,239.895 389.045,240.276 389.363,240.294C389.758,240.315 390.153,240.146 390.5,239.957C390.881,239.748 391.066,239.121 391.5,239.123C391.976,239.126 392.175,239.965 392.651,239.967Z" style="fill:rgb(229,229,230);"/>
            <path d="M453.506,631.526C452.855,629.661 451.457,627.33 457.25,620.294C459.543,617.509 459.544,617.536 461.788,614.723C468.236,606.641 468.478,606.862 469.012,606.141C471.745,602.445 471.814,602.519 472.044,602.194C476.953,595.277 477.059,595.089 477.431,594.431C477.517,594.28 478.375,592.763 479.421,593.583C479.806,593.885 479.723,595.326 479.714,595.479C479.364,601.577 479.693,630.79 479.44,634.502C479.355,635.759 478.512,636.499 478.512,636.5C478.341,636.863 478.422,637.313 478.25,637.677C474.875,636.12 474.194,634.718 465.416,632.888C459.514,631.658 459.53,631.367 453.506,631.526Z" style="fill:rgb(180,19,114);"/>
            <path d="M513.6,342.931C515.831,342.479 532.775,338.279 536.395,337.171C540.589,335.888 547.269,334.278 549.537,333.641C554.871,332.142 556.447,331.209 557.839,335.372C559.648,340.778 560.012,341.609 559.744,342.592C559.375,343.945 555.611,344.581 554.586,344.841C547.342,346.674 522.386,354.764 516.503,355.524C514.314,355.807 513.383,354.249 509.736,348.369C506.703,343.479 510.124,343.677 513.6,342.931Z" style="fill:rgb(188,35,131);"/>
            <path d="M425.754,703.165C427.341,706.043 427.487,705.924 429.425,708.553C433.269,713.769 434.06,712.802 434.623,712.998C434.541,713.379 433.834,713.397 433.752,713.778C433.688,714.076 434.152,714.244 434.298,714.512C434.453,714.793 434.469,715.142 434.645,715.41C434.891,715.785 435.182,716.147 435.544,716.412C435.874,716.655 436.343,716.657 436.673,716.9L436.374,717.259C436.105,717.694 435.835,718.13 435.566,718.565C432.488,722.587 429.951,727.464 429.736,727.607C429.213,727.956 428.616,728.185 428.092,728.533C427.145,727.504 425.87,725.961 423.092,721.77C412.245,705.406 406.874,698.54 404.343,694.605C401.393,690.017 399.453,688.42 402.422,687.316C406.639,685.748 410.244,684.182 411.579,683.733C413.794,682.99 414.433,683.928 415.668,686.417C418.802,692.728 424.791,702.064 424.904,702.22C425.154,702.562 425.504,702.823 425.754,703.165Z" style="fill:rgb(238,195,50);"/>
            <path d="M148.931,505.5C149.204,505.44 150.174,504.677 152.28,505.923C155.107,507.596 160.027,509.242 167.304,512.888C169.37,513.922 169.894,514.556 170.015,515.506C170.04,515.696 169.04,521.333 168.544,523.51C166.814,531.096 166.241,535.588 163.837,548.562C162.598,555.253 163.632,555.393 163.19,556.373C162.968,556.867 162.454,557.19 162.231,557.684C161.706,556.499 161.135,555.211 156.966,542.353C152.807,529.525 149.411,508.479 148.931,505.5Z" style="fill:rgb(13,29,40);"/>
            <path d="M276.523,682.41C278.133,680.129 278.307,680.292 280.69,678.814C281.208,678.493 286.813,675.22 288.334,674.234C293.171,671.098 293.656,672.114 299.585,674.272C304.035,675.892 304.006,675.941 308.553,677.306C312.475,678.482 312.349,678.98 314.051,682.7C315.246,685.311 318.406,692.468 318.715,693.431C319.861,697.004 316.593,696.149 314.643,697.595C314.212,697.914 313.815,698.279 313.384,698.598C311.489,697.292 309.479,696.051 300.432,692.832C300.076,691.834 300.489,691.77 300.129,690.761C300.112,690.713 300.105,690.692 299.581,690.446C299.372,690.348 299.121,690.334 298.934,690.199C298.717,690.043 298.61,689.768 298.404,689.598C297.854,689.146 297.809,689.244 297.217,688.833C291.12,684.601 289.588,687.154 288.116,687.99C287.394,687.7 285.634,686.992 279.275,683.959C278.356,683.521 278.345,683.556 276.523,682.41Z" style="fill:rgb(200,36,139);"/>
            <path d="M236.395,401.702C242.978,405.664 245.11,406.724 248.404,408.656C248.259,408.805 246.589,410.523 246.589,410.523C246.245,411.05 242.244,438.412 240.535,441.523C240.073,442.364 237.871,443.592 237.575,443.699C236.923,443.936 230.106,445.415 228.537,445.624C228.225,445.665 227.899,445.619 227.595,445.703C227.211,445.81 226.899,446.208 226.5,446.19C226.408,446.185 226.574,445.914 225.5,445.608C225.119,445.5 225.125,445.797 224.742,445.688C224.87,445.162 224.885,444.158 226,441.725C226.044,441.629 226.273,441.366 226.601,440.542C228.365,436.122 228.166,436.066 229.281,431.45C230.709,425.537 230.345,425.477 231.6,419.518C232.129,417.009 231.966,416.992 232.039,416.334C232.087,416.04 231.921,416.059 231.968,415.771C231.992,415.623 232.139,415.522 232.193,415.382C233.351,412.361 233.651,410.957 233.736,410.561C234.499,406.989 234.806,407.085 235.582,403.527C235.914,402.002 236.229,402.074 236.395,401.702Z" style="fill:rgb(175,26,120);"/>
            <path d="M470.777,279.34C477.114,290.125 478.547,290.089 478.978,291.331C479.629,293.205 478.443,292.929 472.703,297.752C470.619,299.503 469.993,299.79 468.288,297.676C459.88,287.246 457.579,286.503 449.743,266.406C448.57,263.399 447.361,262.318 450.407,261.24C451.108,260.992 458.322,258.44 459.401,258.877C461.072,259.553 462.09,263.405 465.188,268.671C466.397,270.727 468.016,274.377 470.777,279.34Z" style="fill:rgb(237,192,50);"/>
            <path d="M188.187,341.391C190.307,341.323 190.302,341.376 190.476,341.317C191.387,341.011 191.087,340.341 201.564,336.685C206.995,334.79 209.035,333.205 209.874,336.38C212.334,345.686 212.552,345.664 212.458,346.494C212.153,349.168 203.888,349.382 180.334,360.132C178.386,361.021 177.474,360.393 177.399,360.39C177.419,360.189 177.116,359.724 177.588,358.552C178.384,356.577 187.535,342.494 188.187,341.391Z" style="fill:rgb(58,144,205);"/>
            <path d="M457.544,694.725C450.645,696.703 450.704,696.85 443.83,698.953C443.309,698.497 442.768,698.065 442.247,697.61C440.483,696.068 441.854,693.964 450.354,680.41C457.847,668.461 457.505,668.227 458.39,667.38C459.585,666.235 460.619,666.939 464.329,668.84C469.273,671.373 470.028,671.73 469.596,673.528C469.559,673.683 461.135,689.256 459.251,691.366C458.382,692.339 458.475,692.396 458.399,692.479C458.286,692.602 458.034,692.562 457.954,692.709C457.954,692.709 457.577,694.564 457.544,694.725Z" style="fill:rgb(187,33,131);"/>
            <path d="M354.386,714.288C354.517,714.721 354.982,715.001 355.113,715.433C355.303,716.062 354.257,718.361 357.075,721.817C357.56,722.412 360.463,725.972 366.517,723.536C366.682,723.47 367.661,723.076 368.404,722.365C368.678,722.103 368.483,721.798 369.5,721.64C369.813,721.591 370.131,721.581 370.444,721.532C370.624,721.662 370.618,721.967 370.798,722.097C371.809,722.826 371.997,722.456 384.532,729.45C387.285,730.986 384.285,734.205 382.464,738.484C381.014,741.892 379.884,740.999 376.6,739.307C374.915,738.439 374.908,738.484 355.346,728.822C348.294,725.339 347.011,725.047 348.099,722.339C348.442,721.485 351.011,716.776 351.25,716.361C352.743,713.767 353.573,714.564 354.386,714.288Z" style="fill:rgb(234,132,33);"/>
            <path d="M596.895,571.688C596.502,571.79 592.114,572.761 590.438,573.382C590.269,573.445 588.73,574.015 589.573,575.462C589.791,575.837 589.902,575.739 593.269,579.423C592.878,580.27 589.908,586.699 587.864,589.753C586.651,591.564 585.509,591.749 579.257,585.753C578.079,584.624 570.8,577.642 568.289,568.555C568.247,568.402 567.84,566.927 567.954,566.6C568.001,566.466 568.279,565.672 569.506,565.726C570.791,565.784 570.769,565.918 585.433,567.998C596.633,569.586 596.823,569.653 597.219,570.532C597.307,570.727 597.147,571.299 597.129,571.363C597.093,571.492 596.931,571.56 596.895,571.688Z" style="fill:rgb(16,28,38);"/>
            <path d="M207.685,582.17C213.045,584.872 212.76,585.289 212.786,585.379C213.018,586.162 212.875,586.787 211.22,591.4C209.442,596.357 209.012,596.489 208.563,596.627C207.733,596.882 207.089,597.08 198.643,592.218C197.828,591.749 192.129,588.771 189.687,587.2C185.523,584.521 182.813,584.684 185.24,580.369C186.718,577.741 188.325,573.943 189.303,573.177C190.321,572.382 192.092,573.613 194.717,575.097C201.157,578.738 201.24,578.537 207.685,582.17Z" style="fill:rgb(237,193,51);"/>
            <path d="M605.561,404.489L605.761,405.593C605.202,407.11 605.349,407.186 601.944,412.766C599.036,417.531 598.915,417.441 596.034,422.222C593.427,426.55 593.016,428.444 589.769,426.126C589.353,425.829 585.17,422.843 584.588,422.383C582.438,420.682 582.966,419.803 585.285,416.359C587.72,412.743 593.525,403.016 596.123,399.223C596.242,399.049 597.242,397.589 598.382,397.869C598.897,397.995 603.683,401.595 604.884,403.062C605.677,404.03 605.402,404.153 605.561,404.489Z" style="fill:rgb(237,140,36);"/>
            <path d="M232.618,375.529C232.684,375.203 232.635,374.861 232.701,374.536C233.185,372.157 234.909,369.671 235.174,369.29C236.843,366.883 238.199,364.537 240.592,365.26C241.255,365.46 241.222,365.517 247.617,370.33C252.525,374.023 255.217,375.394 255.48,375.558C253.821,378.587 254.206,378.726 251.491,387.497C251.319,388.055 249.363,394.373 249.348,394.469C249.334,394.558 249.338,396.904 249.353,396.986C249.371,397.092 249.604,397.056 249.622,397.162C248.83,396.83 243.163,394.454 239.637,393.213C240.2,392.404 240.271,392.473 240.759,391.6C244.973,384.059 245.119,384.147 245.462,383.479C246.62,381.224 247.699,379.561 245.437,378.615C242.416,377.35 241.633,377.277 241.559,377.262C235.903,376.093 235.936,375.965 235.441,375.88C233.489,375.547 233.542,375.384 233.373,375.36C233.118,375.324 232.874,375.565 232.618,375.529Z" style="fill:rgb(172,28,122);"/>
            <path d="M424.882,273.341C428.107,280.539 428.421,281.15 426.306,283.301C425.165,284.462 424.469,284.797 420.627,289.622C418.075,292.828 417.915,288.729 414.618,280.451C412.421,274.934 407.762,267.321 409.836,264.752C410.589,263.82 415.94,259.972 417.558,260.238C419.259,260.518 421.509,266.249 422.97,269.274C423.949,271.298 423.977,271.271 424.882,273.341Z" style="fill:rgb(189,36,133);"/>
            <path d="M379.101,480.508C379.016,482.057 379.209,482.119 378.78,482.681C377.709,484.082 377.241,483.652 370.416,480.686C366.316,478.904 365.692,478.539 360.265,474.852C356.852,472.534 354.504,471.732 358.835,464.697C361.955,459.629 363.196,459.171 366.248,461.793C368.239,463.504 368.613,464.06 372.573,467.414C378.614,472.531 378.632,473.071 379.101,480.508Z" style="fill:rgb(243,43,146);"/>
            <path d="M347.475,307.24C347.273,308.541 347.66,308.912 346.418,309.374C344.849,309.959 344.802,309.772 344.673,309.837C344.516,309.918 344.522,310.176 344.376,310.275C344.358,310.287 340.927,311.642 340.627,311.76C335.477,313.794 335.596,314.024 331.609,315.736C316.817,322.088 316.875,322.179 315.573,322.689C310.366,324.729 307.648,325.879 306.433,326.333C302.588,327.768 299.756,329.687 298.347,326.58C296.148,321.732 295.941,321.832 295.788,321.395C295.692,321.121 295.833,320.799 295.737,320.524C295.867,320.385 295.816,320.133 295.945,319.994C296.426,319.476 298.087,319.245 309.561,316.755C315.622,315.439 324.141,313.117 328.421,312.129C337.503,310.031 344.68,307.843 347.475,307.24Z" style="fill:rgb(22,24,33);"/>
            <path d="M413.081,469.56C412.986,470.305 413.695,471.912 410.621,473.698C406.792,475.922 406.739,475.812 403.724,477.86C400.207,480.249 398.811,480.672 396.362,482.267C395.206,483.02 394.081,483.69 393.214,482.757C392.874,482.391 392.47,481.956 392.828,476.525C393.148,471.684 396.048,470.115 401.133,465.123C404.489,461.829 406.743,458.031 409.506,462.496C412.601,467.499 412.409,467.597 413.081,469.56Z" style="fill:rgb(244,44,147);"/>
            <path d="M225.888,395.243C226.441,395.532 233.911,399.984 236.395,401.702C236.229,402.074 235.914,402.002 235.582,403.527C234.806,407.085 234.499,406.989 233.736,410.561C233.651,410.957 233.351,412.361 232.193,415.382C232.139,415.522 231.992,415.623 231.968,415.771C231.921,416.059 232.087,416.04 232.039,416.334C231.836,416.396 231.606,416.3 231.403,416.362C230.967,416.496 230.88,417.164 228.541,416.38C227.795,416.13 227.811,416.101 219.332,412.914C218.127,412.461 217.669,412.76 217.539,411.492C217.385,409.994 221.34,404.732 224.376,398.433C224.67,397.824 224.637,397.821 225.027,397.283C225.962,395.992 225.632,395.848 225.888,395.243Z" style="fill:rgb(60,141,206);"/>
            <path d="M232.618,375.529C232.874,375.565 233.118,375.324 233.373,375.36C233.542,375.384 233.489,375.547 235.441,375.88C235.936,375.965 235.903,376.093 241.559,377.262C241.633,377.277 242.416,377.35 245.437,378.615C247.699,379.561 246.62,381.224 245.462,383.479C245.119,384.147 244.973,384.059 240.759,391.6C240.271,392.473 240.2,392.404 239.637,393.213C239.156,393.048 235.151,391.671 233.629,391.13C229.548,389.679 229.628,389.497 229.507,389.447C228.833,389.173 228.112,389.023 227.437,388.749C227.749,388.571 228.175,389.161 228.487,388.984C228.699,388.863 229.289,388.528 230.027,386.345C231.812,381.063 232.49,376.409 232.618,375.529Z" style="fill:rgb(65,142,205);"/>
            <path d="M284.302,621.662C287.09,625.166 284.85,625.519 281.424,628.41C278.468,630.904 274.351,633.326 273.489,633.429C271.591,633.657 271.805,632.957 270.894,631.29C267.996,625.988 267.022,625.35 269.641,622.637C271.671,620.534 274.531,618.626 276.227,617.175C278.783,614.99 279.379,615.907 281.566,618.443C281.856,618.78 284.083,621.404 284.302,621.662Z" style="fill:rgb(192,32,134);"/>
            <path d="M525.669,510.481L525.766,511.469C525.35,511.924 524.646,512.045 524.23,512.5C523.7,513.081 523.788,516.422 523.192,518.433C521.742,523.323 522.661,523.529 521.041,528.378C520.115,531.153 519.427,530.73 516.509,530.922C514.96,531.023 514.724,531.52 513.68,530.365C512.935,529.54 513.611,527.688 513.642,527.534C514.444,523.476 514.817,523.575 515.489,519.498C515.985,516.489 516.416,516.609 516.953,513.601C517.678,509.545 518.317,509.694 518.804,505.593C518.822,505.439 518.965,504.234 519.742,503.905C520.866,503.43 521.409,504.392 521.481,504.521C522.038,505.507 522.127,505.44 522.531,506.481C522.969,507.611 523.374,507.366 523.817,508.5C523.946,508.829 523.929,509.242 524.171,509.5C524.579,509.936 525.262,510.045 525.669,510.481Z" style="fill:rgb(241,72,45);"/>
            <path d="M191.502,388.504C191.265,388.651 190.944,388.617 190.707,388.764C190.527,388.875 190.448,389.1 190.298,389.25C190.116,389.433 189.875,389.557 189.713,389.758C189.561,389.946 189.526,390.212 189.373,390.398C189.266,390.528 189.062,390.549 188.956,390.679C188.62,390.449 188.171,390.424 187.834,390.194C187.646,390.065 187.613,389.78 187.435,389.638C187.075,389.352 184.246,388.364 180.063,383.911C179.03,382.811 175.269,379.794 182.176,374.06C185.052,371.672 186.463,373.822 189.94,377.035C192.298,379.215 195.369,381.817 194.198,384.342C193.87,385.048 192.703,386.374 192.559,386.538C192.248,386.891 191.81,387.145 191.588,387.558C191.438,387.837 191.651,388.225 191.502,388.504Z" style="fill:rgb(192,34,133);"/>
            <path d="M313.295,279.974C316.231,281.58 321.424,285.147 321.766,286.407C322.333,288.497 318.758,294.039 317.507,294.516C317.028,294.698 315.563,295.257 311.334,292.799C308.852,291.357 308.971,291.215 306.912,289.188C302.706,285.048 308.135,280.695 309.695,279.954C311.386,279.15 311.457,279.588 313.295,279.974Z" style="fill:rgb(188,36,130);"/>
            <path d="M269.127,269.26C271.141,275.612 271.119,276.58 268.583,277.69C258.108,282.274 258.066,282.123 247.439,286.343C245.956,286.932 245.905,286.728 244.413,287.264C244.085,287.382 243.814,287.922 243.5,287.772C242.931,287.498 242.915,286.544 242.346,286.271C245.632,282.958 246.934,282.553 252.189,279.047C253.299,278.306 261.802,272.633 266.388,270.301C267.703,269.632 267.701,269.665 269.127,269.26Z" style="fill:rgb(61,144,202);"/>
            <path d="M269.009,653.425C269.512,653.403 269.884,654.067 270.387,654.045C270.388,654.045 271.872,652.807 273.507,652.709C280.111,652.315 284.561,661.623 278.268,666.159C275.118,668.43 269.825,667.162 267.835,663.319C266.856,661.429 266.788,661.484 266.714,661.315C266.374,660.53 266.563,660.494 266.516,660.44C266.154,660.032 265.934,660.432 265.575,660.027C265.707,659.859 266.175,659.747 266.676,658.626C267.842,656.018 267.816,656.023 269.009,653.425Z" style="fill:rgb(190,39,132);"/>
            <path d="M579.263,346.536C579.961,346.946 579.863,347.067 580.558,347.474C581.134,347.811 581.177,347.646 581.219,347.683C581.626,348.041 582.359,349.378 582.445,349.534C583.098,350.724 586.148,355.541 586.649,356.405C588.907,360.306 589,360.274 589.523,362.457C588.357,363.311 587.83,363.605 587.27,364.335C586.599,365.209 586.828,366.275 586.822,366.329C586.388,366.431 585.932,366.409 585.499,366.511C583.863,366.896 578.226,372.992 578.194,366.504C578.187,365.017 578.337,363.064 578.422,358.497C578.466,356.131 578.462,356.1 577.422,353.958C577.645,353.681 578.063,353.61 578.285,353.333C579.087,352.334 577.887,352.037 579.263,346.536Z" style="fill:rgb(237,192,49);"/>
            <path d="M243.874,301.6C244.781,298.741 244.65,297.526 247.556,298.299C252.541,299.625 252.763,300.949 252.844,301.434C253.065,302.751 250.222,317.264 242.475,314.561C240.371,313.827 240.983,312.377 243.874,301.6Z" style="fill:rgb(191,38,133);"/>
            <path d="M185.141,601.869C185.695,601.516 185.95,600.8 186.504,600.447C187.152,600.033 199.358,601.265 200.297,605.554C200.432,606.171 200.6,611.356 196.754,613.913C196.587,614.023 196.625,614.045 195.01,615.7C190.857,610.378 190.85,610.396 187.093,604.789C186.106,603.317 185.996,603.409 185.141,601.869Z" style="fill:rgb(185,32,129);"/>
            <path d="M215.559,370.667C215.307,370.718 213.199,371.577 210.481,370.545C205.758,368.754 205.267,359.717 212.523,358.798C215.391,358.435 219.251,360.669 219.597,364.492C219.751,366.198 219.028,367.469 218.898,367.697C217.426,370.285 216.893,369.896 215.559,370.667Z" style="fill:rgb(197,35,135);"/>
            <path d="M305.589,252.649C305.709,252.806 307.034,254.534 307.067,254.623C309.637,261.675 302.581,267.313 296.46,263.558C296.266,263.439 295.231,262.805 294.505,261.497C293.411,259.528 293.615,259.452 293.451,257.21C299.401,254.597 299.42,254.674 305.589,252.649Z" style="fill:rgb(194,39,134);"/>
            <path d="M428.642,244.262C433.103,244.974 442.452,247.445 442.506,247.469C442.872,247.632 443.053,248.101 443.428,248.242C443.748,248.362 444.132,248.079 444.452,248.199C441.305,253.948 440.97,254.135 440.453,254.422C439.301,255.063 439.161,254.829 430.466,252.635C430.421,252.624 428.762,252.312 428.394,251.581C427.431,249.667 427.983,249.57 428.269,247.46C428.488,245.851 428.875,245.508 428.892,245.335C428.928,244.97 428.606,244.627 428.642,244.262Z" style="fill:rgb(58,141,202);"/>
            <path d="M612.788,523.454C612.691,527.539 612.257,527.466 611.391,531.463C610.962,533.444 608.668,541.548 608.664,541.561C608.328,542.711 608.284,542.681 607.901,543.811C606.395,542.492 605.655,541.724 605.471,541.532C604.485,540.507 602.69,539.399 603.508,537.505C603.801,536.825 607.999,533.758 608.361,533.285C608.511,533.09 608.515,532.809 608.657,532.608C608.754,532.47 608.959,532.436 609.056,532.298C609.156,531.837 609.391,531.963 609.489,531.511C609.501,531.454 609.598,531.004 609.382,530.787C609.163,530.567 608.711,530.731 608.492,530.511C608.339,530.42 606.935,529.591 606.563,529.393C602.668,527.322 603.516,525.768 606.842,522.883C609.663,520.436 610.326,521.814 612.788,523.454Z" style="fill:rgb(19,25,40);"/>
            <path d="M371.502,606.522C384.431,606.034 392.961,606.758 393.694,607.01C395.243,607.542 395.077,607.88 395.129,609.512C395.229,612.622 394.762,612.894 396.801,615.228C396.01,615.53 396.29,615.929 395.5,616.231C395.441,616.254 395.328,616.297 394.746,616.014C393.156,615.241 393.408,614.911 393.268,614.856C392.988,614.746 392.666,614.848 392.367,614.822C386.707,614.319 387.943,609.526 383.48,609.763C379.725,609.962 377.72,608.884 376.486,608.575C375.473,608.321 372.566,608.05 372.5,607.997C372.04,607.622 371.962,606.897 371.502,606.522Z" style="fill:rgb(190,29,122);"/>
            <path d="M547.159,400.575C548.78,408.539 548.855,408.538 551.245,413.576C551.332,413.759 552.569,416.368 550.642,416.031C549.985,415.916 548.111,412.853 546.336,410.635C542.892,406.33 538.791,398.677 538.732,398.469C538.272,396.849 540.33,397.116 540.506,397.139C540.693,397.163 541.74,397.564 543.445,397.832C543.681,397.869 545.736,398.191 546.312,398.702C546.606,398.964 546.753,399.289 546.779,399.347C547.052,399.95 546.891,399.984 547.159,400.575Z" style="fill:rgb(17,31,40);"/>
            <path d="M242.344,360.789C242.133,360.602 241.846,360.515 241.634,360.328C237.877,357.007 239.578,351.055 244.516,350.816C250.507,350.526 251.708,358.371 247.55,360.587C244.55,362.185 242.883,361.007 242.344,360.789Z" style="fill:rgb(199,42,134);"/>
            <path d="M296.888,295.474C296.89,295.46 296.752,294.13 297.562,292.537C299.929,287.879 306.818,289.628 307.279,294.523C307.872,300.834 299.705,302.2 297.468,297.517C296.812,296.143 296.977,295.787 296.888,295.474Z" style="fill:rgb(232,232,232);"/>
            <path d="M519.651,663.824C517.418,666.103 517.223,665.839 514.635,667.688C507.106,673.065 505.64,673.359 504.732,673.696C504.652,673.339 504.915,672.96 504.835,672.603C504.768,672.307 504.247,672.195 504.173,670.532C504.011,666.905 503.872,665.972 505.271,665.086C506.252,664.464 506.923,664.835 514.469,663.335C514.794,663.27 518.064,662.62 518.584,662.867C519.015,663.073 519.22,663.618 519.651,663.824Z" style="fill:rgb(57,144,205);"/>
            <path d="M199.967,622.012C200.696,621.908 207.816,619.834 211.128,626.678C211.858,628.186 212.767,631.887 212.009,633.5C211.818,633.907 211.468,634.225 211.277,634.632C206.328,630.083 206.686,629.758 202.2,624.764C202.088,624.64 201.177,623.625 200.866,623.151C200.728,622.94 200.669,622.681 200.514,622.483C200.364,622.294 200.116,622.201 199.967,622.012Z" style="fill:rgb(185,39,129);"/>
            <path d="M288.116,687.99C289.588,687.154 291.12,684.601 297.217,688.833C297.809,689.244 297.854,689.146 298.404,689.598C298.61,689.768 298.717,690.043 298.934,690.199C299.121,690.334 299.372,690.348 299.581,690.446C300.105,690.692 300.112,690.713 300.129,690.761C300.489,691.77 300.076,691.834 300.432,692.832C299.438,692.469 290.57,689.228 288.116,687.99Z" style="fill:rgb(32,12,34);"/>
            <path d="M596.895,571.688C596.56,572.532 596.508,572.491 596.228,573.367C596.096,573.777 595.232,576.473 594.003,578.268C593.923,578.385 593.76,578.43 593.684,578.55C593.417,578.97 593.531,579.011 593.269,579.423C589.902,575.739 589.791,575.837 589.573,575.462C588.73,574.015 590.269,573.445 590.438,573.382C592.114,572.761 596.502,571.79 596.895,571.688Z" style="fill:rgb(205,65,73);"/>
            <path d="M255.836,336.551C255.69,336.856 255.685,337.216 255.539,337.522C254.992,338.664 253.205,338.38 248.54,338.254C248.393,338.25 246.93,338.21 246.703,338.084C246.504,337.974 246.292,336.883 246.535,336.532C246.812,336.13 247.926,336.358 253.502,334.507C256.594,333.48 255.747,335.892 255.836,336.551Z" style="fill:rgb(225,228,231);"/>
            <path d="M434.623,712.998C434.797,712.97 435.964,712.956 437.475,712.357C437.628,712.297 439.175,711.683 439.44,711.781C439.642,711.856 439.595,712.211 439.77,712.337C439.956,712.47 440.36,712.282 440.439,712.497C440.606,712.952 438.437,715.005 437.822,715.759C437.307,716.391 437.255,716.322 436.673,716.9C436.343,716.657 435.874,716.655 435.544,716.412C435.182,716.147 434.891,715.785 434.645,715.41C434.469,715.142 434.453,714.793 434.298,714.512C434.152,714.244 433.688,714.076 433.752,713.778C433.834,713.397 434.541,713.379 434.623,712.998Z" style="fill:rgb(37,41,42);"/>
            <path d="M158.461,402.497C158.808,402.937 159.464,403.06 159.812,403.5C159.841,403.537 160.486,405.577 160.212,406.43C160.078,406.847 159.299,408.113 159.167,408.218C158.976,408.368 158.682,408.341 158.49,408.491C157.931,408.925 158.092,409.077 157.518,409.5C156.852,409.991 156.743,409.779 156.087,410.262C157.122,406.325 157.113,406.343 158.461,402.497Z" style="fill:rgb(166,46,124);"/>
            <path d="M608.492,530.511C608.711,530.731 609.163,530.567 609.382,530.787C609.598,531.004 609.501,531.454 609.489,531.511C609.391,531.963 609.156,531.837 609.056,532.298C608.868,531.703 608.68,531.107 608.492,530.511Z" style="fill:rgb(137,55,111);"/>
        </g>
    </g>
</svg>
